<svg width="31" height="20" viewBox="0 0 31 20" fill="none" xmlns="http://www.w3.org/2000/svg">
<path fill-rule="evenodd" clip-rule="evenodd" d="M15.9501 6.52078L23.9547 1.32958C24.6475 0.880457 25.7708 0.880457 26.4637 1.32958C27.1565 1.77893 27.1565 2.50734 26.4637 2.95667L17.6824 8.65151C17.2004 8.96429 16.51 9.05945 15.9012 8.93701C15.3209 9.03069 14.6814 8.93044 14.2278 8.63626L5.50532 2.97946C4.81705 2.53275 4.81705 1.80943 5.50532 1.36318C6.19344 0.916728 7.30922 0.916728 7.99738 1.36318L15.9501 6.52078ZM15.9322 16.5912L26.8474 9.45334C27.7921 8.83549 29.3239 8.83549 30.2686 9.45334C31.2134 10.071 31.2134 11.0727 30.2686 11.6905L18.2942 19.5211C17.6369 19.951 16.6955 20.0817 15.8653 19.9135C15.074 20.0423 14.202 19.9045 13.5833 19.5001L1.68905 11.7215C0.750621 11.1081 0.750621 10.1132 1.68905 9.49934C2.62745 8.8857 4.14896 8.8857 5.08736 9.49934L15.9322 16.5912Z" fill="white"/>
</svg>
