<?xml version="1.0" standalone="no"?>
<!DOCTYPE svg PUBLIC "-//W3C//DTD SVG 1.1//EN" "http://www.w3.org/Graphics/SVG/1.1/DTD/svg11.dtd" >
<svg xmlns="http://www.w3.org/2000/svg" xmlns:xlink="http://www.w3.org/1999/xlink" version="1.1">
<metadata>
Created by FontForge 20170731 at Wed Aug 11 02:05:17 2021
 By Aleksey,,,
Copyright 2020 The MuseoModerno Project Authors (https://github.com/Omnibus-Type/MuseoModerno)
</metadata>
<defs>
<font id="MuseoModerno-Light" horiz-adv-x="696" >
  <font-face 
    font-family="MuseoModerno Light"
    font-weight="300"
    font-stretch="normal"
    units-per-em="1000"
    panose-1="0 0 0 0 0 0 0 0 0 0"
    ascent="800"
    descent="-200"
    x-height="509"
    cap-height="700"
    bbox="-351 -361 1378 1109"
    underline-thickness="80"
    underline-position="-275"
    unicode-range="U+0020-FB06"
  />
<missing-glyph horiz-adv-x="500" 
d="M1 0v700h500v-700h-500zM226 99v70h60v-70h-60zM51 50h400v600h-400v-600zM230 215v63q0 32 16.5 52t37.5 37t38.5 38.5t17.5 59.5q0 14 -6 34.5t-25 36.5t-58 16q-34 0 -53.5 -12t-29 -29.5t-12.5 -33.5t-3 -25v-28h-49q-1 4 -2.5 12.5t-1.5 18.5q0 9 4 32.5t19 50
t45.5 45.5t82.5 19q53 0 82 -19t42 -44t16 -46t3 -26q0 -50 -22 -79.5t-45 -49.5q-17 -14 -30.5 -29.5t-13.5 -40.5v-53h-53z" />
    <glyph glyph-name="f_f" unicode="ff" horiz-adv-x="725" 
d="M106 0v449h-90v61h90v76q0 68 38.5 106.5t106.5 38.5h116v-61h-103q-43 0 -66 -24t-23 -68v-68h268v76q0 68 38.5 106.5t106.5 38.5h117v-61h-103q-43 0 -66 -24t-23 -68v-68h175v-61h-175v-449h-70v449h-268v-449h-69z" />
    <glyph glyph-name="fi" unicode="fi" horiz-adv-x="590" 
d="M106 0v449h-90v61h90v76q0 68 38.5 106.5t106.5 38.5h105v-61h-92q-43 0 -66 -24t-23 -68v-68h339v-510h-71v449h-268v-449h-69zM479 602q-20 0 -35 15t-15 35q0 21 15 35.5t35 14.5t35 -14.5t15 -35.5q0 -20 -15 -35t-35 -15z" />
    <glyph glyph-name="fl" unicode="fl" horiz-adv-x="590" 
d="M106 0v449h-90v61h90v75q0 68 38.5 106.5t106.5 38.5h262v-730h-70v669h-179q-43 0 -66 -24t-23 -68v-67h175v-61h-175v-449h-69z" />
    <glyph glyph-name="f_f_i" unicode="ffi" horiz-adv-x="928" 
d="M106 0v449h-90v61h90v76q0 68 38.5 106.5t106.5 38.5h116v-61h-103q-43 0 -66 -24t-23 -68v-68h268v76q0 67 38.5 106t106.5 39h106v-61h-92q-43 0 -66 -24t-23 -68v-68h338v-510h-70v449h-268v-449h-70v449h-268v-449h-69zM817 602q-20 0 -35 15t-15 35q0 21 15 35.5
t35 14.5t35 -14.5t15 -35.5q0 -20 -15 -35t-35 -15z" />
    <glyph glyph-name="f_f_l" unicode="ffl" horiz-adv-x="929" 
d="M106 0v449h-90v61h90v76q0 68 38.5 106.5t106.5 38.5h116v-61h-103q-43 0 -66 -24t-23 -68v-68h269v76q0 67 38.5 106t106.5 39l263 -1v-730h-70v670h-179q-44 0 -66.5 -24t-22.5 -68v-68h174v-61h-174v-449h-70v449h-269v-449h-69z" />
    <glyph glyph-name=".notdef" horiz-adv-x="500" 
d="M1 0v700h500v-700h-500zM226 99v70h60v-70h-60zM51 50h400v600h-400v-600zM230 215v63q0 32 16.5 52t37.5 37t38.5 38.5t17.5 59.5q0 14 -6 34.5t-25 36.5t-58 16q-34 0 -53.5 -12t-29 -29.5t-12.5 -33.5t-3 -25v-28h-49q-1 4 -2.5 12.5t-1.5 18.5q0 9 4 32.5t19 50
t45.5 45.5t82.5 19q53 0 82 -19t42 -44t16 -46t3 -26q0 -50 -22 -79.5t-45 -49.5q-17 -14 -30.5 -29.5t-13.5 -40.5v-53h-53z" />
    <glyph glyph-name=".null" horiz-adv-x="0" 
 />
    <glyph glyph-name="nonmarkingreturn" horiz-adv-x="333" 
 />
    <glyph glyph-name="space" unicode=" " horiz-adv-x="265" 
 />
    <glyph glyph-name="exclam" unicode="!" horiz-adv-x="248" 
d="M89 211v489h70v-489h-70zM124 -9q-21 0 -37 16t-16 37q0 22 16 37.5t37 15.5q22 0 37.5 -15.5t15.5 -37.5q0 -14 -7.5 -26.5t-19.5 -19.5t-26 -7z" />
    <glyph glyph-name="quotedbl" unicode="&#x22;" horiz-adv-x="411" 
d="M266 419v281h70v-281h-70zM75 419v281h70v-281h-70z" />
    <glyph glyph-name="numbersign" unicode="#" horiz-adv-x="720" 
d="M153 0l27 193h-155v57h163l31 207h-159v57h166l27 186h60l-27 -186h178l27 186h61l-27 -186h157v-57h-164l-31 -207h160v-57h-167l-28 -193h-61l28 193h-178l-28 -193h-60zM248 250h179l30 207h-178z" />
    <glyph glyph-name="dollar" unicode="$" horiz-adv-x="626" 
d="M284 -119v154h54v-154h-54zM284 669v150h54v-150h-54zM74 0v64h305q41 0 70.5 19t44.5 49.5t15 63.5t-14.5 62t-43 47t-68.5 18h-140q-60 0 -103.5 24.5t-67 66.5t-23.5 94t23.5 95.5t67 70t103.5 26.5h293v-64h-288q-39 0 -67.5 -18t-44 -46.5t-15.5 -59.5t14.5 -59
t42 -45.5t67.5 -17.5h141q63 0 106.5 -25t66 -67.5t22.5 -93.5q0 -57 -23.5 -103.5t-67 -73.5t-104.5 -27h-312z" />
    <glyph glyph-name="percent" unicode="%" horiz-adv-x="909" 
d="M219 331q-44 0 -81.5 20t-60.5 55t-23 83v66q0 48 23 83t60.5 55t81.5 20q43 0 80.5 -20t60.5 -55t23 -83v-66q0 -48 -23 -83t-60.5 -55t-80.5 -20zM219 384q28 0 52.5 13t40 38t15.5 60v53q0 36 -15.5 61t-40 38.5t-52.5 13.5t-52.5 -13.5t-40 -38.5t-15.5 -61v-53
q0 -35 15.5 -60t40 -38t52.5 -13zM690 -13q-43 0 -80.5 20t-60.5 55.5t-23 82.5v66q0 48 23 83.5t60.5 55t80.5 19.5q44 0 81.5 -19.5t60.5 -55t23 -83.5v-66q0 -47 -23 -82.5t-60.5 -55.5t-81.5 -20zM691 40q27 0 51.5 13t40 38t15.5 60v54q0 36 -15.5 60.5t-40 38
t-51.5 13.5q-28 0 -52.5 -13.5t-40 -38t-15.5 -60.5v-54q0 -35 15.5 -60t40 -38t52.5 -13zM178 0l488 700h61l-488 -700h-61z" />
    <glyph glyph-name="ampersand" unicode="&#x26;" horiz-adv-x="831" 
d="M671 -216q-40 0 -73 17t-52.5 48.5t-19.5 73.5t22 73.5t57 50t74 22.5q-4 3 -16.5 14.5t-42.5 35.5l-62 51q-32 -60 -72.5 -101t-90.5 -61.5t-114 -20.5q-72 0 -127.5 29.5t-86 82t-30.5 119.5q0 47 18.5 91.5t57.5 82.5t99 63q-17 14 -33.5 32.5t-28 41.5t-11.5 48
q0 37 18.5 67.5t52 49.5t77.5 19q42 0 74.5 -17t50.5 -47t18 -69q0 -45 -29 -79.5t-82 -57.5l216 -176l5 12q27 60 49 98t42 58t44.5 27.5t57.5 7.5h41v-57h-37q-24 0 -41.5 -6.5t-32.5 -25t-32.5 -52.5t-41.5 -90l-5 -12l71 -58q64 -49 100.5 -88.5t51.5 -74.5t15 -71
q0 -42 -18.5 -76t-52.5 -54.5t-80 -20.5zM287 50q49 0 88 16.5t71.5 52t62.5 91.5l-251 206q-52 -21 -85.5 -51.5t-49.5 -67t-16 -74.5q0 -48 22.5 -87t63.5 -62.5t94 -23.5zM673 -160q37 0 61 25.5t24 68.5q0 22 -8 44.5t-30 43.5q-36 -2 -65.5 -14t-47 -34t-17.5 -55
t23 -56t60 -23zM274 480q24 11 45 25.5t34 33t13 40.5q0 32 -21.5 54.5t-61.5 22.5q-26 0 -43.5 -11.5t-27 -29t-9.5 -36.5q0 -22 11.5 -39.5t28 -32t31.5 -27.5z" />
    <glyph glyph-name="quotesingle" unicode="'" horiz-adv-x="220" 
d="M75 419v281h70v-281h-70z" />
    <glyph glyph-name="parenleft" unicode="(" horiz-adv-x="330" 
d="M250 -180q-64 77 -108 190.5t-44 264.5t44 265t108 190h80q-68 -76 -114 -190t-46 -265t46 -264.5t114 -190.5h-80z" />
    <glyph glyph-name="parenright" unicode=")" horiz-adv-x="330" 
d="M0 -180q68 77 114 190.5t46 264.5t-46 265t-114 190h80q64 -76 108 -190t44 -265t-44 -264.5t-108 -190.5h-80z" />
    <glyph glyph-name="asterisk" unicode="*" horiz-adv-x="454" 
d="M201 328v141l-123 -70l-26 46l122 70l-122 70l26 46l123 -71v142h52v-142l123 71l26 -46l-122 -70l122 -70l-26 -46l-123 70v-141h-52z" />
    <glyph glyph-name="plus" unicode="+" horiz-adv-x="590" 
d="M262 126v190h-191v63h191v190h67v-190h190v-63h-190v-190h-67z" />
    <glyph glyph-name="comma" unicode="," horiz-adv-x="180" 
d="M34 -146l41 140q-18 5 -28 19.5t-10 31.5q0 21 16 36.5t37 15.5q24 0 38.5 -16t14.5 -39q0 -15 -3 -28.5t-8 -30.5l-38 -129h-60z" />
    <glyph glyph-name="hyphen" unicode="-" horiz-adv-x="363" 
d="M40 232v64h283v-64h-283z" />
    <glyph glyph-name="period" unicode="." horiz-adv-x="180" 
d="M90 -9q-21 0 -37 16t-16 37q0 22 16 37.5t37 15.5q22 0 37.5 -15.5t15.5 -37.5q0 -14 -7.5 -26.5t-19.5 -19.5t-26 -7z" />
    <glyph glyph-name="slash" unicode="/" horiz-adv-x="364" 
d="M-22 -100l316 830h67l-316 -830h-67z" />
    <glyph glyph-name="zero" unicode="0" horiz-adv-x="647" 
d="M325 -13q-71 0 -128 31.5t-89.5 85.5t-32.5 121v249q0 67 32.5 121.5t89.5 86t128 31.5q70 0 126 -31.5t88.5 -86t32.5 -121.5v-249q0 -67 -32.5 -121t-88.5 -85.5t-126 -31.5zM325 51q48 0 87.5 22t63.5 59.5t24 82.5v269q0 46 -24 83t-63.5 59t-87.5 22
q-49 0 -89.5 -22t-64.5 -59t-24 -83v-269q0 -45 24 -82.5t64.5 -59.5t89.5 -22z" />
    <glyph glyph-name="one" unicode="1" horiz-adv-x="447" 
d="M57 0v64h145v572h-142v64h215v-636h131v-64h-349z" />
    <glyph glyph-name="two" unicode="2" horiz-adv-x="547" 
d="M156 0q-35 0 -60.5 14t-39 38t-13.5 52q0 27 14.5 54t40.5 46l234 166q40 28 60 64t20 72t-18 65.5t-53 47t-87 17.5h-177v64h185q71 0 120.5 -26.5t75 -70.5t25.5 -96q0 -54 -26 -102t-80 -86l-234 -163q-13 -10 -20.5 -22.5t-7.5 -25.5q0 -18 14 -31t40 -13h329v-64
h-342z" />
    <glyph glyph-name="three" unicode="3" horiz-adv-x="547" 
d="M56 0v64h232q41 0 70 18.5t44 48.5t15 63q0 34 -16 64.5t-46 49.5t-74 19h-187v64h193q43 0 71.5 17.5t44 45.5t15.5 59q0 32 -15.5 59.5t-44.5 45.5t-71 18h-231v64h243q58 0 100.5 -26.5t66 -68t23.5 -90.5q0 -55 -28.5 -96.5t-79.5 -61.5q36 -14 60 -39t36 -57t12 -66
q0 -51 -23 -95.5t-66 -72t-101 -27.5h-243z" />
    <glyph glyph-name="four" unicode="4" horiz-adv-x="643" 
d="M419 0v165h-256q-33 0 -58 15.5t-39 41t-14 54.5q0 17 4 34t12 31l202 359h81l-217 -383q-5 -9 -7.5 -18t-2.5 -20q0 -19 12.5 -34.5t35.5 -15.5h247v262h73v-262h99v-64h-99v-165h-73z" />
    <glyph glyph-name="five" unicode="5" horiz-adv-x="559" 
d="M65 0v64h211q50 0 85 22.5t53 58t18 75.5q0 39 -17.5 73t-50.5 55t-82 21h-202v331h379v-64h-309v-204h143q65 0 112.5 -30t73.5 -78.5t26 -104.5q0 -57 -27 -107t-76 -81t-117 -31h-220z" />
    <glyph glyph-name="six" unicode="6" horiz-adv-x="615" 
d="M309 -13q-70 0 -128 28t-92.5 80t-34.5 123q0 64 26.5 123.5t71.5 128.5l154 229h83l-200 -302q27 26 62.5 38.5t71.5 12.5q76 0 129 -32t81 -84.5t28 -113.5q0 -71 -34 -123.5t-91 -80t-127 -27.5zM309 50q49 0 90 20t65.5 58t24.5 92q0 43 -20 80.5t-59 61.5t-99 24
q-49 0 -91 -20t-67.5 -57.5t-25.5 -90.5q0 -52 25 -90t66.5 -58t90.5 -20z" />
    <glyph glyph-name="seven" unicode="7" horiz-adv-x="516" 
d="M101 0l286 565q12 22 12 39q0 14 -10 23t-33 9h-331v64h342q34 0 57 -12.5t35 -33.5t12 -46q0 -16 -4 -31.5t-11 -29.5l-273 -547h-82z" />
    <glyph glyph-name="eight" unicode="8" horiz-adv-x="637" 
d="M319 -13q-85 0 -143.5 29.5t-88 77t-29.5 102.5q0 34 12.5 67t40.5 61t74 46q-57 24 -82 64.5t-25 84.5q0 50 27.5 94.5t81.5 71.5t132 27t131.5 -27t81.5 -71.5t28 -94.5q0 -44 -26 -84.5t-81 -64.5q45 -18 73 -46t40.5 -61t12.5 -67q0 -55 -29.5 -102.5t-88 -77
t-142.5 -29.5zM319 52q62 0 104 20.5t63 54t21 69.5q0 61 -48.5 101t-139.5 40q-92 0 -140 -40t-48 -101q0 -36 20.5 -69.5t62.5 -54t105 -20.5zM319 400q82 0 125 33.5t43 90.5q0 32 -19 60.5t-56.5 46t-92.5 17.5t-93 -17.5t-57 -46t-19 -60.5q0 -57 43 -90.5t126 -33.5z
" />
    <glyph glyph-name="nine" unicode="9" horiz-adv-x="615" 
d="M221 0l205 310q-27 -28 -61 -39.5t-71 -11.5q-76 0 -129.5 31.5t-82 82t-28.5 109.5q0 60 29.5 112.5t85.5 85.5t137 33q71 0 128.5 -28t92 -80t34.5 -124q0 -42 -12 -80.5t-33.5 -78t-52.5 -85.5l-159 -237h-83zM306 321q50 0 91 20t66.5 56t25.5 84q0 53 -25 90.5
t-66.5 57.5t-91.5 20q-59 0 -99 -23.5t-60 -61.5t-20 -81q0 -42 19.5 -79t59 -60t100.5 -23z" />
    <glyph glyph-name="colon" unicode=":" horiz-adv-x="180" 
d="M90 413q-21 0 -37 16t-16 37q0 22 16 37.5t37 15.5q22 0 37.5 -15.5t15.5 -37.5q0 -14 -7.5 -26.5t-19.5 -19.5t-26 -7zM90 -9q-21 0 -37 16t-16 37q0 22 16 37.5t37 15.5q22 0 37.5 -15.5t15.5 -37.5q0 -14 -7.5 -26.5t-19.5 -19.5t-26 -7z" />
    <glyph glyph-name="semicolon" unicode=";" horiz-adv-x="180" 
d="M90 413q-21 0 -37 16t-16 37q0 22 16 37.5t37 15.5q22 0 37.5 -15.5t15.5 -37.5q0 -21 -15.5 -37t-37.5 -16zM34 -146l41 140q-18 5 -28 19.5t-10 31.5q0 21 16 36.5t37 15.5q24 0 38.5 -16t14.5 -39q0 -15 -3 -28.5t-8 -30.5l-38 -129h-60z" />
    <glyph glyph-name="less" unicode="&#x3c;" horiz-adv-x="564" 
d="M514 108l-464 207v71l464 208v-67l-393 -176l393 -176v-67z" />
    <glyph glyph-name="equal" unicode="=" horiz-adv-x="590" 
d="M71 426v63h448v-63h-448zM71 208v63h448v-63h-448z" />
    <glyph glyph-name="greater" unicode="&#x3e;" horiz-adv-x="564" 
d="M50 108v67l393 176l-393 176v67l464 -208v-71z" />
    <glyph glyph-name="question" unicode="?" horiz-adv-x="414" 
d="M111 228v62q63 0 106 25t64.5 65t21.5 85t-21.5 84.5t-64.5 64.5t-106 25h-54v61h54q83 0 142 -33.5t90.5 -87t31.5 -116.5q0 -61 -31.5 -114.5t-90.5 -87t-142 -33.5zM135 -9q-21 0 -37 16t-16 37q0 22 16 37.5t37 15.5q22 0 37.5 -15.5t15.5 -37.5q0 -14 -7 -26.5
t-19 -19.5t-27 -7z" />
    <glyph glyph-name="at" unicode="@" horiz-adv-x="1056" 
d="M557 -218q-114 1 -206.5 37.5t-159 101.5t-102 149.5t-35.5 180.5q0 98 36.5 183t102 149.5t151.5 100.5t184 36t184 -36t151.5 -100.5t102 -149.5t36.5 -183q0 -56 -17.5 -104t-54.5 -77t-95 -29q-51 0 -87.5 27t-53.5 73q-25 -45 -68 -72.5t-100 -27.5q-58 0 -106 28.5
t-76.5 76t-28.5 105.5q0 59 28.5 107t76.5 76.5t106 28.5q59 0 107 -28.5t77 -76.5t29 -107v-43q0 -31 13 -55t34.5 -37t46.5 -13q39 0 62 21.5t32.5 55.5t9.5 71q0 84 -31.5 157.5t-87.5 129t-130.5 87.5t-159.5 32t-159 -32t-130.5 -87.5t-88 -129t-31.5 -157.5
q0 -82 30.5 -155t88 -129t138.5 -88t181 -33h27v-64h-27zM526 103q44 0 77 21t52 55t19 72q0 39 -19 73t-52 55.5t-77 21.5q-43 0 -76 -21.5t-51.5 -55.5t-18.5 -73q0 -38 18.5 -72t51.5 -55t76 -21z" />
    <glyph glyph-name="A" unicode="A" horiz-adv-x="685" 
d="M3 0l244 639q15 39 38.5 56.5t55.5 17.5q33 0 57 -17t38 -56l246 -640h-79l-70 184h-384l-70 -184h-76zM171 248h340l-136 367q-6 16 -13.5 25t-19.5 9q-13 0 -19.5 -9t-13.5 -25z" />
    <glyph glyph-name="B" unicode="B" horiz-adv-x="692" 
d="M79 0v700h373q55 0 95 -24t62.5 -63.5t22.5 -88.5q0 -35 -15.5 -68.5t-42.5 -58.5t-64 -36q42 -9 73.5 -35t48.5 -62t17 -77q0 -50 -22.5 -93t-66 -68.5t-104.5 -25.5h-377zM151 65h292q43 0 73 18.5t45.5 49t15.5 64.5q0 33 -16.5 62.5t-47 47.5t-75.5 18h-287v-260z
M151 388h273q41 0 71.5 18t47 46.5t16.5 61.5q0 32 -15 60t-43.5 45t-67.5 17h-282v-248z" />
    <glyph glyph-name="C" unicode="C" horiz-adv-x="503" 
d="M388 0q-80 1 -145.5 28.5t-113 75.5t-73.5 111.5t-26 135.5t26 135t73.5 110.5t113 75.5t145.5 28h81v-64h-78q-61 -1 -113.5 -22.5t-91.5 -60t-60.5 -90.5t-21.5 -112q0 -62 21.5 -113.5t60.5 -90.5t91.5 -60.5t113.5 -21.5h78v-65h-81z" />
    <glyph glyph-name="D" unicode="D" horiz-adv-x="710" 
d="M79 0v700h219q110 0 192 -45t127 -123.5t45 -180.5t-45 -181.5t-127 -124.5t-192 -45h-219zM151 64h148q83 0 149 34.5t103.5 99t37.5 153.5q0 88 -37.5 152t-103.5 98.5t-149 34.5h-148v-572z" />
    <glyph glyph-name="E" unicode="E" horiz-adv-x="558" 
d="M242 0q-58 0 -101 27t-66.5 71.5t-23.5 94.5t25.5 94.5t74.5 67.5q-49 25 -72.5 66.5t-23.5 87.5q0 53 25 96t67 68.5t94 25.5h271v-64h-263q-35 0 -62.5 -16.5t-43.5 -45.5t-16 -64q0 -32 17 -60t45 -44.5t64 -16.5h222v-64h-216q-43 0 -73.5 -19t-46 -49t-15.5 -64
q0 -33 15 -62t44 -47.5t70 -18.5h259v-64h-270z" />
    <glyph glyph-name="F" unicode="F" horiz-adv-x="527" 
d="M74 0v529q1 50 22.5 88.5t60 60.5t89.5 22h246v-64h-239q-49 0 -78 -30.5t-29 -76.5v-157h309v-64h-309v-308h-72z" />
    <glyph glyph-name="G" unicode="G" horiz-adv-x="835" 
d="M606 -222q-46 0 -83.5 19.5t-59 57t-21.5 91.5q0 12 1 25.5t3 26.5q-82 -7 -154 15t-127 70t-86 116.5t-31 154.5q0 74 25.5 139t72.5 114.5t113 77.5t147 28q82 0 148 -27.5t113 -76.5t72 -113.5t25 -137.5v-405q0 -55 -19.5 -94t-55.5 -60t-83 -21zM601 -155
q38 0 64.5 26t26.5 79v270q-60 -35 -96 -72.5t-54.5 -73.5t-24.5 -67t-6 -54q0 -35 12.5 -59.5t33.5 -36.5t44 -12zM406 60q18 0 32 1.5t31 4.5q14 38 40.5 78t71 78.5t111.5 73.5v62q0 62 -21.5 115t-60 92.5t-90.5 61t-114 21.5q-61 0 -113.5 -22t-91 -61.5t-60 -93.5
t-21.5 -117t21.5 -117t60 -93.5t91 -61.5t113.5 -22z" />
    <glyph glyph-name="H" unicode="H" horiz-adv-x="703" 
d="M79 0v699h72v-311h401v311h72v-699h-72v324h-401v-324h-72z" />
    <glyph glyph-name="I" unicode="I" horiz-adv-x="454" 
d="M52 0v64h139v572h-139v64h350v-64h-139v-572h139v-64h-350z" />
    <glyph glyph-name="J" unicode="J" horiz-adv-x="405" 
d="M171 -217q-43 0 -79 17.5t-56.5 52t-20.5 84.5q0 47 19 103t71 118t149 126v352h-156v64h228v-747q0 -55 -20 -93t-55 -57.5t-80 -19.5zM167 -152q23 0 43 11t32 33.5t12 57.5v258q-76 -55 -112.5 -105t-47.5 -90.5t-11 -68.5q0 -49 25.5 -72.5t58.5 -23.5z" />
    <glyph glyph-name="K" unicode="K" horiz-adv-x="679" 
d="M79 0v700h72v-328h206q47 0 85 17.5t60.5 49.5t22.5 77v184h73v-183q0 -67 -36 -116t-96 -72l94 -224q9 -22 21 -31t33 -9h42v-65h-52q-41 0 -67.5 18.5t-42.5 54.5l-100 239q-13 -2 -26 -3t-27 -1h-190v-308h-72z" />
    <glyph glyph-name="L" unicode="L" horiz-adv-x="472" 
d="M247 0q-53 0 -92 22.5t-60 62.5t-21 91v523h72v-533q0 -44 27.5 -73t75.5 -29h188v-64h-190z" />
    <glyph glyph-name="M" unicode="M" horiz-adv-x="1090" 
d="M546 -12q-51 0 -92 23.5t-64.5 66t-23.5 97.5v361q0 32 -15 57.5t-39.5 40t-54.5 14.5t-55 -14.5t-40 -40t-15 -57.5v-536h-72v525q0 55 23 97t64 66.5t95 24.5q53 0 94 -24.5t64.5 -66.5t23.5 -97v-361q0 -32 15 -57.5t39 -40t53 -14.5t53 14.5t38.5 40t14.5 57.5v361
q0 55 23 97t64.5 66.5t94.5 24.5q54 0 94.5 -24.5t63.5 -66.5t23 -97v-525h-72v536q0 32 -14.5 57.5t-39 40t-55.5 14.5q-30 0 -55.5 -14.5t-40 -40t-14.5 -57.5v-361q0 -55 -23 -97.5t-63 -66t-92 -23.5z" />
    <glyph glyph-name="N" unicode="N" horiz-adv-x="798" 
d="M546 -13q-52 0 -93 24.5t-64 67t-23 96.5v361q0 32 -15 57.5t-39.5 40t-54.5 14.5t-55 -14.5t-40 -40t-15 -57.5v-536h-72v525q0 55 23 97t64 66.5t95 24.5q53 0 94 -24.5t64.5 -66.5t23.5 -97v-361q0 -33 15 -58t39 -39.5t53 -14.5t53 14.5t38 39.5t14 58v536h72v-525
q0 -54 -22 -96.5t-62 -67t-93 -24.5z" />
    <glyph glyph-name="O" unicode="O" horiz-adv-x="820" 
d="M410 -13q-82 0 -149 28t-114.5 78t-73 116t-25.5 141t25.5 141t73 116t114.5 78t149 28q83 0 149.5 -28t114 -78t73 -116t25.5 -141t-25.5 -141t-73 -116t-114 -78t-149.5 -28zM410 52q63 0 116 22t92 62.5t60.5 95t21.5 118.5q0 65 -21.5 119t-60.5 94.5t-92 63
t-116 22.5q-62 0 -115 -22.5t-92.5 -63t-61 -95t-21.5 -118.5t21.5 -118.5t61 -95t92.5 -62.5t115 -22z" />
    <glyph glyph-name="P" unicode="P" horiz-adv-x="654" 
d="M79 0v700h296q64 0 117 -29t84.5 -80.5t31.5 -119.5q0 -66 -30.5 -118t-84 -81t-122.5 -29h-220v-243h-72zM151 307h212q48 0 87 19.5t62.5 56t23.5 88.5t-23.5 88.5t-62 56.5t-84.5 20h-215v-329z" />
    <glyph glyph-name="Q" unicode="Q" horiz-adv-x="820" 
d="M375 -203v207h71v-207h-71zM410 -13q-82 0 -149 28t-114.5 78t-73 116t-25.5 141t25.5 141t73 116t114.5 78t149 28q83 0 149.5 -28t114 -78t73 -116t25.5 -141t-25.5 -141t-73 -116t-114 -78t-149.5 -28zM410 52q63 0 116 22t92 62.5t60.5 95t21.5 118.5q0 65 -21.5 119
t-60.5 94.5t-92 63t-116 22.5q-62 0 -115 -22.5t-92.5 -63t-61 -95t-21.5 -118.5t21.5 -118.5t61 -95t92.5 -62.5t115 -22z" />
    <glyph glyph-name="R" unicode="R" horiz-adv-x="675" 
d="M79 0v700h304q64 0 117 -28t84.5 -78t31.5 -116q0 -71 -37 -124t-99 -78l79 -171q10 -21 22 -30.5t33 -9.5h42v-65h-52q-38 0 -65 19t-45 54l-86 186q-12 -1 -24.5 -2t-24.5 -1h-208v-256h-72zM151 320h220q48 0 87 18.5t62.5 54t23.5 85.5q0 49 -23.5 85t-62 54.5
t-84.5 18.5h-223v-316z" />
    <glyph glyph-name="S" unicode="S" horiz-adv-x="628" 
d="M74 0v64h305q41 0 70.5 19t44.5 49.5t15 63.5t-14.5 62t-43 47t-68.5 18h-140q-60 0 -103.5 24.5t-67 66.5t-23.5 94t23.5 95.5t67 70t103.5 26.5h293v-64h-288q-39 0 -67.5 -18t-44 -46.5t-15.5 -59.5t14.5 -59t42 -45.5t67.5 -17.5h141q63 0 106.5 -25t66 -67.5
t22.5 -93.5q0 -57 -23.5 -103.5t-67 -73.5t-104.5 -27h-312z" />
    <glyph glyph-name="T" unicode="T" horiz-adv-x="570" 
d="M422 0q-53 0 -92 22.5t-60 62.5t-21 91v460h-222v64h516v-64h-222v-470q0 -44 27.5 -73t74.5 -29h44v-64h-45z" />
    <glyph glyph-name="U" unicode="U" 
d="M348 -13q-79 0 -140 34.5t-96 97.5t-35 150v431h72v-441q0 -57 24.5 -103.5t69 -75t105.5 -28.5q62 0 106.5 28t68.5 75t24 104v441h72v-431q0 -87 -35 -150t-96 -97.5t-140 -34.5z" />
    <glyph glyph-name="V" unicode="V" horiz-adv-x="669" 
d="M334 -13q-31 0 -53.5 18t-37.5 56l-240 639h79l220 -610q6 -16 12.5 -25.5t19.5 -9.5q12 0 19 9.5t13 25.5l224 610h76l-241 -639q-14 -38 -37 -56t-54 -18z" />
    <glyph glyph-name="W" unicode="W" horiz-adv-x="1126" 
d="M337 -13q-77 0 -136 32t-92.5 92t-33.5 142v447h72v-453q0 -53 23 -97.5t66 -71t101 -26.5q59 0 101.5 26.5t65.5 71t23 97.5v453h72v-453q0 -53 23.5 -97.5t66 -71t100.5 -26.5q59 0 101.5 26.5t65.5 71t23 97.5v453h72v-447q0 -82 -33.5 -142t-92.5 -92t-136 -32
q-48 0 -93.5 15.5t-79.5 48t-53 81.5q-18 -49 -53 -81t-79.5 -48t-93.5 -16z" />
    <glyph glyph-name="X" unicode="X" horiz-adv-x="673" 
d="M59 0l225 333q-55 10 -101.5 41.5t-74 83t-27.5 120.5v122h73v-133q0 -45 22.5 -84.5t61.5 -64.5t90 -27l207 309h83l-213 -314q71 -7 119 -39.5t72 -83t24 -112.5v-151h-72v157q0 73 -49 120.5t-138 48.5l-219 -326h-83z" />
    <glyph glyph-name="Y" unicode="Y" 
d="M311 0v207q-76 8 -128.5 46.5t-79 99.5t-26.5 134v212h72v-219q0 -56 23 -104t68 -77.5t108 -29.5q64 0 108 29.5t67.5 77.5t23.5 104v219h72v-212q0 -73 -27 -134t-79.5 -100t-129.5 -46v-207h-72z" />
    <glyph glyph-name="Z" unicode="Z" horiz-adv-x="614" 
d="M189 0q-63 0 -99.5 39t-36.5 93q0 38 16.5 64t52.5 54l318 252q25 18 34 33.5t9 37.5q0 15 -8 29.5t-22 24t-32 9.5h-344l1 64h346q43 0 73 -18t46 -47t16 -64q0 -40 -18 -68.5t-53 -54.5l-314 -250q-18 -13 -28 -23t-14.5 -20.5t-4.5 -26.5q0 -14 8.5 -29t24 -25
t35.5 -10h362v-64h-368z" />
    <glyph glyph-name="bracketleft" unicode="[" horiz-adv-x="320" 
d="M79 -180v910h224v-64h-156v-782h156v-64h-224z" />
    <glyph glyph-name="backslash" unicode="\" horiz-adv-x="322" 
d="M285 -100l-302 830h67l302 -830h-67z" />
    <glyph glyph-name="bracketright" unicode="]" horiz-adv-x="320" 
d="M17 -180v64h156v782h-156v64h224v-910h-224z" />
    <glyph glyph-name="asciicircum" unicode="^" horiz-adv-x="570" 
d="M71 376l181 354h65l181 -354h-65l-149 292l-150 -292h-63z" />
    <glyph glyph-name="underscore" unicode="_" horiz-adv-x="500" 
d="M0 -94v53h500v-53h-500z" />
    <glyph glyph-name="grave" unicode="`" horiz-adv-x="205" 
d="M92 757l-96 123h68l96 -123h-68z" />
    <glyph glyph-name="a" unicode="a" horiz-adv-x="649" 
d="M295 -13q-77 0 -132 36t-84 96.5t-29 135.5q0 76 32 136.5t91.5 95.5t141.5 35q79 0 136.5 -35t89 -94t31.5 -133v-260h-69v114h-3q-14 -30 -42 -59.5t-68.5 -48.5t-94.5 -19zM310 47q56 0 99 27.5t68 75t24 107.5q0 59 -23 105t-65 73t-100 27q-60 0 -103 -27.5t-66 -75
t-23 -107.5q0 -56 22 -103t64.5 -74.5t102.5 -27.5z" />
    <glyph glyph-name="b" unicode="b" horiz-adv-x="642" 
d="M333 -13q-70 0 -129 31t-94 91t-35 145v476h70v-325h2q17 34 47 60.5t68 41.5t80 15q69 0 125.5 -32t90.5 -90.5t34 -140.5q0 -64 -20 -114.5t-55.5 -85.5t-82.5 -53.5t-101 -18.5zM332 48q51 0 94 24.5t69 71t26 111.5q0 63 -26 109.5t-68.5 71.5t-92.5 25t-93 -24.5
t-69 -70.5t-26 -112t25.5 -112t68 -70t92.5 -24z" />
    <glyph glyph-name="c" unicode="c" horiz-adv-x="416" 
d="M325 0q-79 0 -141 34t-98 91.5t-36 129.5t36 129.5t98 91.5t141 34h58v-61h-63q-55 0 -100 -25.5t-72 -69.5t-27 -99t27 -99t72 -69.5t100 -25.5h63v-61h-58z" />
    <glyph glyph-name="d" unicode="d" horiz-adv-x="642" 
d="M309 -13q-53 0 -100.5 18.5t-83 53.5t-55.5 85.5t-20 114.5q0 82 34 140.5t90.5 90.5t125.5 32q42 0 80 -15t68 -41.5t47 -60.5h2v325h70v-476q0 -85 -35 -145t-93.5 -91t-129.5 -31zM310 48q50 0 92.5 24t68 70t25.5 112t-26 112t-68.5 70.5t-93.5 24.5q-50 0 -92.5 -25
t-68.5 -71.5t-26 -109.5q0 -65 26 -111.5t69.5 -71t93.5 -24.5z" />
    <glyph glyph-name="e" unicode="e" horiz-adv-x="573" 
d="M336 0q-82 0 -146.5 30.5t-102 87.5t-37.5 137q0 74 30 134.5t84.5 96.5t127.5 36q75 0 127 -33t79 -89t27 -126q0 -10 -1 -22t-3 -21h-397q3 -56 32 -94t75.5 -57t100.5 -19h129v-61h-125zM124 281h330q0 20 -4 44.5t-14.5 48.5t-29 44t-47 32.5t-69.5 12.5
q-38 0 -69 -16t-52 -42.5t-32.5 -58.5t-12.5 -65z" />
    <glyph glyph-name="f" unicode="f" horiz-adv-x="387" 
d="M106 0v449h-90v61h90v75q0 68 38.5 106.5t106.5 38.5h116v-61h-103q-43 0 -66 -24t-23 -68v-67h173v-61h-173v-449h-69z" />
    <glyph glyph-name="g" unicode="g" horiz-adv-x="644" 
d="M155 -203v61h243q49 0 75 28t26 76v146h-2q-18 -29 -46 -56t-66.5 -44t-88.5 -17q-74 0 -129.5 34.5t-86 94.5t-30.5 137q0 75 31 134.5t89 94.5t139 35q77 0 135.5 -34t91.5 -93.5t33 -137.5v-302q0 -72 -42 -114.5t-115 -42.5h-257zM307 52q56 0 99 27t67.5 72.5
t24.5 104.5t-23.5 105t-66.5 73t-100 27q-58 0 -100.5 -27.5t-64.5 -74t-22 -106.5q0 -56 22 -101.5t64 -72.5t100 -27z" />
    <glyph glyph-name="h" unicode="h" horiz-adv-x="632" 
d="M77 0v730h70v-301q30 47 78.5 70.5t102.5 23.5q64 0 115.5 -27.5t81.5 -78t30 -120.5l-1 -297h-69v294q0 53 -24.5 90.5t-63 57.5t-82.5 20q-42 0 -81 -19.5t-63 -56.5t-24 -90v-296h-70z" />
    <glyph glyph-name="i" unicode="i" horiz-adv-x="224" 
d="M77 0v510h70v-510h-70zM112 602q-20 0 -35 15t-15 35q0 21 15 35.5t35 14.5q21 0 35.5 -14.5t14.5 -35.5q0 -20 -14.5 -35t-35.5 -15z" />
    <glyph glyph-name="j" unicode="j" horiz-adv-x="224" 
d="M-78 -147l1 61h65q45 0 67 24t22 68v504h70v-512q0 -67 -38.5 -106t-106.5 -39h-80zM111 602q-20 0 -35 15t-15 35q0 21 15 35.5t35 14.5q21 0 35.5 -14.5t14.5 -35.5q0 -20 -14.5 -35t-35.5 -15z" />
    <glyph glyph-name="k" unicode="k" horiz-adv-x="611" 
d="M77 0v730h70v-443h169l139 223h79l-148 -233q76 -19 118 -77t42 -138v-62h-69v62q0 47 -21 84t-57.5 58.5t-85.5 21.5h-166v-226h-70z" />
    <glyph glyph-name="l" unicode="l" horiz-adv-x="224" 
d="M77 0v730h70v-730h-70z" />
    <glyph glyph-name="m" unicode="m" horiz-adv-x="972" 
d="M77 0v308q0 59 26.5 107.5t75.5 77.5t117 29q35 0 71.5 -10.5t68 -36t49.5 -70.5h1q18 45 50 70.5t69 36t71 10.5q69 0 118 -29t75 -77.5t26 -107.5v-308h-69v308q0 45 -20 79t-53.5 54.5t-76.5 20.5q-44 0 -79 -20.5t-55.5 -55.5t-20.5 -78v-308h-70v308q0 43 -21 78
t-55.5 55.5t-78.5 20.5q-42 0 -76.5 -20.5t-54 -54.5t-19.5 -79v-308h-69z" />
    <glyph glyph-name="n" unicode="n" horiz-adv-x="620" 
d="M77 0v297q0 70 31.5 120.5t84.5 78t117 27.5q65 0 117.5 -27.5t84 -78t31.5 -120.5v-297h-70v294q0 53 -23 90.5t-60.5 57.5t-80.5 20q-42 0 -79 -19.5t-60 -57t-23 -91.5v-294h-70z" />
    <glyph glyph-name="o" unicode="o" horiz-adv-x="630" 
d="M315 -13q-77 0 -137 35.5t-94 96.5t-34 136t34 136t94 96.5t137 35.5t136.5 -35.5t94 -96t34.5 -136.5q0 -75 -34.5 -136t-94 -96.5t-136.5 -35.5zM315 48q57 0 101 27.5t68.5 74.5t24.5 105t-24.5 105t-68.5 74.5t-101 27.5q-58 0 -101.5 -27.5t-68 -74.5t-24.5 -105
t24.5 -105t68 -74.5t101.5 -27.5z" />
    <glyph glyph-name="p" unicode="p" horiz-adv-x="642" 
d="M333 523q54 0 101 -18.5t82.5 -53.5t55.5 -85.5t20 -114.5q0 -81 -34 -140t-90.5 -91t-125.5 -32q-42 0 -80 15t-68 41.5t-47 60.5h-2v-325h-70v476q0 86 35 145.5t94 90.5t129 31zM332 462q-50 0 -92.5 -24t-68 -70t-25.5 -112q0 -65 26 -111.5t69 -71t93 -24.5t92.5 25
t68.5 71.5t26 109.5q0 65 -26 111.5t-69 71t-94 24.5z" />
    <glyph glyph-name="q" unicode="q" horiz-adv-x="630" 
d="M280 -203v204h70v-204h-70zM315 -13q-77 0 -137 35.5t-94 96.5t-34 136t34 136t94 96.5t137 35.5t136.5 -35.5t94 -96t34.5 -136.5q0 -75 -34.5 -136t-94 -96.5t-136.5 -35.5zM315 48q57 0 101 27.5t68.5 74.5t24.5 105t-24.5 105t-68.5 74.5t-101 27.5
q-58 0 -101.5 -27.5t-68 -74.5t-24.5 -105t24.5 -105t68 -74.5t101.5 -27.5z" />
    <glyph glyph-name="r" unicode="r" horiz-adv-x="321" 
d="M75 0v365q0 68 38.5 106.5t106.5 38.5h88v-61h-74q-44 0 -66.5 -24t-22.5 -68v-357h-70z" />
    <glyph glyph-name="s" unicode="s" horiz-adv-x="522" 
d="M66 0v61h240q31 0 52 13t32.5 34t11.5 43t-10 40.5t-29 30.5t-48 12h-107q-49 0 -84.5 16.5t-54 47.5t-18.5 72q0 37 18 69t51 51.5t77 19.5h231v-61h-224q-39 0 -61 -23.5t-22 -53.5q0 -29 22 -52t66 -23h100q54 0 90.5 -18t55 -50t18.5 -75q0 -39 -20 -74.5
t-54.5 -57.5t-80.5 -22h-252z" />
    <glyph glyph-name="t" unicode="t" horiz-adv-x="401" 
d="M250 0q-68 0 -106.5 39t-38.5 106v493h70v-485q0 -44 22.5 -68t66.5 -24h98v-61h-112zM16 449v61h348v-61h-348z" />
    <glyph glyph-name="u" unicode="u" horiz-adv-x="621" 
d="M310 -13q-64 0 -117 27.5t-84.5 78.5t-31.5 120v297h70v-294q0 -53 23.5 -91t60.5 -57.5t79 -19.5q43 0 80.5 20t60.5 57.5t23 90.5v294h70v-297q0 -69 -31.5 -120t-84 -78.5t-118.5 -27.5z" />
    <glyph glyph-name="v" unicode="v" horiz-adv-x="578" 
d="M289 -12q-30 0 -52.5 17.5t-36.5 51.5l-175 452h78l161 -428q6 -13 12 -19t14 -6q7 0 12.5 6t10.5 19l163 428h77l-177 -453q-13 -34 -35.5 -51t-51.5 -17z" />
    <glyph glyph-name="w" unicode="w" horiz-adv-x="975" 
d="M238 -13q-44 0 -81 18t-58.5 56t-21.5 99v350h70v-364q0 -34 13 -55.5t33.5 -32t44.5 -10.5q23 0 44 10.5t34 32.5t13 55v210q0 58 21.5 95t57.5 54.5t79 17.5t79 -17.5t57.5 -54.5t21.5 -95v-210q0 -33 13 -55t34.5 -32.5t45.5 -10.5q23 0 43.5 10.5t33.5 32.5t13 55
v364h70v-350q0 -61 -21.5 -99t-58 -56t-80.5 -18q-45 0 -82 18t-59 56t-22 99v206q0 35 -12.5 56t-32.5 30.5t-43 9.5q-22 0 -42 -9.5t-33 -30.5t-13 -56v-206q0 -61 -22 -99t-58 -56t-81 -18z" />
    <glyph glyph-name="x" unicode="x" horiz-adv-x="599" 
d="M49 0l186 242q-51 12 -90.5 42.5t-62 73.5t-22.5 92v59h69v-59q0 -43 23.5 -77.5t61.5 -56t82 -25.5l166 218h79l-176 -229q54 -14 95 -46t63.5 -76.5t22.5 -97.5v-60h-70v60q0 46 -22 82.5t-61 59.5t-89 27l-175 -229h-80z" />
    <glyph glyph-name="y" unicode="y" horiz-adv-x="621" 
d="M276 -203v193q-56 7 -101 35.5t-71.5 76.5t-26.5 111v297h70v-294q0 -53 23.5 -91t60.5 -57.5t79 -19.5q43 0 80.5 20t61 57.5t23.5 90.5v294h69v-297q0 -64 -26.5 -111.5t-71.5 -76t-100 -34.5v-194h-70z" />
    <glyph glyph-name="z" unicode="z" horiz-adv-x="513" 
d="M143 0q-30 0 -53.5 14.5t-37.5 37.5t-14 51q0 32 15 56t47 43l248 154q21 12 26.5 24t5.5 26q0 17 -12.5 30t-34.5 13h-270v61h292q30 0 53 -14.5t36.5 -37.5t13.5 -51q0 -32 -14.5 -56t-46.5 -43l-247 -154q-21 -12 -27.5 -24t-6.5 -26q0 -17 13.5 -30t35.5 -13h285v-61
h-307z" />
    <glyph glyph-name="braceleft" unicode="{" horiz-adv-x="360" 
d="M257 -180q-57 0 -89 34t-32 94v234q0 18 -8.5 34t-23.5 26.5t-34 10.5h-35v64h35q29 0 47.5 21.5t18.5 48.5v221q0 58 32 90t89 32h86v-64h-78q-26 0 -43 -17t-17 -45v-214q0 -17 -7 -38t-21.5 -39.5t-36.5 -27.5q23 -10 37 -28.5t21 -39t7 -38.5v-229q0 -29 17 -47.5
t43 -18.5h78v-64h-86z" />
    <glyph glyph-name="bar" unicode="|" horiz-adv-x="226" 
d="M79 -180v910h68v-910h-68z" />
    <glyph glyph-name="braceright" unicode="}" horiz-adv-x="360" 
d="M17 -180v64h78q27 0 43.5 18.5t16.5 47.5v229q0 18 6.5 38.5t21.5 39t37 28.5q-22 9 -36.5 27.5t-21.5 39.5t-7 38v214q0 28 -16.5 45t-43.5 17h-78v64h86q57 0 89 -32t32 -90v-221q0 -27 18.5 -48.5t47.5 -21.5h35v-64h-35q-19 0 -34 -10.5t-23.5 -26.5t-8.5 -34v-234
q0 -60 -32 -94t-89 -34h-86z" />
    <glyph glyph-name="asciitilde" unicode="~" horiz-adv-x="576" 
d="M377 287q-32 0 -58 10t-49 23.5t-45.5 23.5t-46.5 10q-27 0 -50.5 -12t-53.5 -39l-35 44q35 33 68 50.5t69 17.5q31 0 56 -10t48.5 -23.5t47 -23.5t50.5 -10q25 0 46.5 10t41 25.5t38.5 32.5l34 -44q-47 -44 -83.5 -64.5t-77.5 -20.5z" />
    <glyph glyph-name="uni00A0" unicode="&#xa0;" horiz-adv-x="265" 
 />
    <glyph glyph-name="exclamdown" unicode="&#xa1;" horiz-adv-x="248" 
d="M89 -191v482h70v-482h-70zM124 519q14 0 26 -7t19.5 -19t7.5 -27q0 -21 -15.5 -37t-37.5 -16q-21 0 -37 16t-16 37q0 22 16 37.5t37 15.5z" />
    <glyph glyph-name="cent" unicode="&#xa2;" horiz-adv-x="409" 
d="M235 -119v142l53 -8v-134h-53zM235 487v142h53v-134zM325 0q-79 0 -141 34t-98 91.5t-36 129.5t36 129.5t98 91.5t141 34h58v-61h-63q-55 0 -100 -25.5t-72 -69.5t-27 -99t27 -99t72 -69.5t100 -25.5h63v-61h-58z" />
    <glyph glyph-name="sterling" unicode="&#xa3;" horiz-adv-x="597" 
d="M75 0v64h108v442q0 56 23 99.5t64.5 68.5t96.5 25h145v-64h-145q-49 0 -80.5 -34t-31.5 -88v-449h292v-64h-472zM75 335v64h365v-64h-365z" />
    <glyph glyph-name="currency" unicode="&#xa4;" horiz-adv-x="675" 
d="M101 33l-47 46l81 81q-26 32 -41 72t-15 86q0 45 14.5 84t39.5 70l-77 76l47 47l76 -76q32 26 72.5 40.5t83.5 14.5q46 0 86.5 -15.5t72.5 -41.5l81 81l46 -47l-82 -81q54 -67 54 -152q0 -43 -15 -83t-41 -72l84 -82l-47 -48l-84 83q-32 -24 -71 -38.5t-84 -14.5
q-86 0 -152 52zM335 126q53 0 96.5 26t70 69.5t26.5 96.5q0 54 -26.5 97t-70 69t-96.5 26t-96.5 -26t-69 -69.5t-25.5 -96.5q0 -50 23.5 -94t66.5 -71t101 -27z" />
    <glyph glyph-name="yen" unicode="&#xa5;" horiz-adv-x="722" 
d="M324 0v133h-279v53h279v75q-30 3 -56.5 11t-48.5 21h-174v52h112q-34 38 -50.5 88.5t-16.5 106.5v160h72v-167q0 -56 23.5 -104t68 -77.5t107.5 -29.5q64 0 108.5 29.5t67.5 77.5t23 104v167h72v-160q0 -57 -16.5 -107.5t-50.5 -87.5h112v-52h-174q-22 -13 -48.5 -21.5
t-58.5 -11.5v-74h281v-53h-281v-133h-72z" />
    <glyph glyph-name="brokenbar" unicode="&#xa6;" horiz-adv-x="226" 
d="M79 331v399h68v-399h-68zM79 -180v399h68v-399h-68z" />
    <glyph glyph-name="section" unicode="&#xa7;" horiz-adv-x="628" 
d="M149 -157v61h197q37 0 61.5 15t37 39.5t12.5 51.5q0 24 -11 48.5t-33.5 41t-58.5 16.5h-145q-50 0 -85 22.5t-52.5 59t-17.5 78.5q0 30 10.5 58.5t33.5 51t56 32.5q-29 19 -44 50.5t-15 65.5q0 43 19.5 81t58.5 61.5t98 23.5h201v-61h-196q-38 0 -62.5 -15t-37 -39.5
t-12.5 -51.5q0 -26 10.5 -48.5t31.5 -37.5t51 -15h162q51 0 85.5 -22.5t52 -58.5t17.5 -79q0 -32 -12 -61.5t-36.5 -51.5t-60.5 -31q30 -20 45.5 -52t15.5 -67q0 -43 -19.5 -81t-58 -61.5t-98.5 -23.5h-201zM220 176h191q30 0 51 14t32 36.5t11 47.5t-11 47.5t-32.5 36.5
t-53.5 14h-191q-30 0 -51 -14t-32 -36.5t-11 -47.5t11 -47.5t32.5 -36.5t53.5 -14z" />
    <glyph glyph-name="dieresis" unicode="&#xa8;" horiz-adv-x="356" 
d="M266 802q-18 0 -31 13t-13 31t13 31t31 13t31 -13t13 -31t-13 -31t-31 -13zM89 802q-18 0 -31 13t-13 31t13 31t31 13t31 -13t13 -31t-13 -31t-31 -13z" />
    <glyph glyph-name="copyright" unicode="&#xa9;" horiz-adv-x="855" 
d="M428 -28q-78 0 -146 29t-119 80t-80 119t-29 146t29 145.5t80 118.5t119 80t146 29t145.5 -29t119 -80t80 -118.5t28.5 -145.5t-28.5 -146t-80 -119t-119 -80t-145.5 -29zM428 13q69 0 129.5 26t105.5 71.5t71 106t26 129.5t-26 129t-71 105.5t-105.5 71.5t-129.5 26
t-129.5 -26t-106 -71.5t-71 -105.5t-25.5 -129t25.5 -129.5t71 -106t106 -71.5t129.5 -26zM458 153q-57 1 -102 26.5t-69.5 68t-24.5 95.5q1 53 25.5 96t68.5 67.5t101 25.5h54v-50h-56q-38 0 -70 -18.5t-51 -50t-19 -70.5t19 -70.5t51 -50.5t70 -19h56v-50h-53z" />
    <glyph glyph-name="ordfeminine" unicode="&#xaa;" horiz-adv-x="426" 
d="M206 387q-47 0 -81.5 22t-52.5 58.5t-18 82.5t19 82.5t55 58.5t86 22t85.5 -21.5t54 -57.5t18.5 -81v-160h-53v64h-1q-18 -34 -45 -52t-67 -18zM214 433q44 0 74.5 32t30.5 85q0 49 -28 82.5t-77 33.5q-51 0 -79 -33.5t-28 -82.5t28 -83t79 -34z" />
    <glyph glyph-name="guillemotleft" unicode="&#xab;" horiz-adv-x="524" 
d="M390 119l-149 195l149 196h70l-147 -196l147 -195h-70zM197 119l-149 195l149 196h70l-147 -196l147 -195h-70z" />
    <glyph glyph-name="logicalnot" unicode="&#xac;" horiz-adv-x="559" 
d="M455 148v117h-415v61h479v-178h-64z" />
    <glyph glyph-name="uni00AD" unicode="&#xad;" horiz-adv-x="363" 
d="M40 232v64h283v-64h-283z" />
    <glyph glyph-name="registered" unicode="&#xae;" horiz-adv-x="855" 
d="M428 -28q-78 0 -146 29t-119 80t-80 119t-29 146t29 145.5t80 118.5t119 80t146 29t145.5 -29t119 -80t80 -118.5t28.5 -145.5t-28.5 -146t-80 -119t-119 -80t-145.5 -29zM428 13q69 0 129.5 26t105.5 71.5t71 106t26 129.5t-26 129t-71 105.5t-105.5 71.5t-129.5 26
t-129.5 -26t-106 -71.5t-71 -105.5t-25.5 -129t25.5 -129.5t71 -106t106 -71.5t129.5 -26zM292 153v379h163q36 0 65 -16t46 -43.5t17 -63.5q0 -35 -19.5 -66.5t-59.5 -45.5l48 -87q5 -7 11.5 -11t14.5 -4h25v-42h-31q-20 0 -36.5 9t-26.5 26l-53 97h-114v-132h-50zM342 330
h109q32 0 57 21t25 60q0 32 -24.5 53.5t-58.5 21.5h-108v-156z" />
    <glyph glyph-name="macron" unicode="&#xaf;" horiz-adv-x="300" 
d="M6 596v49h288v-49h-288z" />
    <glyph glyph-name="degree" unicode="&#xb0;" horiz-adv-x="419" 
d="M209 398q-43 0 -78.5 21t-57 57t-21.5 79q0 44 21.5 79.5t57.5 57t78 21.5q44 0 79.5 -21.5t57 -57t21.5 -79.5q0 -43 -21.5 -79t-57 -57t-79.5 -21zM209 449q29 0 52.5 14.5t37.5 38t14 53.5t-14 53.5t-37.5 37.5t-52.5 14t-53 -14t-38 -37.5t-14 -53.5q0 -29 14 -53
t38 -38.5t53 -14.5z" />
    <glyph glyph-name="plusminus" unicode="&#xb1;" horiz-adv-x="548" 
d="M241 220v175h-191v61h191v176h67v-176h190v-61h-190v-175h-67zM50 27v63h448v-63h-448z" />
    <glyph glyph-name="uni00B2" unicode="&#xb2;" horiz-adv-x="431" 
d="M144 271q-29 0 -49.5 11t-30.5 28.5t-10 37.5q0 19 10.5 38.5t30.5 30.5l176 104q19 11 28.5 28t9.5 35q0 28 -19.5 48t-53.5 20h-158v48h160q38 0 66.5 -16t44 -42t15.5 -58q0 -30 -14 -56.5t-42 -42.5l-179 -105q-19 -10 -19 -28q0 -13 10.5 -22.5t29.5 -9.5h223v-49
h-229z" />
    <glyph glyph-name="uni00B3" unicode="&#xb3;" horiz-adv-x="425" 
d="M56 271v49h181q33 0 52.5 20.5t19.5 48.5q0 32 -20.5 54.5t-55.5 22.5h-152v48h156q27 0 48.5 20t21.5 50t-20 49t-48 19h-183v48h189q34 0 60.5 -15.5t42.5 -42t16 -58.5q0 -29 -15 -54t-44 -41q29 -14 45 -41.5t16 -57.5q0 -31 -15 -58t-42 -44t-64 -17h-189z" />
    <glyph glyph-name="acute" unicode="&#xb4;" horiz-adv-x="205" 
d="M29 757l96 123h68l-96 -123h-68z" />
    <glyph glyph-name="uni00B5" unicode="&#xb5;" horiz-adv-x="621" 
d="M77 -203v713h70v-294q0 -53 23.5 -91t60.5 -57.5t79 -19.5q43 0 80.5 20t60.5 57.5t23 90.5v294h70v-297q0 -69 -30.5 -120t-83 -78.5t-116.5 -27.5q-33 0 -65 10t-58.5 29.5t-43.5 47.5v-277h-70z" />
    <glyph glyph-name="paragraph" unicode="&#xb6;" horiz-adv-x="654" 
d="M295 -203v440q-78 2 -132.5 37t-81.5 89.5t-27 112.5t27.5 109t83.5 83t141 32h302v-51h-74v-852h-54v852h-131v-852h-54z" />
    <glyph glyph-name="periodcentered" unicode="&#xb7;" horiz-adv-x="266" 
d="M134 279q-22 0 -37.5 16t-15.5 37q0 22 15.5 37.5t37.5 15.5q21 0 36.5 -15.5t15.5 -37.5q0 -21 -15.5 -37t-36.5 -16z" />
    <glyph glyph-name="cedilla" unicode="&#xb8;" horiz-adv-x="204" 
d="M8 -203l92 221h70l-95 -221h-67z" />
    <glyph glyph-name="uni00B9" unicode="&#xb9;" horiz-adv-x="374" 
d="M59 271v49h107v332h-99v48h154v-380h97v-49h-259z" />
    <glyph glyph-name="ordmasculine" unicode="&#xba;" horiz-adv-x="430" 
d="M216 387q-49 0 -85.5 21.5t-56.5 57.5t-20 79q0 45 20 81.5t56.5 58t85.5 21.5h196v-45h-91q29 -20 42 -50.5t13 -65.5q0 -45 -20.5 -81t-57 -56.5t-82.5 -20.5zM216 433q47 0 77 31.5t30 80.5q0 48 -28.5 81.5t-78.5 33.5q-51 0 -79.5 -33.5t-28.5 -81.5
q0 -45 28.5 -78.5t79.5 -33.5z" />
    <glyph glyph-name="guillemotright" unicode="&#xbb;" horiz-adv-x="515" 
d="M256 119l148 195l-148 196h70l149 -196l-149 -195h-70zM39 119l148 195l-148 196h70l149 -196l-149 -195h-70z" />
    <glyph glyph-name="onequarter" unicode="&#xbc;" horiz-adv-x="1007" 
d="M818 0v99h-158q-36 0 -59.5 22.5t-23.5 53.5q0 12 3.5 23.5t9.5 21.5l122 209h62l-135 -227q-6 -11 -6 -23t9.5 -22t26.5 -10h149v150h55v-150h75v-48h-75v-99h-55zM59 271v49h107v332h-99v48h154v-380h97v-49h-259zM211 0l478 700h61l-479 -700h-60z" />
    <glyph glyph-name="onehalf" unicode="&#xbd;" horiz-adv-x="1041" 
d="M59 271v49h107v332h-99v48h154v-380h97v-49h-259zM220 0l478 700h61l-479 -700h-60zM746 24q-29 0 -49.5 11t-30.5 28.5t-10 37.5q0 19 10.5 38.5t30.5 30.5l176 104q19 11 28.5 28t9.5 35q0 28 -19.5 48t-53.5 20h-158v48h160q38 0 66.5 -16t44 -42t15.5 -58
q0 -30 -14 -56.5t-42 -42.5l-179 -105q-19 -10 -19 -28q0 -13 10.5 -22.5t29.5 -9.5h223v-49h-229z" />
    <glyph glyph-name="threequarters" unicode="&#xbe;" horiz-adv-x="1050" 
d="M861 0v99h-159q-35 0 -58.5 22.5t-23.5 53.5q0 12 3 23.5t10 21.5l122 209h62l-135 -227q-6 -11 -6 -23q0 -13 9.5 -22.5t26.5 -9.5h149v150h55v-150h75v-48h-75v-99h-55zM56 271v49h181q33 0 52.5 20.5t19.5 48.5q0 32 -20.5 54.5t-55.5 22.5h-152v48h156q27 0 48.5 20
t21.5 50t-20 49t-48 19h-183v48h189q34 0 60.5 -15.5t42.5 -42t16 -58.5q0 -29 -15 -54t-44 -41q29 -14 45 -41.5t16 -57.5q0 -31 -15 -58t-42 -44t-64 -17h-189zM248 0l478 700h61l-478 -700h-61z" />
    <glyph glyph-name="questiondown" unicode="&#xbf;" horiz-adv-x="391" 
d="M290 -190q-82 0 -141.5 33.5t-91 87.5t-31.5 116q0 61 31.5 114.5t90.5 87t142 33.5v-62q-63 0 -105.5 -25t-64.5 -65t-22 -85t22 -84.5t64.5 -64.5t105.5 -25h54v-61h-54zM266 519q22 0 37.5 -15.5t15.5 -37.5q0 -21 -15.5 -37t-37.5 -16q-21 0 -37 16t-16 37q0 15 7 27
t19.5 19t26.5 7z" />
    <glyph glyph-name="Agrave" unicode="&#xc0;" horiz-adv-x="685" 
d="M3 0l244 639q15 39 38.5 56.5t55.5 17.5q33 0 57 -17t38 -56l246 -640h-79l-70 184h-384l-70 -184h-76zM171 248h340l-136 367q-6 16 -13.5 25t-19.5 9q-13 0 -19.5 -9t-13.5 -25zM304 757l-96 123h68l96 -123h-68z" />
    <glyph glyph-name="Aacute" unicode="&#xc1;" horiz-adv-x="685" 
d="M3 0l244 639q15 39 38.5 56.5t55.5 17.5q33 0 57 -17t38 -56l246 -640h-79l-70 184h-384l-70 -184h-76zM171 248h340l-136 367q-6 16 -13.5 25t-19.5 9q-13 0 -19.5 -9t-13.5 -25zM315 757l96 123h68l-96 -123h-68z" />
    <glyph glyph-name="Acircumflex" unicode="&#xc2;" horiz-adv-x="685" 
d="M3 0l244 639q15 39 38.5 56.5t55.5 17.5q33 0 57 -17t38 -56l246 -640h-79l-70 184h-384l-70 -184h-76zM171 248h340l-136 367q-6 16 -13.5 25t-19.5 9q-13 0 -19.5 -9t-13.5 -25zM205 757l96 123h83l96 -123h-61l-77 93l-76 -93h-61z" />
    <glyph glyph-name="Atilde" unicode="&#xc3;" horiz-adv-x="685" 
d="M3 0l244 639q15 39 38.5 56.5t55.5 17.5q33 0 57 -17t38 -56l246 -640h-79l-70 184h-384l-70 -184h-76zM171 248h340l-136 367q-6 16 -13.5 25t-19.5 9q-13 0 -19.5 -9t-13.5 -25zM412 747q-26 0 -43 8.5t-27.5 22t-20.5 25.5q-10 14 -21.5 24.5t-29.5 10.5
q-17 0 -29.5 -15t-12.5 -42v-24h-48v23q0 50 27 77.5t65 27.5q34 0 54 -16.5t33 -33.5q12 -15 23.5 -27.5t31.5 -12.5q17 0 30 14.5t13 42.5v24h48v-23q0 -50 -27.5 -78t-65.5 -28z" />
    <glyph glyph-name="Adieresis" unicode="&#xc4;" horiz-adv-x="685" 
d="M432 760q-18 0 -31 13t-13 31t13 31t31 13t31 -13t13 -31t-13 -31t-31 -13zM255 760q-18 0 -31 13t-13 31t13 31t31 13t31 -13t13 -31t-13 -31t-31 -13zM3 0l244 639q15 39 38.5 56.5t55.5 17.5q33 0 57 -17t38 -56l246 -640h-79l-70 184h-384l-70 -184h-76zM171 248h340
l-136 367q-6 16 -13.5 25t-19.5 9q-13 0 -19.5 -9t-13.5 -25z" />
    <glyph glyph-name="Aring" unicode="&#xc5;" horiz-adv-x="685" 
d="M3 0l244 639q15 39 38.5 56.5t55.5 17.5q33 0 57 -17t38 -56l246 -640h-79l-70 184h-384l-70 -184h-76zM171 248h340l-136 367q-6 16 -13.5 25t-19.5 9q-13 0 -19.5 -9t-13.5 -25zM342 749q-40 0 -67.5 27.5t-27.5 67.5t27.5 67.5t67.5 27.5t67.5 -27.5t27.5 -67.5
t-27.5 -67.5t-67.5 -27.5zM342 785q25 0 42 17t17 42t-17 42t-42 17q-24 0 -41.5 -17t-17.5 -42t17.5 -42t41.5 -17z" />
    <glyph glyph-name="AE" unicode="&#xc6;" horiz-adv-x="953" 
d="M3 0l244 639q15 39 38.5 56.5t55.5 17.5q29 0 50 -15t38 -48l24 -58q5 31 24.5 55.5t53 38.5t78.5 14h319v-64h-315q-51 0 -80.5 -24t-37.5 -61.5t6 -78.5l32 -84h356v-64h-332l77 -197q10 -28 32.5 -45.5t58.5 -17.5h203v-64h-221q-50 0 -86 25.5t-50 62.5l-37 96h-385
l-70 -184h-76zM171 248h341l-137 367q-6 16 -13.5 25t-19.5 9q-13 0 -19.5 -9t-13.5 -25z" />
    <glyph glyph-name="Ccedilla" unicode="&#xc7;" horiz-adv-x="538" 
d="M388 0q-80 1 -145.5 28.5t-113 75.5t-73.5 111.5t-26 135.5t26 135t73.5 110.5t113 75.5t145.5 28h81v-64h-78q-61 -1 -113.5 -22.5t-91.5 -60t-60.5 -90.5t-21.5 -112q0 -62 21.5 -113.5t60.5 -90.5t91.5 -60.5t113.5 -21.5h78v-65h-81zM233 -203l92 221h70l-95 -221
h-67z" />
    <glyph glyph-name="Egrave" unicode="&#xc8;" horiz-adv-x="558" 
d="M242 0q-58 0 -101 27t-66.5 71.5t-23.5 94.5t25.5 94.5t74.5 67.5q-49 25 -72.5 66.5t-23.5 87.5q0 53 25 96t67 68.5t94 25.5h271v-64h-263q-35 0 -62.5 -16.5t-43.5 -45.5t-16 -64q0 -32 17 -60t45 -44.5t64 -16.5h222v-64h-216q-43 0 -73.5 -19t-46 -49t-15.5 -64
q0 -33 15 -62t44 -47.5t70 -18.5h259v-64h-270zM294 757l-96 123h68l96 -123h-68z" />
    <glyph glyph-name="Eacute" unicode="&#xc9;" horiz-adv-x="558" 
d="M242 0q-58 0 -101 27t-66.5 71.5t-23.5 94.5t25.5 94.5t74.5 67.5q-49 25 -72.5 66.5t-23.5 87.5q0 53 25 96t67 68.5t94 25.5h271v-64h-263q-35 0 -62.5 -16.5t-43.5 -45.5t-16 -64q0 -32 17 -60t45 -44.5t64 -16.5h222v-64h-216q-43 0 -73.5 -19t-46 -49t-15.5 -64
q0 -33 15 -62t44 -47.5t70 -18.5h259v-64h-270zM274 757l96 123h68l-96 -123h-68z" />
    <glyph glyph-name="Ecircumflex" unicode="&#xca;" horiz-adv-x="558" 
d="M242 0q-58 0 -101 27t-66.5 71.5t-23.5 94.5t25.5 94.5t74.5 67.5q-49 25 -72.5 66.5t-23.5 87.5q0 53 25 96t67 68.5t94 25.5h271v-64h-263q-35 0 -62.5 -16.5t-43.5 -45.5t-16 -64q0 -32 17 -60t45 -44.5t64 -16.5h222v-64h-216q-43 0 -73.5 -19t-46 -49t-15.5 -64
q0 -33 15 -62t44 -47.5t70 -18.5h259v-64h-270zM183 757l96 123h83l96 -123h-61l-77 93l-76 -93h-61z" />
    <glyph glyph-name="Edieresis" unicode="&#xcb;" horiz-adv-x="558" 
d="M416 760q-18 0 -31 13t-13 31t13 31t31 13t31 -13t13 -31t-13 -31t-31 -13zM239 760q-18 0 -31 13t-13 31t13 31t31 13t31 -13t13 -31t-13 -31t-31 -13zM242 0q-58 0 -101 27t-66.5 71.5t-23.5 94.5t25.5 94.5t74.5 67.5q-49 25 -72.5 66.5t-23.5 87.5q0 53 25 96
t67 68.5t94 25.5h271v-64h-263q-35 0 -62.5 -16.5t-43.5 -45.5t-16 -64q0 -32 17 -60t45 -44.5t64 -16.5h222v-64h-216q-43 0 -73.5 -19t-46 -49t-15.5 -64q0 -33 15 -62t44 -47.5t70 -18.5h259v-64h-270z" />
    <glyph glyph-name="Igrave" unicode="&#xcc;" horiz-adv-x="454" 
d="M52 0v64h139v572h-139v64h350v-64h-139v-572h139v-64h-350zM198 757l-96 123h68l96 -123h-68z" />
    <glyph glyph-name="Iacute" unicode="&#xcd;" horiz-adv-x="454" 
d="M52 0v64h139v572h-139v64h350v-64h-139v-572h139v-64h-350zM202 758l96 123h68l-96 -123h-68z" />
    <glyph glyph-name="Icircumflex" unicode="&#xce;" horiz-adv-x="454" 
d="M52 0v64h139v572h-139v64h350v-64h-139v-572h139v-64h-350zM90 757l96 123h83l96 -123h-61l-77 93l-76 -93h-61z" />
    <glyph glyph-name="Idieresis" unicode="&#xcf;" horiz-adv-x="454" 
d="M316 760q-18 0 -31 13t-13 31t13 31t31 13q17 0 30.5 -13t13.5 -31t-13.5 -31t-30.5 -13zM139 760q-18 0 -31 13t-13 31t13 31t31 13q17 0 30.5 -13t13.5 -31t-13.5 -31t-30.5 -13zM52 0v64h139v572h-139v64h350v-64h-139v-572h139v-64h-350z" />
    <glyph glyph-name="Eth" unicode="&#xd0;" horiz-adv-x="710" 
d="M79 0v324h-79v63h79v313h219q110 0 192 -45t127 -123.5t45 -180.5t-45 -181.5t-127 -124.5t-192 -45h-219zM151 64h148q83 0 149 34.5t103.5 99t37.5 153.5q0 88 -37.5 152t-103.5 98.5t-149 34.5h-148v-249h167v-63h-167v-260z" />
    <glyph glyph-name="Ntilde" unicode="&#xd1;" horiz-adv-x="798" 
d="M546 -13q-52 0 -93 24.5t-64 67t-23 96.5v361q0 32 -15 57.5t-39.5 40t-54.5 14.5t-55 -14.5t-40 -40t-15 -57.5v-536h-72v525q0 55 23 97t64 66.5t95 24.5q53 0 94 -24.5t64.5 -66.5t23.5 -97v-361q0 -33 15 -58t39 -39.5t53 -14.5t53 14.5t38 39.5t14 58v536h72v-525
q0 -54 -22 -96.5t-62 -67t-93 -24.5zM483 747q-26 0 -43 8.5t-27.5 22t-20.5 25.5q-10 14 -21.5 24.5t-29.5 10.5q-17 0 -29.5 -15t-12.5 -42v-24h-48v23q0 50 27 77.5t65 27.5q34 0 54 -16.5t33 -33.5q12 -15 23.5 -27.5t31.5 -12.5q17 0 30 14.5t13 42.5v24h48v-23
q0 -50 -27.5 -78t-65.5 -28z" />
    <glyph glyph-name="Ograve" unicode="&#xd2;" horiz-adv-x="820" 
d="M410 -13q-82 0 -149 28t-114.5 78t-73 116t-25.5 141t25.5 141t73 116t114.5 78t149 28q83 0 149.5 -28t114 -78t73 -116t25.5 -141t-25.5 -141t-73 -116t-114 -78t-149.5 -28zM410 52q63 0 116 22t92 62.5t60.5 95t21.5 118.5q0 65 -21.5 119t-60.5 94.5t-92 63
t-116 22.5q-62 0 -115 -22.5t-92.5 -63t-61 -95t-21.5 -118.5t21.5 -118.5t61 -95t92.5 -62.5t115 -22zM385 757l-96 123h68l96 -123h-68z" />
    <glyph glyph-name="Oacute" unicode="&#xd3;" horiz-adv-x="820" 
d="M410 -13q-82 0 -149 28t-114.5 78t-73 116t-25.5 141t25.5 141t73 116t114.5 78t149 28q83 0 149.5 -28t114 -78t73 -116t25.5 -141t-25.5 -141t-73 -116t-114 -78t-149.5 -28zM410 52q63 0 116 22t92 62.5t60.5 95t21.5 118.5q0 65 -21.5 119t-60.5 94.5t-92 63
t-116 22.5q-62 0 -115 -22.5t-92.5 -63t-61 -95t-21.5 -118.5t21.5 -118.5t61 -95t92.5 -62.5t115 -22zM381 757l96 123h68l-96 -123h-68z" />
    <glyph glyph-name="Ocircumflex" unicode="&#xd4;" horiz-adv-x="820" 
d="M410 -13q-82 0 -149 28t-114.5 78t-73 116t-25.5 141t25.5 141t73 116t114.5 78t149 28q83 0 149.5 -28t114 -78t73 -116t25.5 -141t-25.5 -141t-73 -116t-114 -78t-149.5 -28zM410 52q63 0 116 22t92 62.5t60.5 95t21.5 118.5q0 65 -21.5 119t-60.5 94.5t-92 63
t-116 22.5q-62 0 -115 -22.5t-92.5 -63t-61 -95t-21.5 -118.5t21.5 -118.5t61 -95t92.5 -62.5t115 -22zM272 757l96 123h83l96 -123h-61l-77 93l-76 -93h-61z" />
    <glyph glyph-name="Otilde" unicode="&#xd5;" horiz-adv-x="820" 
d="M410 -13q-82 0 -149 28t-114.5 78t-73 116t-25.5 141t25.5 141t73 116t114.5 78t149 28q83 0 149.5 -28t114 -78t73 -116t25.5 -141t-25.5 -141t-73 -116t-114 -78t-149.5 -28zM410 52q63 0 116 22t92 62.5t60.5 95t21.5 118.5q0 65 -21.5 119t-60.5 94.5t-92 63
t-116 22.5q-62 0 -115 -22.5t-92.5 -63t-61 -95t-21.5 -118.5t21.5 -118.5t61 -95t92.5 -62.5t115 -22zM479 747q-26 0 -43 8.5t-27.5 22t-20.5 25.5q-10 14 -21.5 24.5t-29.5 10.5q-17 0 -29.5 -15t-12.5 -42v-24h-48v23q0 50 27 77.5t65 27.5q34 0 54 -16.5t33 -33.5
q12 -15 23.5 -27.5t31.5 -12.5q17 0 30 14.5t13 42.5v24h48v-23q0 -50 -27.5 -78t-65.5 -28z" />
    <glyph glyph-name="Odieresis" unicode="&#xd6;" horiz-adv-x="820" 
d="M499 760q-18 0 -31 13t-13 31t13 31t31 13q17 0 30.5 -13t13.5 -31t-13.5 -31t-30.5 -13zM322 760q-18 0 -31 13t-13 31t13 31t31 13q17 0 30.5 -13t13.5 -31t-13.5 -31t-30.5 -13zM410 -13q-82 0 -149 28t-114.5 78t-73 116t-25.5 141t25.5 141t73 116t114.5 78t149 28
q83 0 149.5 -28t114 -78t73 -116t25.5 -141t-25.5 -141t-73 -116t-114 -78t-149.5 -28zM410 52q63 0 116 22t92 62.5t60.5 95t21.5 118.5q0 65 -21.5 119t-60.5 94.5t-92 63t-116 22.5q-62 0 -115 -22.5t-92.5 -63t-61 -94.5t-21.5 -119q0 -64 21.5 -118.5t61 -95
t92.5 -62.5t115 -22z" />
    <glyph glyph-name="multiply" unicode="&#xd7;" horiz-adv-x="528" 
d="M105 142l-45 45l160 160l-159 159l44 45l160 -159l159 159l44 -45l-159 -159l159 -160l-44 -45l-159 160z" />
    <glyph glyph-name="Oslash" unicode="&#xd8;" horiz-adv-x="820" 
d="M410 -13q-68 0 -126.5 21.5t-103.5 59.5l-65 -68h-72l97 103q-43 49 -67.5 112.5t-24.5 134.5q0 75 25.5 141t73 116t114.5 78t149 28q69 0 127 -21.5t102 -58.5l66 68h73l-98 -105q44 -48 68 -111.5t24 -134.5q0 -75 -25.5 -141t-73 -116t-114 -78t-149.5 -28zM410 52
q63 0 116 22t92 62.5t60.5 95t21.5 118.5q0 57 -17.5 106.5t-49.5 87.5l-408 -426q36 -32 83.5 -49t101.5 -17zM187 155l408 427q-37 31 -83.5 48.5t-101.5 17.5q-62 0 -115 -22t-92.5 -62.5t-61 -95t-21.5 -118.5q0 -57 17.5 -106.5t49.5 -88.5z" />
    <glyph glyph-name="Ugrave" unicode="&#xd9;" 
d="M348 -13q-79 0 -140 34.5t-96 97.5t-35 150v431h72v-441q0 -57 24.5 -103.5t69 -75t105.5 -28.5q62 0 106.5 28t68.5 75t24 104v441h72v-431q0 -87 -35 -150t-96 -97.5t-140 -34.5zM323 757l-96 123h68l96 -123h-68z" />
    <glyph glyph-name="Uacute" unicode="&#xda;" 
d="M348 -13q-79 0 -140 34.5t-96 97.5t-35 150v431h72v-441q0 -57 24.5 -103.5t69 -75t105.5 -28.5q62 0 106.5 28t68.5 75t24 104v441h72v-431q0 -87 -35 -150t-96 -97.5t-140 -34.5zM316 757l96 123h68l-96 -123h-68z" />
    <glyph glyph-name="Ucircumflex" unicode="&#xdb;" 
d="M348 -13q-79 0 -140 34.5t-96 97.5t-35 150v431h72v-441q0 -57 24.5 -103.5t69 -75t105.5 -28.5q62 0 106.5 28t68.5 75t24 104v441h72v-431q0 -87 -35 -150t-96 -97.5t-140 -34.5zM211 757l96 123h83l96 -123h-61l-77 93l-76 -93h-61z" />
    <glyph glyph-name="Udieresis" unicode="&#xdc;" 
d="M436 760q-18 0 -31 13t-13 31t13 31t31 13t31 -13t13 -31t-13 -31t-31 -13zM259 760q-18 0 -31 13t-13 31t13 31t31 13t31 -13t13 -31t-13 -31t-31 -13zM348 -13q-79 0 -140 34.5t-96 97.5t-35 150v431h72v-441q0 -57 24.5 -103.5t69 -75t105.5 -28.5q62 0 106.5 28.5
t68.5 75t24 103.5v441h72v-431q0 -87 -35 -150t-96 -97.5t-140 -34.5z" />
    <glyph glyph-name="Yacute" unicode="&#xdd;" 
d="M311 0v207q-76 8 -128.5 46.5t-79 99.5t-26.5 134v212h72v-219q0 -56 23 -104t68 -77.5t108 -29.5q64 0 108 29.5t67.5 77.5t23.5 104v219h72v-212q0 -73 -27 -134t-79.5 -100t-129.5 -46v-207h-72zM319 757l96 123h68l-96 -123h-68z" />
    <glyph glyph-name="Thorn" unicode="&#xde;" horiz-adv-x="654" 
d="M79 0v700h72v-121h224q64 0 117 -29t84.5 -80.5t31.5 -119.5q0 -66 -30.5 -118t-84 -81t-122.5 -29h-220v-122h-72zM151 186h212q48 0 87 19.5t62.5 56t23.5 88.5t-23.5 88.5t-62 56.5t-84.5 20h-215v-329z" />
    <glyph glyph-name="germandbls" unicode="&#xdf;" horiz-adv-x="637" 
d="M72 0v500q0 51 18 95t51 77t79 51.5t102 18.5q65 0 118.5 -24.5t86 -69t32.5 -103.5q0 -34 -13.5 -65.5t-41.5 -56.5t-73 -38q51 -15 84.5 -44t51.5 -64.5t18 -72.5q0 -53 -26.5 -100t-74 -75.5t-109.5 -28.5h-102v61h89q47 0 81 20.5t52 53t18 69.5q0 38 -20.5 71
t-60 53.5t-95.5 21.5h-27v61h23q49 0 84 17t53.5 46t18.5 67q0 44 -23 75.5t-61 48.5t-83 17q-51 0 -92 -23t-65 -65t-24 -100v-494h-69z" />
    <glyph glyph-name="agrave" unicode="&#xe0;" horiz-adv-x="638" 
d="M295 -13q-77 0 -132 36t-84 96.5t-29 135.5q0 76 32 136.5t91.5 95.5t141.5 35q79 0 136.5 -35t89 -94t31.5 -133v-260h-69v114h-3q-14 -30 -42 -59.5t-68.5 -48.5t-94.5 -19zM310 47q56 0 99 27.5t68 75t24 107.5q0 59 -23 105t-65 73t-100 27q-60 0 -103 -27.5t-66 -75
t-23 -107.5q0 -56 22 -103t64.5 -74.5t102.5 -27.5zM282 577l-96 123h68l96 -123h-68z" />
    <glyph glyph-name="aacute" unicode="&#xe1;" horiz-adv-x="638" 
d="M295 -13q-77 0 -132 36t-84 96.5t-29 135.5q0 76 32 136.5t91.5 95.5t141.5 35q79 0 136.5 -35t89 -94t31.5 -133v-260h-69v114h-3q-14 -30 -42 -59.5t-68.5 -48.5t-94.5 -19zM310 47q56 0 99 27.5t68 75t24 107.5q0 59 -23 105t-65 73t-100 27q-60 0 -103 -27.5t-66 -75
t-23 -107.5q0 -56 22 -103t64.5 -74.5t102.5 -27.5zM288 577l96 123h68l-96 -123h-68z" />
    <glyph glyph-name="acircumflex" unicode="&#xe2;" horiz-adv-x="638" 
d="M295 -13q-77 0 -132 36t-84 96.5t-29 135.5q0 76 32 136.5t91.5 95.5t141.5 35q79 0 136.5 -35t89 -94t31.5 -133v-260h-69v114h-3q-14 -30 -42 -59.5t-68.5 -48.5t-94.5 -19zM310 47q56 0 99 27.5t68 75t24 107.5q0 59 -23 105t-65 73t-100 27q-60 0 -103 -27.5t-66 -75
t-23 -107.5q0 -56 22 -103t64.5 -74.5t102.5 -27.5zM177 577l96 123h83l96 -123h-61l-77 93l-76 -93h-61z" />
    <glyph glyph-name="atilde" unicode="&#xe3;" horiz-adv-x="638" 
d="M295 -13q-77 0 -132 36t-84 96.5t-29 135.5q0 76 32 136.5t91.5 95.5t141.5 35q79 0 136.5 -35t89 -94t31.5 -133v-260h-69v114h-3q-14 -30 -42 -59.5t-68.5 -48.5t-94.5 -19zM310 47q56 0 99 27.5t68 75t24 107.5q0 59 -23 105t-65 73t-100 27q-60 0 -103 -27.5t-66 -75
t-23 -107.5q0 -56 22 -103t64.5 -74.5t102.5 -27.5zM383 579q-26 0 -43 8.5t-27.5 22t-20.5 25.5q-10 14 -21.5 24.5t-29.5 10.5q-17 0 -29.5 -15t-12.5 -42v-24h-48v23q0 50 27 77.5t65 27.5q34 0 54 -16.5t33 -33.5q12 -15 23.5 -27.5t31.5 -12.5q17 0 30 14.5t13 42.5v24
h48v-23q0 -50 -27.5 -78t-65.5 -28z" />
    <glyph glyph-name="adieresis" unicode="&#xe4;" horiz-adv-x="638" 
d="M406 605q-19 0 -31.5 13t-12.5 31t12.5 31t31.5 13q17 0 30.5 -13t13.5 -31t-13.5 -31t-30.5 -13zM229 605q-19 0 -31.5 13t-12.5 31t12.5 31t31.5 13q17 0 30.5 -13t13.5 -31t-13.5 -31t-30.5 -13zM295 -13q-77 0 -132 36t-84 96.5t-29 135.5q0 76 32 136.5t91.5 95.5
t141.5 35q79 0 136.5 -35t89 -94t31.5 -133v-260h-69v114h-3q-14 -30 -42 -59.5t-68.5 -48.5t-94.5 -19zM310 47q56 0 99 27.5t68 75t24 107.5q0 59 -23 105t-65 73t-100 27q-60 0 -103 -27.5t-66 -75t-23 -107.5q0 -56 22 -103t64.5 -74.5t102.5 -27.5z" />
    <glyph glyph-name="aring" unicode="&#xe5;" horiz-adv-x="638" 
d="M295 -13q-77 0 -132 36t-84 96.5t-29 135.5q0 76 32 136.5t91.5 95.5t141.5 35q79 0 136.5 -35t89 -94t31.5 -133v-260h-69v114h-3q-14 -30 -42 -59.5t-68.5 -48.5t-94.5 -19zM310 47q56 0 99 27.5t68 75t24 107.5q0 59 -23 105t-65 73t-100 27q-60 0 -103 -27.5t-66 -75
t-23 -107.5q0 -56 22 -103t64.5 -74.5t102.5 -27.5zM308 566q-40 0 -67.5 27.5t-27.5 67.5t27.5 67.5t67.5 27.5t67.5 -27.5t27.5 -67.5t-27.5 -67.5t-67.5 -27.5zM308 602q25 0 42 17t17 42t-17 42t-42 17q-24 0 -41.5 -17t-17.5 -42t17.5 -42t41.5 -17z" />
    <glyph glyph-name="ae" unicode="&#xe6;" horiz-adv-x="948" 
d="M184 0q-38 0 -69.5 20t-50 53.5t-18.5 75.5q0 45 18.5 76.5t50 48t70.5 16.5h243v81q0 34 -22 56.5t-58 22.5h-254v60h261q48 0 80 -28.5t41 -73.5q28 50 77 82t114 32q75 0 127 -33t78.5 -89t26.5 -126q0 -10 -0.5 -22t-2.5 -21h-397q3 -56 32 -94t75.5 -57t100.5 -19
h129v-61h-125q-75 0 -136 27.5t-95 82.5q-9 -48 -44.5 -79t-86.5 -31h-165zM199 60h144q35 0 60 25t25 61v94h-226q-41 0 -64 -25.5t-23 -62.5q0 -22 10.5 -43.5t29.5 -35t44 -13.5zM498 281h330q1 20 -3 44.5t-14.5 48.5t-29 44t-47 32.5t-69.5 12.5q-39 0 -69.5 -16
t-52 -42.5t-32.5 -58.5t-13 -65z" />
    <glyph glyph-name="ccedilla" unicode="&#xe7;" horiz-adv-x="422" 
d="M325 0q-79 0 -141 34t-98 91.5t-36 129.5t36 129.5t98 91.5t141 34h58v-61h-63q-55 0 -100 -25.5t-72 -69.5t-27 -99t27 -99t72 -69.5t100 -25.5h63v-61h-58zM156 -203l92 221h70l-95 -221h-67z" />
    <glyph glyph-name="egrave" unicode="&#xe8;" horiz-adv-x="573" 
d="M336 0q-82 0 -146.5 30.5t-102 87.5t-37.5 137q0 74 30 134.5t84.5 96.5t127.5 36q75 0 127 -33t79 -89t27 -126q0 -10 -1 -22t-3 -21h-397q3 -56 32 -94t75.5 -57t100.5 -19h129v-61h-125zM124 281h330q0 20 -4 44.5t-14.5 48.5t-29 44t-47 32.5t-69.5 12.5
q-38 0 -69 -16t-52 -42.5t-32.5 -58.5t-12.5 -65zM262 577l-96 123h68l96 -123h-68z" />
    <glyph glyph-name="eacute" unicode="&#xe9;" horiz-adv-x="573" 
d="M336 0q-82 0 -146.5 30.5t-102 87.5t-37.5 137q0 74 30 134.5t84.5 96.5t127.5 36q75 0 127 -33t79 -89t27 -126q0 -10 -1 -22t-3 -21h-397q3 -56 32 -94t75.5 -57t100.5 -19h129v-61h-125zM124 281h330q0 20 -4 44.5t-14.5 48.5t-29 44t-47 32.5t-69.5 12.5
q-38 0 -69 -16t-52 -42.5t-32.5 -58.5t-12.5 -65zM267 577l96 123h68l-96 -123h-68z" />
    <glyph glyph-name="ecircumflex" unicode="&#xea;" horiz-adv-x="573" 
d="M336 0q-82 0 -146.5 30.5t-102 87.5t-37.5 137q0 74 30 134.5t84.5 96.5t127.5 36q75 0 127 -33t79 -89t27 -126q0 -10 -1 -22t-3 -21h-397q3 -56 32 -94t75.5 -57t100.5 -19h129v-61h-125zM124 281h330q0 20 -4 44.5t-14.5 48.5t-29 44t-47 32.5t-69.5 12.5
q-38 0 -69 -16t-52 -42.5t-32.5 -58.5t-12.5 -65zM162 577l96 123h83l96 -123h-61l-77 93l-76 -93h-61z" />
    <glyph glyph-name="edieresis" unicode="&#xeb;" horiz-adv-x="573" 
d="M387 605q-18 0 -31 13t-13 31t13 31t31 13t31 -13t13 -31t-13 -31t-31 -13zM210 605q-18 0 -31 13t-13 31t13 31t31 13t31 -13t13 -31t-13 -31t-31 -13zM336 0q-82 0 -146.5 30.5t-102 87.5t-37.5 137q0 74 30 134.5t84.5 96.5t127.5 36q75 0 127 -33t79 -89t27 -126
q0 -10 -1 -22t-3 -21h-397q3 -56 32 -94t75.5 -57t100.5 -19h129v-61h-125zM124 281h330q0 20 -4 44.5t-14.5 48.5t-29 44t-47 32.5t-69.5 12.5q-38 0 -69 -16t-52 -42.5t-32.5 -58.5t-12.5 -65z" />
    <glyph glyph-name="igrave" unicode="&#xec;" horiz-adv-x="224" 
d="M77 0v510h70v-510h-70zM78 577l-96 123h68l96 -123h-68z" />
    <glyph glyph-name="iacute" unicode="&#xed;" horiz-adv-x="224" 
d="M77 0v510h70v-510h-70zM69 577l96 123h68l-96 -123h-68z" />
    <glyph glyph-name="icircumflex" unicode="&#xee;" horiz-adv-x="224" 
d="M77 0v510h70v-510h-70zM-25 577l96 123h83l96 -123h-61l-77 93l-76 -93h-61z" />
    <glyph glyph-name="idieresis" unicode="&#xef;" horiz-adv-x="224" 
d="M200 605q-18 0 -31 13.5t-13 30.5q0 18 13 31t31 13t31 -13t13 -31q0 -17 -13 -30.5t-31 -13.5zM23 605q-18 0 -31 13.5t-13 30.5q0 18 13 31t31 13t31 -13t13 -31q0 -17 -13 -30.5t-31 -13.5zM77 0v510h70v-510h-70z" />
    <glyph glyph-name="eth" unicode="&#xf0;" horiz-adv-x="632" 
d="M309 -13q-53 0 -100.5 18.5t-83 53t-55.5 84t-20 112.5q0 83 34.5 141.5t89.5 90t116 31.5q32 0 62 -9t54 -26l1 1l-84 128l-152 -24v45l125 19l-51 78l81 1l44 -67l103 16v-46l-76 -11l107 -167q23 -37 36.5 -70.5t20 -65t6.5 -62.5q0 -87 -35 -148t-93.5 -92
t-129.5 -31zM310 48q50 0 92.5 24t68 70t25.5 112q0 67 -26 113.5t-68.5 70t-92.5 23.5q-51 0 -93.5 -25.5t-68.5 -72t-26 -108.5q0 -65 26 -111.5t69.5 -71t93.5 -24.5z" />
    <glyph glyph-name="ntilde" unicode="&#xf1;" horiz-adv-x="620" 
d="M77 0v297q0 70 31.5 120.5t84.5 78t117 27.5q65 0 117.5 -27.5t84 -78t31.5 -120.5v-297h-70v294q0 53 -23 90.5t-60.5 57.5t-80.5 20q-42 0 -79 -19.5t-60 -57t-23 -91.5v-294h-70zM386 579q-26 0 -43 8.5t-27.5 22t-20.5 25.5q-10 14 -21.5 24.5t-29.5 10.5
q-17 0 -29.5 -15t-12.5 -42v-24h-48v23q0 50 27 77.5t65 27.5q34 0 54 -16.5t33 -33.5q12 -15 23.5 -27.5t31.5 -12.5q17 0 30 14.5t13 42.5v24h48v-23q0 -50 -27.5 -78t-65.5 -28z" />
    <glyph glyph-name="ograve" unicode="&#xf2;" horiz-adv-x="630" 
d="M315 -13q-77 0 -137 35.5t-94 96.5t-34 136t34 136t94 96.5t137 35.5t136.5 -35.5t94 -96t34.5 -136.5q0 -75 -34.5 -136t-94 -96.5t-136.5 -35.5zM315 48q57 0 101 27.5t68.5 74.5t24.5 105t-24.5 105t-68.5 74.5t-101 27.5q-58 0 -101.5 -27.5t-68 -74.5t-24.5 -105
t24.5 -105t68 -74.5t101.5 -27.5zM283 577l-96 123h68l96 -123h-68z" />
    <glyph glyph-name="oacute" unicode="&#xf3;" horiz-adv-x="630" 
d="M315 -13q-77 0 -137 35.5t-94 96.5t-34 136t34 136t94 96.5t137 35.5t136.5 -35.5t94 -96t34.5 -136.5q0 -75 -34.5 -136t-94 -96.5t-136.5 -35.5zM315 48q57 0 101 27.5t68.5 74.5t24.5 105t-24.5 105t-68.5 74.5t-101 27.5q-58 0 -101.5 -27.5t-68 -74.5t-24.5 -105
t24.5 -105t68 -74.5t101.5 -27.5zM289 577l96 123h68l-96 -123h-68z" />
    <glyph glyph-name="ocircumflex" unicode="&#xf4;" horiz-adv-x="630" 
d="M315 -13q-77 0 -137 35.5t-94 96.5t-34 136t34 136t94 96.5t137 35.5t136.5 -35.5t94 -96t34.5 -136.5q0 -75 -34.5 -136t-94 -96.5t-136.5 -35.5zM315 48q57 0 101 27.5t68.5 74.5t24.5 105t-24.5 105t-68.5 74.5t-101 27.5q-58 0 -101.5 -27.5t-68 -74.5t-24.5 -105
t24.5 -105t68 -74.5t101.5 -27.5zM178 577l96 123h83l96 -123h-61l-77 93l-76 -93h-61z" />
    <glyph glyph-name="otilde" unicode="&#xf5;" horiz-adv-x="630" 
d="M315 -13q-77 0 -137 35.5t-94 96.5t-34 136t34 136t94 96.5t137 35.5t136.5 -35.5t94 -96t34.5 -136.5q0 -75 -34.5 -136t-94 -96.5t-136.5 -35.5zM315 48q57 0 101 27.5t68.5 74.5t24.5 105t-24.5 105t-68.5 74.5t-101 27.5q-58 0 -101.5 -27.5t-68 -74.5t-24.5 -105
t24.5 -105t68 -74.5t101.5 -27.5zM382 579q-26 0 -43 8.5t-27.5 22t-20.5 25.5q-10 14 -21.5 24.5t-29.5 10.5q-17 0 -29.5 -15t-12.5 -42v-24h-48v23q0 50 27 77.5t65 27.5q34 0 54 -16.5t33 -33.5q12 -15 23.5 -27.5t31.5 -12.5q17 0 30 14.5t13 42.5v24h48v-23
q0 -50 -27.5 -78t-65.5 -28z" />
    <glyph glyph-name="odieresis" unicode="&#xf6;" horiz-adv-x="630" 
d="M400 605q-18 0 -31 13t-13 31t13 31t31 13t31 -13t13 -31t-13 -31t-31 -13zM223 605q-18 0 -31 13t-13 31t13 31t31 13t31 -13t13 -31t-13 -31t-31 -13zM315 -13q-77 0 -137 35.5t-94 96.5t-34 136t34 136t94 96.5t137 35.5t136.5 -35.5t94 -96t34.5 -136.5
q0 -75 -34.5 -136t-94 -96.5t-136.5 -35.5zM315 48q57 0 101 27.5t68.5 74.5t24.5 105t-24.5 105t-68.5 74.5t-101 27.5q-58 0 -101.5 -27.5t-68 -74.5t-24.5 -105t24.5 -105t68 -74.5t101.5 -27.5z" />
    <glyph glyph-name="divide" unicode="&#xf7;" horiz-adv-x="590" 
d="M296 473q-23 0 -40.5 17t-17.5 41q0 23 17 40.5t41 17.5t41 -17t17 -41t-17 -41t-41 -17zM296 111q-23 0 -40.5 17t-17.5 41t17 41t41 17t41 -17t17 -41q0 -23 -17 -40.5t-41 -17.5zM71 316v63h448v-63h-448z" />
    <glyph glyph-name="oslash" unicode="&#xf8;" horiz-adv-x="630" 
d="M315 -13q-49 0 -91 15.5t-74 42.5l-42 -45h-67l72 78q-30 35 -46.5 80t-16.5 97q0 75 34 136t94 96.5t137 35.5q47 0 87 -13.5t73 -38.5l36 39h67l-66 -72q32 -35 50 -82t18 -101q0 -75 -34.5 -136t-94 -96.5t-136.5 -35.5zM315 48q57 0 101 27.5t68.5 74.5t24.5 105
q0 39 -11.5 72.5t-32.5 59.5l-272 -295q24 -20 55 -32t67 -12zM160 129l271 294q-23 19 -53 29t-63 10q-58 0 -101.5 -27.5t-68 -74.5t-24.5 -105q0 -36 10 -68.5t29 -57.5z" />
    <glyph glyph-name="ugrave" unicode="&#xf9;" horiz-adv-x="621" 
d="M310 -13q-64 0 -117 27.5t-84.5 78.5t-31.5 120v297h70v-294q0 -53 23.5 -91t60.5 -57.5t79 -19.5q43 0 80.5 20t60.5 57.5t23 90.5v294h70v-297q0 -69 -31.5 -120t-84 -78.5t-118.5 -27.5zM270 577l-96 123h68l96 -123h-68z" />
    <glyph glyph-name="uacute" unicode="&#xfa;" horiz-adv-x="621" 
d="M310 -13q-64 0 -117 27.5t-84.5 78.5t-31.5 120v297h70v-294q0 -53 23.5 -91t60.5 -57.5t79 -19.5q43 0 80.5 20t60.5 57.5t23 90.5v294h70v-297q0 -69 -31.5 -120t-84 -78.5t-118.5 -27.5zM278 577l96 123h68l-96 -123h-68z" />
    <glyph glyph-name="ucircumflex" unicode="&#xfb;" horiz-adv-x="621" 
d="M310 -13q-64 0 -117 27.5t-84.5 78.5t-31.5 120v297h70v-294q0 -53 23.5 -91t60.5 -57.5t79 -19.5q43 0 80.5 20t60.5 57.5t23 90.5v294h70v-297q0 -69 -31.5 -120t-84 -78.5t-118.5 -27.5zM173 577l96 123h83l96 -123h-61l-77 93l-76 -93h-61z" />
    <glyph glyph-name="udieresis" unicode="&#xfc;" horiz-adv-x="621" 
d="M402 605q-18 0 -31 13t-13 31t13 31t31 13t31 -13t13 -31t-13 -31t-31 -13zM225 605q-18 0 -31 13t-13 31t13 31t31 13t31 -13t13 -31t-13 -31t-31 -13zM310 -13q-64 0 -117 27.5t-84.5 78.5t-31.5 120v297h70v-294q0 -53 23.5 -91t60.5 -57.5t79 -19.5q43 0 80.5 20
t60.5 57.5t23 90.5v294h70v-297q0 -69 -31.5 -120t-84 -78.5t-118.5 -27.5z" />
    <glyph glyph-name="yacute" unicode="&#xfd;" horiz-adv-x="621" 
d="M276 -203v193q-56 7 -101 35.5t-71.5 76.5t-26.5 111v297h70v-294q0 -53 23.5 -91t60.5 -57.5t79 -19.5q43 0 80.5 20t61 57.5t23.5 90.5v294h69v-297q0 -64 -26.5 -111.5t-71.5 -76t-100 -34.5v-194h-70zM273 577l96 123h68l-96 -123h-68z" />
    <glyph glyph-name="thorn" unicode="&#xfe;" horiz-adv-x="644" 
d="M77 -203v933h70v-321h2q19 34 49.5 59t67.5 39.5t78 14.5q68 0 124.5 -32t91 -91.5t34.5 -143.5q0 -64 -20.5 -114t-55.5 -84.5t-80 -52t-94 -17.5q-58 0 -111 27.5t-85 81.5h-1v-299h-70zM334 48q51 0 94 24.5t69 71t26 111.5q0 63 -26 109.5t-68.5 71.5t-92.5 25
t-93 -24.5t-69 -70.5t-26 -112t25.5 -112t68 -70t92.5 -24z" />
    <glyph glyph-name="ydieresis" unicode="&#xff;" horiz-adv-x="621" 
d="M405 605q-18 0 -31 13t-13 31t13 31t31 13t31 -13t13 -31t-13 -31t-31 -13zM228 605q-18 0 -31 13t-13 31t13 31t31 13t31 -13t13 -31t-13 -31t-31 -13zM276 -203v193q-56 7 -101 35.5t-71.5 76.5t-26.5 111v297h70v-294q0 -53 23.5 -91t60.5 -57.5t79 -19.5
q43 0 80.5 20t61 57.5t23.5 90.5v294h69v-297q0 -64 -26.5 -111.5t-71.5 -76t-100 -34.5v-194h-70z" />
    <glyph glyph-name="Amacron" unicode="&#x100;" horiz-adv-x="685" 
d="M3 0l244 639q15 39 38.5 56.5t55.5 17.5q33 0 57 -17t38 -56l246 -640h-79l-70 184h-384l-70 -184h-76zM171 248h340l-136 367q-6 16 -13.5 25t-19.5 9q-13 0 -19.5 -9t-13.5 -25zM196 767v49h288v-49h-288z" />
    <glyph glyph-name="amacron" unicode="&#x101;" horiz-adv-x="638" 
d="M295 -13q-77 0 -132 36t-84 96.5t-29 135.5q0 76 32 136.5t91.5 95.5t141.5 35q79 0 136.5 -35t89 -94t31.5 -133v-260h-69v114h-3q-14 -30 -42 -59.5t-68.5 -48.5t-94.5 -19zM310 47q56 0 99 27.5t68 75t24 107.5q0 59 -23 105t-65 73t-100 27q-60 0 -103 -27.5t-66 -75
t-23 -107.5q0 -56 22 -103t64.5 -74.5t102.5 -27.5zM170 604v49h288v-49h-288z" />
    <glyph glyph-name="Abreve" unicode="&#x102;" horiz-adv-x="685" 
d="M3 0l244 639q15 39 38.5 56.5t55.5 17.5q33 0 57 -17t38 -56l246 -640h-79l-70 184h-384l-70 -184h-76zM171 248h340l-136 367q-6 16 -13.5 25t-19.5 9q-13 0 -19.5 -9t-13.5 -25zM350 760q-33 0 -60 15.5t-42 43.5t-15 64h46q0 -37 20 -59t51 -22q32 0 52 22t20 59h45
q0 -36 -15 -64t-41.5 -43.5t-60.5 -15.5z" />
    <glyph glyph-name="abreve" unicode="&#x103;" horiz-adv-x="638" 
d="M295 -13q-77 0 -132 36t-84 96.5t-29 135.5q0 76 32 136.5t91.5 95.5t141.5 35q79 0 136.5 -35t89 -94t31.5 -133v-260h-69v114h-3q-14 -30 -42 -59.5t-68.5 -48.5t-94.5 -19zM310 47q56 0 99 27.5t68 75t24 107.5q0 59 -23 105t-65 73t-100 27q-60 0 -103 -27.5t-66 -75
t-23 -107.5q0 -56 22 -103t64.5 -74.5t102.5 -27.5zM319 573q-33 0 -60 15.5t-42 43.5t-15 64h46q0 -37 20 -59t51 -22q32 0 52 22t20 59h45q0 -36 -15 -64t-41.5 -43.5t-60.5 -15.5z" />
    <glyph glyph-name="Aogonek" unicode="&#x104;" horiz-adv-x="685" 
d="M629 -216q-42 0 -72 23.5t-30 66.5q0 25 15.5 53t36 53.5t37 42.5t19.5 19l25 -16q-2 -2 -15.5 -17t-29 -36.5t-27.5 -45t-12 -44.5q0 -25 16.5 -39t40.5 -14q10 0 20 1.5t20 5.5v-46q-10 -4 -22 -5.5t-22 -1.5zM3 0l244 639q15 39 38.5 56.5t55.5 17.5q33 0 57 -17
t38 -56l246 -640h-79l-70 184h-384l-70 -184h-76zM171 248h340l-136 367q-6 16 -13.5 25t-19.5 9q-13 0 -19.5 -9t-13.5 -25z" />
    <glyph glyph-name="aogonek" unicode="&#x105;" horiz-adv-x="638" 
d="M526 -218q-47 0 -77.5 24.5t-30.5 71.5q0 28 16.5 56.5t38.5 52.5t39.5 39.5t20.5 17.5l26 -18q-2 -2 -16.5 -15.5t-32.5 -33t-30.5 -43t-12.5 -45.5q0 -27 16.5 -43t44.5 -16q10 0 21.5 2.5t24.5 6.5v-49q-6 -2 -20 -5t-28 -3zM295 -13q-77 0 -132 36t-84 96.5
t-29 135.5q0 76 32 136.5t91.5 95.5t141.5 35q79 0 136.5 -35t89 -94t31.5 -133v-260h-69v114h-3q-14 -30 -42 -59.5t-68.5 -48.5t-94.5 -19zM310 47q56 0 99 27.5t68 75t24 107.5q0 59 -23 105t-65 73t-100 27q-60 0 -103 -27.5t-66 -75t-23 -107.5q0 -56 22 -103
t64.5 -74.5t102.5 -27.5z" />
    <glyph glyph-name="Cacute" unicode="&#x106;" horiz-adv-x="538" 
d="M388 0q-80 1 -145.5 28.5t-113 75.5t-73.5 111.5t-26 135.5t26 135t73.5 110.5t113 75.5t145.5 28h81v-64h-78q-61 -1 -113.5 -22.5t-91.5 -60t-60.5 -90.5t-21.5 -112q0 -62 21.5 -113.5t60.5 -90.5t91.5 -60.5t113.5 -21.5h78v-65h-81zM266 757l96 123h68l-96 -123h-68
z" />
    <glyph glyph-name="cacute" unicode="&#x107;" horiz-adv-x="425" 
d="M325 0q-79 0 -141 34t-98 91.5t-36 129.5t36 129.5t98 91.5t141 34h58v-61h-63q-55 0 -100 -25.5t-72 -69.5t-27 -99t27 -99t72 -69.5t100 -25.5h63v-61h-58zM218 577l96 123h68l-96 -123h-68z" />
    <glyph glyph-name="Ccircumflex" unicode="&#x108;" horiz-adv-x="538" 
d="M388 0q-80 1 -145.5 28.5t-113 75.5t-73.5 111.5t-26 135.5t26 135t73.5 110.5t113 75.5t145.5 28h81v-64h-78q-61 -1 -113.5 -22.5t-91.5 -60t-60.5 -90.5t-21.5 -112q0 -62 21.5 -113.5t60.5 -90.5t91.5 -60.5t113.5 -21.5h78v-65h-81zM185 757l96 123h83l96 -123h-61
l-77 93l-76 -93h-61z" />
    <glyph glyph-name="ccircumflex" unicode="&#x109;" horiz-adv-x="433" 
d="M325 0q-79 0 -141 34t-98 91.5t-36 129.5t36 129.5t98 91.5t141 34h58v-61h-63q-55 0 -100 -25.5t-72 -69.5t-27 -99t27 -99t72 -69.5t100 -25.5h63v-61h-58zM118 577l96 123h83l96 -123h-61l-77 93l-76 -93h-61z" />
    <glyph glyph-name="Cdotaccent" unicode="&#x10a;" horiz-adv-x="538" 
d="M388 0q-80 1 -145.5 28.5t-113 75.5t-73.5 111.5t-26 135.5t26 135t73.5 110.5t113 75.5t145.5 28h81v-64h-78q-61 -1 -113.5 -22.5t-91.5 -60t-60.5 -90.5t-21.5 -112q0 -62 21.5 -113.5t60.5 -90.5t91.5 -60.5t113.5 -21.5h78v-65h-81zM345 760q-20 0 -35 15t-15 35
q0 21 15 35.5t35 14.5q21 0 35.5 -14.5t14.5 -35.5q0 -20 -14.5 -35t-35.5 -15z" />
    <glyph glyph-name="cdotaccent" unicode="&#x10b;" horiz-adv-x="422" 
d="M325 0q-79 0 -141 34t-98 91.5t-36 129.5t36 129.5t98 91.5t141 34h58v-61h-63q-55 0 -100 -25.5t-72 -69.5t-27 -99t27 -99t72 -69.5t100 -25.5h63v-61h-58zM291 601q-20 0 -35 15t-15 35q0 21 15 35.5t35 14.5q21 0 35.5 -14.5t14.5 -35.5q0 -20 -14.5 -35t-35.5 -15z
" />
    <glyph glyph-name="Ccaron" unicode="&#x10c;" horiz-adv-x="538" 
d="M388 0q-80 1 -145.5 28.5t-113 75.5t-73.5 111.5t-26 135.5t26 135t73.5 110.5t113 75.5t145.5 28h81v-64h-78q-61 -1 -113.5 -22.5t-91.5 -60t-60.5 -90.5t-21.5 -112q0 -62 21.5 -113.5t60.5 -90.5t91.5 -60.5t113.5 -21.5h78v-65h-81zM277 757l-96 123h61l76 -93
l77 93h61l-96 -123h-83z" />
    <glyph glyph-name="ccaron" unicode="&#x10d;" horiz-adv-x="433" 
d="M325 0q-79 0 -141 34t-98 91.5t-36 129.5t36 129.5t98 91.5t141 34h58v-61h-63q-55 0 -100 -25.5t-72 -69.5t-27 -99t27 -99t72 -69.5t100 -25.5h63v-61h-58zM217 577l-96 123h61l76 -93l77 93h61l-96 -123h-83z" />
    <glyph glyph-name="Dcaron" unicode="&#x10e;" horiz-adv-x="703" 
d="M79 0v700h219q110 0 192 -45t127 -123.5t45 -180.5t-45 -181.5t-127 -124.5t-192 -45h-219zM151 64h148q83 0 149 34.5t103.5 99t37.5 153.5q0 88 -37.5 152t-103.5 98.5t-149 34.5h-148v-572zM271 757l-96 123h61l76 -93l77 93h61l-96 -123h-83z" />
    <glyph glyph-name="dcaron" unicode="&#x10f;" horiz-adv-x="757" 
d="M309 -13q-53 0 -100.5 18.5t-83 53.5t-55.5 85.5t-20 114.5q0 82 34 140.5t90.5 90.5t125.5 32q42 0 80 -15t68 -41.5t47 -60.5h2v325h70v-476q0 -85 -35 -145t-93.5 -91t-129.5 -31zM310 48q50 0 92.5 24t68 70t25.5 112t-26 112t-68.5 70.5t-93.5 24.5q-50 0 -92.5 -25
t-68.5 -71.5t-26 -109.5q0 -65 26 -111.5t69.5 -71t93.5 -24.5zM650 500l36 124q-16 4 -24 16.5t-8 26.5q0 20 13.5 32.5t32.5 12.5q21 0 33 -14.5t12 -32.5t-10 -45l-37 -120h-48z" />
    <glyph glyph-name="Dcroat" unicode="&#x110;" horiz-adv-x="703" 
d="M79 0v324h-79v63h79v313h219q110 0 192 -45t127 -123.5t45 -180.5t-45 -181.5t-127 -124.5t-192 -45h-219zM151 64h148q83 0 149 34.5t103.5 99t37.5 153.5q0 88 -37.5 152t-103.5 98.5t-149 34.5h-148v-249h167v-63h-167v-260z" />
    <glyph glyph-name="dcroat" unicode="&#x111;" horiz-adv-x="642" 
d="M246 600v45h392v-45h-392zM309 -13q-53 0 -100.5 18.5t-83 53.5t-55.5 85.5t-20 114.5q0 82 34 140.5t90.5 90.5t125.5 32q42 0 80 -15t68 -41.5t47 -60.5h2v325h70v-476q0 -85 -35 -145t-93.5 -91t-129.5 -31zM310 48q50 0 92.5 24t68 70t25.5 112t-26 112t-68.5 70.5
t-93.5 24.5q-50 0 -92.5 -25t-68.5 -71.5t-26 -109.5q0 -65 26 -111.5t69.5 -71t93.5 -24.5z" />
    <glyph glyph-name="Emacron" unicode="&#x112;" horiz-adv-x="558" 
d="M242 0q-58 0 -101 27t-66.5 71.5t-23.5 94.5t25.5 94.5t74.5 67.5q-49 25 -72.5 66.5t-23.5 87.5q0 53 25 96t67 68.5t94 25.5h271v-64h-263q-35 0 -62.5 -16.5t-43.5 -45.5t-16 -64q0 -32 17 -60t45 -44.5t64 -16.5h222v-64h-216q-43 0 -73.5 -19t-46 -49t-15.5 -64
q0 -33 15 -62t44 -47.5t70 -18.5h259v-64h-270zM173 780v49h288v-49h-288z" />
    <glyph glyph-name="emacron" unicode="&#x113;" horiz-adv-x="573" 
d="M336 0q-82 0 -146.5 30.5t-102 87.5t-37.5 137q0 74 30 134.5t84.5 96.5t127.5 36q75 0 127 -33t79 -89t27 -126q0 -10 -1 -22t-3 -21h-397q3 -56 32 -94t75.5 -57t100.5 -19h129v-61h-125zM124 281h330q0 20 -4 44.5t-14.5 48.5t-29 44t-47 32.5t-69.5 12.5
q-38 0 -69 -16t-52 -42.5t-32.5 -58.5t-12.5 -65zM149 608v49h288v-49h-288z" />
    <glyph glyph-name="Ebreve" unicode="&#x114;" horiz-adv-x="558" 
d="M242 0q-58 0 -101 27t-66.5 71.5t-23.5 94.5t25.5 94.5t74.5 67.5q-49 25 -72.5 66.5t-23.5 87.5q0 53 25 96t67 68.5t94 25.5h271v-64h-263q-35 0 -62.5 -16.5t-43.5 -45.5t-16 -64q0 -32 17 -60t45 -44.5t64 -16.5h222v-64h-216q-43 0 -73.5 -19t-46 -49t-15.5 -64
q0 -33 15 -62t44 -47.5t70 -18.5h259v-64h-270zM328 750q-33 0 -60 15.5t-42 43.5t-15 64h46q0 -37 20 -59t51 -22q32 0 52 22t20 59h45q0 -36 -15 -64t-41.5 -43.5t-60.5 -15.5z" />
    <glyph glyph-name="ebreve" unicode="&#x115;" horiz-adv-x="573" 
d="M336 0q-82 0 -146.5 30.5t-102 87.5t-37.5 137q0 74 30 134.5t84.5 96.5t127.5 36q75 0 127 -33t79 -89t27 -126q0 -10 -1 -22t-3 -21h-397q3 -56 32 -94t75.5 -57t100.5 -19h129v-61h-125zM124 281h330q0 20 -4 44.5t-14.5 48.5t-29 44t-47 32.5t-69.5 12.5
q-38 0 -69 -16t-52 -42.5t-32.5 -58.5t-12.5 -65zM309 573q-33 0 -60 15.5t-42 43.5t-15 64h46q0 -37 20 -59t51 -22q32 0 52 22t20 59h45q0 -36 -15 -64t-41.5 -43.5t-60.5 -15.5z" />
    <glyph glyph-name="Edotaccent" unicode="&#x116;" horiz-adv-x="558" 
d="M242 0q-58 0 -101 27t-66.5 71.5t-23.5 94.5t25.5 94.5t74.5 67.5q-49 25 -72.5 66.5t-23.5 87.5q0 53 25 96t67 68.5t94 25.5h271v-64h-263q-35 0 -62.5 -16.5t-43.5 -45.5t-16 -64q0 -32 17 -60t45 -44.5t64 -16.5h222v-64h-216q-43 0 -73.5 -19t-46 -49t-15.5 -64
q0 -33 15 -62t44 -47.5t70 -18.5h259v-64h-270zM323 760q-20 0 -35 15t-15 35q0 21 15 35.5t35 14.5q21 0 35.5 -14.5t14.5 -35.5q0 -20 -14.5 -35t-35.5 -15z" />
    <glyph glyph-name="edotaccent" unicode="&#x117;" horiz-adv-x="573" 
d="M336 0q-82 0 -146.5 30.5t-102 87.5t-37.5 137q0 74 30 134.5t84.5 96.5t127.5 36q75 0 127 -33t79 -89t27 -126q0 -10 -1 -22t-3 -21h-397q3 -56 32 -94t75.5 -57t100.5 -19h129v-61h-125zM124 281h330q0 20 -4 44.5t-14.5 48.5t-29 44t-47 32.5t-69.5 12.5
q-38 0 -69 -16t-52 -42.5t-32.5 -58.5t-12.5 -65zM295 601q-20 0 -35 15t-15 35q0 21 15 35.5t35 14.5q21 0 35.5 -14.5t14.5 -35.5q0 -20 -14.5 -35t-35.5 -15z" />
    <glyph glyph-name="Eogonek" unicode="&#x118;" horiz-adv-x="558" 
d="M475 -218q-55 0 -90.5 27.5t-35.5 82.5q0 20 9 42.5t22 43.5t25.5 38t18.5 27l32 -8q-7 -10 -16.5 -25.5t-19 -34.5t-15.5 -38.5t-6 -36.5q0 -32 21 -51t56 -19q12 0 24 2.5t26 6.5v-49q-6 -2 -20.5 -5t-30.5 -3zM242 0q-58 0 -101 27t-66.5 71.5t-23.5 94.5t25.5 94.5
t74.5 67.5q-49 25 -72.5 66.5t-23.5 87.5q0 53 25 96t67 68.5t94 25.5h271v-64h-263q-35 0 -62.5 -16.5t-43.5 -45.5t-16 -64q0 -32 17 -60t45 -44.5t64 -16.5h222v-64h-216q-43 0 -73.5 -19t-46 -49t-15.5 -64q0 -33 15 -62t44 -47.5t70 -18.5h259v-64h-270z" />
    <glyph glyph-name="eogonek" unicode="&#x119;" horiz-adv-x="573" 
d="M475 -218q-52 0 -86.5 25t-34.5 75q0 22 11.5 45.5t28 46t33.5 41.5t29 30l3 -23l2 -22q-12 -15 -25.5 -33.5t-23 -38t-9.5 -37.5q0 -29 21 -46t55 -17q11 0 23 2t26 6v-47q-7 -2 -21.5 -4.5t-31.5 -2.5zM336 0q-82 0 -146.5 30.5t-102 87.5t-37.5 137q0 74 30 134.5
t84.5 96.5t127.5 36q75 0 127 -33t79 -89t27 -126q0 -10 -1 -22t-3 -21h-397q3 -56 32 -94t75.5 -57t100.5 -19h129v-61h-125zM124 281h330q0 20 -4 44.5t-14.5 48.5t-29 44t-47 32.5t-69.5 12.5q-38 0 -69 -16t-52 -42.5t-32.5 -58.5t-12.5 -65z" />
    <glyph glyph-name="Ecaron" unicode="&#x11a;" horiz-adv-x="558" 
d="M242 0q-58 0 -101 27t-66.5 71.5t-23.5 94.5t25.5 94.5t74.5 67.5q-49 25 -72.5 66.5t-23.5 87.5q0 53 25 96t67 68.5t94 25.5h271v-64h-263q-35 0 -62.5 -16.5t-43.5 -45.5t-16 -64q0 -32 17 -60t45 -44.5t64 -16.5h222v-64h-216q-43 0 -73.5 -19t-46 -49t-15.5 -64
q0 -33 15 -62t44 -47.5t70 -18.5h259v-64h-270zM274 757l-96 123h61l76 -93l77 93h61l-96 -123h-83z" />
    <glyph glyph-name="ecaron" unicode="&#x11b;" horiz-adv-x="573" 
d="M336 0q-82 0 -146.5 30.5t-102 87.5t-37.5 137q0 74 30 134.5t84.5 96.5t127.5 36q75 0 127 -33t79 -89t27 -126q0 -10 -1 -22t-3 -21h-397q3 -56 32 -94t75.5 -57t100.5 -19h129v-61h-125zM124 281h330q0 20 -4 44.5t-14.5 48.5t-29 44t-47 32.5t-69.5 12.5
q-38 0 -69 -16t-52 -42.5t-32.5 -58.5t-12.5 -65zM256 577l-96 123h61l76 -93l77 93h61l-96 -123h-83z" />
    <glyph glyph-name="Gcircumflex" unicode="&#x11c;" horiz-adv-x="835" 
d="M606 -222q-46 0 -83.5 19.5t-59 57t-21.5 91.5q0 12 1 25.5t3 26.5q-82 -7 -154 15t-127 70t-86 116.5t-31 154.5q0 74 25.5 139t72.5 114.5t113 77.5t147 28q82 0 148 -27.5t113 -76.5t72 -113.5t25 -137.5v-405q0 -55 -19.5 -94t-55.5 -60t-83 -21zM601 -155
q38 0 64.5 26t26.5 79v270q-60 -35 -96 -72.5t-54.5 -73.5t-24.5 -67t-6 -54q0 -35 12.5 -59.5t33.5 -36.5t44 -12zM406 60q18 0 32 1.5t31 4.5q14 38 40.5 78t71 78.5t111.5 73.5v62q0 62 -21.5 115t-60 92.5t-90.5 61t-114 21.5q-61 0 -113.5 -22t-91 -61.5t-60 -93.5
t-21.5 -117t21.5 -117t60 -93.5t91 -61.5t113.5 -22zM283 757l96 123h83l96 -123h-61l-77 93l-76 -93h-61z" />
    <glyph glyph-name="gcircumflex" unicode="&#x11d;" horiz-adv-x="644" 
d="M155 -203v61h243q49 0 75 28t26 76v146h-2q-18 -29 -46 -56t-66.5 -44t-88.5 -17q-74 0 -129.5 34.5t-86 94.5t-30.5 137q0 75 31 134.5t89 94.5t139 35q77 0 135.5 -34t91.5 -93.5t33 -137.5v-302q0 -72 -42 -114.5t-115 -42.5h-257zM307 52q56 0 99 27t67.5 72.5
t24.5 104.5t-23.5 105t-66.5 73t-100 27q-58 0 -100.5 -27.5t-64.5 -74t-22 -106.5q0 -56 22 -101.5t64 -72.5t100 -27zM179 577l96 123h83l96 -123h-61l-77 93l-76 -93h-61z" />
    <glyph glyph-name="Gbreve" unicode="&#x11e;" horiz-adv-x="835" 
d="M606 -222q-46 0 -83.5 19.5t-59 57t-21.5 91.5q0 12 1 25.5t3 26.5q-82 -7 -154 15t-127 70t-86 116.5t-31 154.5q0 74 25.5 139t72.5 114.5t113 77.5t147 28q82 0 148 -27.5t113 -76.5t72 -113.5t25 -137.5v-405q0 -55 -19.5 -94t-55.5 -60t-83 -21zM601 -155
q38 0 64.5 26t26.5 79v270q-60 -35 -96 -72.5t-54.5 -73.5t-24.5 -67t-6 -54q0 -35 12.5 -59.5t33.5 -36.5t44 -12zM406 60q18 0 32 1.5t31 4.5q14 38 40.5 78t71 78.5t111.5 73.5v62q0 62 -21.5 115t-60 92.5t-90.5 61t-114 21.5q-61 0 -113.5 -22t-91 -61.5t-60 -93.5
t-21.5 -117t21.5 -117t60 -93.5t91 -61.5t113.5 -22zM424 751q-33 0 -60 15.5t-42 43.5t-15 64h46q0 -37 20 -59t51 -22q32 0 52 22t20 59h45q0 -36 -15 -64t-41.5 -43.5t-60.5 -15.5z" />
    <glyph glyph-name="gbreve" unicode="&#x11f;" horiz-adv-x="644" 
d="M155 -203v61h243q49 0 75 28t26 76v146h-2q-18 -29 -46 -56t-66.5 -44t-88.5 -17q-74 0 -129.5 34.5t-86 94.5t-30.5 137q0 75 31 134.5t89 94.5t139 35q77 0 135.5 -34t91.5 -93.5t33 -137.5v-302q0 -72 -42 -114.5t-115 -42.5h-257zM307 52q56 0 99 27t67.5 72.5
t24.5 104.5t-23.5 105t-66.5 73t-100 27q-58 0 -100.5 -27.5t-64.5 -74t-22 -106.5q0 -56 22 -101.5t64 -72.5t100 -27zM330 573q-33 0 -60 15.5t-42 43.5t-15 64h46q0 -37 20 -59t51 -22q32 0 52 22t20 59h45q0 -36 -15 -64t-41.5 -43.5t-60.5 -15.5z" />
    <glyph glyph-name="Gdotaccent" unicode="&#x120;" horiz-adv-x="835" 
d="M606 -222q-46 0 -83.5 19.5t-59 57t-21.5 91.5q0 12 1 25.5t3 26.5q-82 -7 -154 15t-127 70t-86 116.5t-31 154.5q0 74 25.5 139t72.5 114.5t113 77.5t147 28q82 0 148 -27.5t113 -76.5t72 -113.5t25 -137.5v-405q0 -55 -19.5 -94t-55.5 -60t-83 -21zM601 -155
q38 0 64.5 26t26.5 79v270q-60 -35 -96 -72.5t-54.5 -73.5t-24.5 -67t-6 -54q0 -35 12.5 -59.5t33.5 -36.5t44 -12zM406 60q18 0 32 1.5t31 4.5q14 38 40.5 78t71 78.5t111.5 73.5v62q0 62 -21.5 115t-60 92.5t-90.5 61t-114 21.5q-61 0 -113.5 -22t-91 -61.5t-60 -93.5
t-21.5 -117t21.5 -117t60 -93.5t91 -61.5t113.5 -22zM405 760q-20 0 -35 15t-15 35q0 21 15 35.5t35 14.5q21 0 35.5 -14.5t14.5 -35.5q0 -20 -14.5 -35t-35.5 -15z" />
    <glyph glyph-name="gdotaccent" unicode="&#x121;" horiz-adv-x="644" 
d="M155 -203v61h243q49 0 75 28t26 76v146h-2q-18 -29 -46 -56t-66.5 -44t-88.5 -17q-74 0 -129.5 34.5t-86 94.5t-30.5 137q0 75 31 134.5t89 94.5t139 35q77 0 135.5 -34t91.5 -93.5t33 -137.5v-302q0 -72 -42 -114.5t-115 -42.5h-257zM307 52q56 0 99 27t67.5 72.5
t24.5 104.5t-23.5 105t-66.5 73t-100 27q-58 0 -100.5 -27.5t-64.5 -74t-22 -106.5q0 -56 22 -101.5t64 -72.5t100 -27zM312 601q-20 0 -35 15t-15 35q0 21 15 35.5t35 14.5q21 0 35.5 -14.5t14.5 -35.5q0 -20 -14.5 -35t-35.5 -15z" />
    <glyph glyph-name="uni0122" unicode="&#x122;" horiz-adv-x="835" 
d="M606 -222q-46 0 -83.5 19.5t-59 57t-21.5 91.5q0 12 1 25.5t3 26.5q-82 -7 -154 15t-127 70t-86 116.5t-31 154.5q0 74 25.5 139t72.5 114.5t113 77.5t147 28q82 0 148 -27.5t113 -76.5t72 -113.5t25 -137.5v-405q0 -55 -19.5 -94t-55.5 -60t-83 -21zM601 -155
q38 0 64.5 26t26.5 79v270q-60 -35 -96 -72.5t-54.5 -73.5t-24.5 -67t-6 -54q0 -35 12.5 -59.5t33.5 -36.5t44 -12zM406 60q18 0 32 1.5t31 4.5q14 38 40.5 78t71 78.5t111.5 73.5v62q0 62 -21.5 115t-60 92.5t-90.5 61t-114 21.5q-61 0 -113.5 -22t-91 -61.5t-60 -93.5
t-21.5 -117t21.5 -117t60 -93.5t91 -61.5t113.5 -22zM279 -304l36 124q-16 4 -24 16.5t-8 26.5q0 20 13.5 32.5t32.5 12.5q21 0 33 -14.5t12 -32.5t-10 -45l-37 -120h-48z" />
    <glyph glyph-name="uni0123" unicode="&#x123;" horiz-adv-x="644" 
d="M373 814l-36 -123q15 -4 23 -16.5t8 -27.5q0 -19 -13 -32t-32 -13q-21 0 -33 14.5t-12 32.5t9 45l38 120h48zM155 -203v61h243q49 0 75 28t26 76v146h-2q-18 -29 -46 -56t-66.5 -44t-88.5 -17q-74 0 -129.5 34.5t-86 94.5t-30.5 137q0 75 31 134.5t89 94.5t139 35
q77 0 135.5 -34t91.5 -93.5t33 -137.5v-302q0 -72 -42 -114.5t-115 -42.5h-257zM307 52q56 0 99 27t67.5 72.5t24.5 104.5t-23.5 105t-66.5 73t-100 27q-58 0 -100.5 -27.5t-64.5 -74t-22 -106.5q0 -56 22 -101.5t64 -72.5t100 -27z" />
    <glyph glyph-name="Hcircumflex" unicode="&#x124;" horiz-adv-x="703" 
d="M79 0v699h72v-311h401v311h72v-699h-72v324h-401v-324h-72zM215 757l96 123h83l96 -123h-61l-77 93l-76 -93h-61z" />
    <glyph glyph-name="hcircumflex" unicode="&#x125;" horiz-adv-x="632" 
d="M77 0v730h70v-301q30 47 78.5 70.5t102.5 23.5q64 0 115.5 -27.5t81.5 -78t30 -120.5l-1 -297h-69v294q0 53 -24.5 90.5t-63 57.5t-82.5 20q-42 0 -81 -19.5t-63 -56.5t-24 -90v-296h-70zM-26 757l96 123h83l96 -123h-61l-77 93l-76 -93h-61z" />
    <glyph glyph-name="Hbar" unicode="&#x126;" horiz-adv-x="703" 
d="M21 517v46h661v-46h-661zM79 0v699h72v-311h401v311h72v-699h-72v324h-401v-324h-72z" />
    <glyph glyph-name="hbar" unicode="&#x127;" horiz-adv-x="632" 
d="M5 600v45h392v-45h-392zM77 0v730h70v-301q30 47 78.5 70.5t102.5 23.5q64 0 115.5 -27.5t81.5 -78t30 -120.5l-1 -297h-69v294q0 53 -24.5 90.5t-63 57.5t-82.5 20q-42 0 -81 -19.5t-63 -56.5t-24 -90v-296h-70z" />
    <glyph glyph-name="Itilde" unicode="&#x128;" horiz-adv-x="454" 
d="M52 0v64h139v572h-139v64h350v-64h-139v-572h139v-64h-350zM298 747q-26 0 -43 8.5t-27.5 22t-20.5 25.5q-10 14 -21.5 24.5t-29.5 10.5q-17 0 -29.5 -15t-12.5 -42v-24h-48v23q0 50 27 77.5t65 27.5q34 0 54 -16.5t33 -33.5q12 -15 23.5 -27.5t31.5 -12.5q17 0 30 14.5
t13 42.5v24h48v-23q0 -50 -27.5 -78t-65.5 -28z" />
    <glyph glyph-name="itilde" unicode="&#x129;" horiz-adv-x="224" 
d="M77 0v510h70v-510h-70zM182 579q-26 0 -43 8.5t-27.5 22t-20.5 25.5q-10 14 -21.5 24.5t-29.5 10.5q-17 0 -29.5 -15t-12.5 -42v-24h-48v23q0 50 27 77.5t65 27.5q34 0 54 -16.5t33 -33.5q12 -15 23.5 -27.5t31.5 -12.5q17 0 30 14.5t13 42.5v24h48v-23q0 -50 -27.5 -78
t-65.5 -28z" />
    <glyph glyph-name="Imacron" unicode="&#x12a;" horiz-adv-x="454" 
d="M52 0v64h139v572h-139v64h350v-64h-139v-572h139v-64h-350zM79 768v49h288v-49h-288z" />
    <glyph glyph-name="imacron" unicode="&#x12b;" horiz-adv-x="224" 
d="M77 0v510h70v-510h-70zM-36 608v49h288v-49h-288z" />
    <glyph glyph-name="Ibreve" unicode="&#x12c;" horiz-adv-x="454" 
d="M52 0v64h139v572h-139v64h350v-64h-139v-572h139v-64h-350zM240 751q-33 0 -60 15.5t-42 43.5t-15 64h46q0 -37 20 -59t51 -22q32 0 52 22t20 59h45q0 -36 -15 -64t-41.5 -43.5t-60.5 -15.5z" />
    <glyph glyph-name="ibreve" unicode="&#x12d;" horiz-adv-x="224" 
d="M77 0v510h70v-510h-70zM124 573q-33 0 -60 15.5t-42 43.5t-15 64h46q0 -37 20 -59t51 -22q32 0 52 22t20 59h45q0 -36 -15 -64t-41.5 -43.5t-60.5 -15.5z" />
    <glyph glyph-name="Iogonek" unicode="&#x12e;" horiz-adv-x="454" 
d="M349 -218q-45 0 -79 24t-34 77q0 23 11.5 48t27.5 47.5t32.5 40t27.5 26.5l23 -19q-10 -7 -22.5 -22.5t-23.5 -34t-18.5 -38.5t-7.5 -37q0 -32 20 -48.5t46 -16.5q12 0 24 2.5t26 6.5v-48q-6 -2 -21 -5t-32 -3zM52 0v64h139v572h-139v64h350v-64h-139v-572h139v-64h-350z
" />
    <glyph glyph-name="iogonek" unicode="&#x12f;" horiz-adv-x="224" 
d="M100 -218q-48 0 -78.5 24.5t-30.5 71.5q0 28 16.5 56.5t39 52.5t40 39.5t20.5 17.5l26 -18q-3 -2 -17.5 -15.5t-32 -33t-30.5 -43t-13 -45.5q0 -27 17 -43t45 -16q9 0 20.5 2.5t25.5 6.5v-49q-7 -2 -21 -5t-27 -3zM77 0v510h70v-510h-70zM112 602q-20 0 -35 15t-15 35
t15 35t35 15q21 0 35.5 -15t14.5 -35t-14.5 -35t-35.5 -15z" />
    <glyph glyph-name="Idotaccent" unicode="&#x130;" horiz-adv-x="454" 
d="M52 0v64h139v572h-139v64h350v-64h-139v-572h139v-64h-350zM227 760q-20 0 -35 15t-15 35q0 21 15 35.5t35 14.5q21 0 35.5 -14.5t14.5 -35.5q0 -20 -14.5 -35t-35.5 -15z" />
    <glyph glyph-name="dotlessi" unicode="&#x131;" horiz-adv-x="224" 
d="M77 0v510h70v-510h-70z" />
    <glyph glyph-name="IJ" unicode="&#x132;" horiz-adv-x="859" 
d="M52 0v64h139v572h-139v64h350v-64h-139v-572h139v-64h-350zM625 -217q-43 0 -79 17.5t-56.5 52t-20.5 84.5q0 47 19 103t71 118t149 126v352h-156v64h228v-747q0 -55 -20 -93t-55 -57.5t-80 -19.5zM621 -152q23 0 43 11t32 33.5t12 57.5v258q-76 -55 -112.5 -105
t-47.5 -90.5t-11 -68.5q0 -49 25.5 -72.5t58.5 -23.5z" />
    <glyph glyph-name="ij" unicode="&#x133;" horiz-adv-x="448" 
d="M77 0v510h70v-510h-70zM112 602q-20 0 -35 15t-15 35q0 21 15 35.5t35 14.5q21 0 35.5 -14.5t14.5 -35.5q0 -20 -14.5 -35t-35.5 -15zM146 -147l1 61h65q45 0 67 24t22 68v504h70v-512q0 -67 -38.5 -106t-106.5 -39h-80zM335 602q-20 0 -35 15t-15 35q0 21 15 35.5
t35 14.5q21 0 35.5 -14.5t14.5 -35.5q0 -20 -14.5 -35t-35.5 -15z" />
    <glyph glyph-name="Jcircumflex" unicode="&#x134;" horiz-adv-x="405" 
d="M171 -217q-43 0 -79 17.5t-56.5 52t-20.5 84.5q0 47 19 103t71 118t149 126v352h-156v64h228v-747q0 -55 -20 -93t-55 -57.5t-80 -19.5zM167 -152q23 0 43 11t32 33.5t12 57.5v258q-76 -55 -112.5 -105t-47.5 -90.5t-11 -68.5q0 -49 25.5 -72.5t58.5 -23.5zM80 758
l96 123h83l96 -123h-61l-77 93l-76 -93h-61z" />
    <glyph glyph-name="jcircumflex" unicode="&#x135;" horiz-adv-x="223" 
d="M-78 -147l1 61h65q45 0 67 24t22 68v504h70v-512q0 -67 -38.5 -106t-106.5 -39h-80zM111 602q-20 0 -35 15t-15 35q0 21 15 35.5t35 14.5q21 0 35.5 -14.5t14.5 -35.5q0 -20 -14.5 -35t-35.5 -15zM-26 757l96 123h83l96 -123h-61l-77 93l-76 -93h-61z" />
    <glyph glyph-name="uni0136" unicode="&#x136;" horiz-adv-x="679" 
d="M79 0v700h72v-328h206q47 0 85 17.5t60.5 49.5t22.5 77v184h73v-183q0 -67 -36 -116t-96 -72l94 -224q9 -22 21 -31t33 -9h42v-65h-52q-41 0 -67.5 18.5t-42.5 54.5l-100 239q-13 -2 -26 -3t-27 -1h-190v-308h-72zM288 -260l36 124q-16 4 -24 16.5t-8 26.5
q0 20 13.5 32.5t32.5 12.5q21 0 33 -14.5t12 -32.5t-10 -45l-37 -120h-48z" />
    <glyph glyph-name="uni0137" unicode="&#x137;" horiz-adv-x="611" 
d="M77 0v730h70v-443h169l139 223h79l-148 -233q76 -19 118 -77t42 -138v-62h-69v62q0 47 -21 84t-57.5 58.5t-85.5 21.5h-166v-226h-70zM258 -293l36 124q-16 4 -24 16.5t-8 26.5q0 20 13.5 32.5t32.5 12.5q21 0 33 -14.5t12 -32.5t-10 -45l-37 -120h-48z" />
    <glyph glyph-name="kgreenlandic" unicode="&#x138;" horiz-adv-x="611" 
d="M77 0v510h70v-223h168l67 119q22 40 40.5 62.5t40 32t51.5 9.5h36v-61h-23q-18 0 -33 -7t-29.5 -25.5t-32.5 -51.5l-47 -88q76 -18 118.5 -76t42.5 -139v-62h-69v62q0 47 -21 84t-57.5 58.5t-85.5 21.5h-166v-226h-70z" />
    <glyph glyph-name="Lacute" unicode="&#x139;" horiz-adv-x="471" 
d="M247 0q-53 0 -92 22.5t-60 62.5t-21 91v523h72v-533q0 -44 27.5 -73t75.5 -29h188v-64h-190zM104 758l96 123h68l-96 -123h-68z" />
    <glyph glyph-name="lacute" unicode="&#x13a;" horiz-adv-x="221" 
d="M77 0v730h70v-730h-70zM85 757l96 123h68l-96 -123h-68z" />
    <glyph glyph-name="uni013B" unicode="&#x13b;" horiz-adv-x="471" 
d="M247 0q-53 0 -92 22.5t-60 62.5t-21 91v523h72v-533q0 -44 27.5 -73t75.5 -29h188v-64h-190zM220 -260l36 124q-16 4 -24 16.5t-8 26.5q0 20 13.5 32.5t32.5 12.5q21 0 33 -14.5t12 -32.5t-10 -45l-37 -120h-48z" />
    <glyph glyph-name="uni013C" unicode="&#x13c;" horiz-adv-x="221" 
d="M77 0v730h70v-730h-70zM59 -293l36 124q-16 4 -24 16.5t-8 26.5q0 20 13.5 32.5t32.5 12.5q21 0 33 -14.5t12 -32.5t-10 -45l-37 -120h-48z" />
    <glyph glyph-name="Lcaron" unicode="&#x13d;" horiz-adv-x="471" 
d="M247 0q-53 0 -92 22.5t-60 62.5t-21 91v523h72v-533q0 -44 27.5 -73t75.5 -29h188v-64h-190zM238 597l36 124q-16 4 -24 16.5t-8 26.5q0 20 13.5 32.5t32.5 12.5q21 0 33 -14.5t12 -32.5t-10 -45l-37 -120h-48z" />
    <glyph glyph-name="lcaron" unicode="&#x13e;" horiz-adv-x="298" 
d="M77 0v730h70v-730h-70zM208 521l36 124q-16 4 -24 16.5t-8 26.5q0 20 13.5 32.5t32.5 12.5q21 0 33 -14.5t12 -32.5t-10 -45l-37 -120h-48z" />
    <glyph glyph-name="Ldot" unicode="&#x13f;" horiz-adv-x="441" 
d="M334 352q-22 0 -37.5 16t-15.5 37q0 22 15.5 37.5t37.5 15.5q21 0 36.5 -15.5t15.5 -37.5q0 -21 -15.5 -37t-36.5 -16zM247 0q-53 0 -92 22.5t-60 62.5t-21 91v524h72v-534q0 -44 27.5 -73t75.5 -29h52v-64h-54z" />
    <glyph glyph-name="ldot" unicode="&#x140;" horiz-adv-x="315" 
d="M77 0v730h70v-730h-70zM268 348q-20 0 -35 15t-15 35q0 21 15 35.5t35 14.5q21 0 35.5 -14.5t14.5 -35.5q0 -20 -14.5 -35t-35.5 -15z" />
    <glyph glyph-name="Lslash" unicode="&#x141;" horiz-adv-x="486" 
d="M1 333v46l323 77v-46zM247 0q-53 0 -92 22.5t-60 62.5t-21 91v523h72v-533q0 -44 27.5 -73t75.5 -29h188v-64h-190z" />
    <glyph glyph-name="lslash" unicode="&#x142;" horiz-adv-x="224" 
d="M0 320v47l224 79v-47zM77 0v730h70v-730h-70z" />
    <glyph glyph-name="Nacute" unicode="&#x143;" horiz-adv-x="811" 
d="M546 -13q-52 0 -93 24.5t-64 67t-23 96.5v361q0 32 -15 57.5t-39.5 40t-54.5 14.5t-55 -14.5t-40 -40t-15 -57.5v-536h-72v525q0 55 23 97t64 66.5t95 24.5q53 0 94 -24.5t64.5 -66.5t23.5 -97v-361q0 -33 15 -58t39 -39.5t53 -14.5t53 14.5t38 39.5t14 58v536h72v-525
q0 -54 -22 -96.5t-62 -67t-93 -24.5zM405 758l96 123h68l-96 -123h-68z" />
    <glyph glyph-name="nacute" unicode="&#x144;" horiz-adv-x="619" 
d="M77 0v297q0 70 31.5 120.5t84.5 78t117 27.5q65 0 117.5 -27.5t84 -78t31.5 -120.5v-297h-70v294q0 53 -23 90.5t-60.5 57.5t-80.5 20q-42 0 -79 -19.5t-60 -57t-23 -91.5v-294h-70zM279 577l96 123h68l-96 -123h-68z" />
    <glyph glyph-name="uni0145" unicode="&#x145;" horiz-adv-x="798" 
d="M546 -13q-52 0 -93 24.5t-64 67t-23 96.5v361q0 32 -15 57.5t-39.5 40t-54.5 14.5t-55 -14.5t-40 -40t-15 -57.5v-536h-72v525q0 55 23 97t64 66.5t95 24.5q53 0 94 -24.5t64.5 -66.5t23.5 -97v-361q0 -33 15 -58t39 -39.5t53 -14.5t53 14.5t38 39.5t14 58v536h72v-525
q0 -54 -22 -96.5t-62 -67t-93 -24.5zM363 -260l36 124q-16 4 -24 16.5t-8 26.5q0 20 13.5 32.5t32.5 12.5q21 0 33 -14.5t12 -32.5t-10 -45l-37 -120h-48z" />
    <glyph glyph-name="uni0146" unicode="&#x146;" horiz-adv-x="619" 
d="M77 0v297q0 70 31.5 120.5t84.5 78t117 27.5q65 0 117.5 -27.5t84 -78t31.5 -120.5v-297h-70v294q0 53 -23 90.5t-60.5 57.5t-80.5 20q-42 0 -79 -19.5t-60 -57t-23 -91.5v-294h-70zM270 -293l36 124q-16 4 -24 16.5t-8 26.5q0 20 13.5 32.5t32.5 12.5q21 0 33 -14.5
t12 -32.5t-10 -45l-37 -120h-48z" />
    <glyph glyph-name="Ncaron" unicode="&#x147;" horiz-adv-x="798" 
d="M546 -13q-52 0 -93 24.5t-64 67t-23 96.5v361q0 32 -15 57.5t-39.5 40t-54.5 14.5t-55 -14.5t-40 -40t-15 -57.5v-536h-72v525q0 55 23 97t64 66.5t95 24.5q53 0 94 -24.5t64.5 -66.5t23.5 -97v-361q0 -33 15 -58t39 -39.5t53 -14.5t53 14.5t38 39.5t14 58v536h72v-525
q0 -54 -22 -96.5t-62 -67t-93 -24.5zM370 757l-96 123h61l76 -93l77 93h61l-96 -123h-83z" />
    <glyph glyph-name="ncaron" unicode="&#x148;" horiz-adv-x="619" 
d="M77 0v297q0 70 31.5 120.5t84.5 78t117 27.5q65 0 117.5 -27.5t84 -78t31.5 -120.5v-297h-70v294q0 53 -23 90.5t-60.5 57.5t-80.5 20q-42 0 -79 -19.5t-60 -57t-23 -91.5v-294h-70zM268 577l-96 123h61l76 -93l77 93h61l-96 -123h-83z" />
    <glyph glyph-name="napostrophe" unicode="&#x149;" horiz-adv-x="670" 
d="M128 0v297q0 70 31.5 120.5t84.5 78t117 27.5q65 0 117.5 -27.5t84 -78t31.5 -120.5v-297h-70v294q0 53 -23 90.5t-60.5 57.5t-80.5 20q-42 0 -79 -19.5t-60 -57t-23 -91.5v-294h-70zM2 381l36 124q-16 4 -24 16.5t-8 26.5q0 20 13.5 32.5t32.5 12.5q21 0 33 -14.5
t12 -32.5t-10 -45l-37 -120h-48z" />
    <glyph glyph-name="Eng" unicode="&#x14a;" horiz-adv-x="798" 
d="M501 -216l1 65h47q50 0 76 28t26 81v326h72v-337q0 -48 -18 -85t-53 -57.5t-87 -20.5h-64zM546 -13q-52 0 -93 24.5t-64 67t-23 96.5v361q0 32 -15 57.5t-39.5 40t-54.5 14.5t-55 -14.5t-40 -40t-15 -57.5v-536h-72v525q0 55 23 97t64 66.5t95 24.5q53 0 94 -24.5
t64.5 -66.5t23.5 -97v-361q0 -33 15 -58t39 -39.5t53 -14.5t53 14.5t38 39.5t14 58v536h72v-525q0 -54 -22 -96.5t-62 -67t-93 -24.5z" />
    <glyph glyph-name="eng" unicode="&#x14b;" horiz-adv-x="619" 
d="M318 -147l1 61h65q45 0 67 24t22 68v288q0 53 -23 90.5t-60.5 57.5t-80.5 20q-42 0 -79 -19.5t-60 -57t-23 -91.5v-294h-70v297q0 70 31.5 120.5t84.5 78t117 27.5q65 0 117.5 -27.5t84 -78t31.5 -120.5v-299q0 -67 -38.5 -106t-106.5 -39h-80z" />
    <glyph glyph-name="Omacron" unicode="&#x14c;" horiz-adv-x="820" 
d="M410 -13q-82 0 -149 28t-114.5 78t-73 116t-25.5 141t25.5 141t73 116t114.5 78t149 28q83 0 149.5 -28t114 -78t73 -116t25.5 -141t-25.5 -141t-73 -116t-114 -78t-149.5 -28zM410 52q63 0 116 22t92 62.5t60.5 95t21.5 118.5q0 65 -21.5 119t-60.5 94.5t-92 63
t-116 22.5q-62 0 -115 -22.5t-92.5 -63t-61 -95t-21.5 -118.5t21.5 -118.5t61 -95t92.5 -62.5t115 -22zM264 767v49h288v-49h-288z" />
    <glyph glyph-name="omacron" unicode="&#x14d;" horiz-adv-x="630" 
d="M315 -13q-77 0 -137 35.5t-94 96.5t-34 136t34 136t94 96.5t137 35.5t136.5 -35.5t94 -96t34.5 -136.5q0 -75 -34.5 -136t-94 -96.5t-136.5 -35.5zM315 48q57 0 101 27.5t68.5 74.5t24.5 105t-24.5 105t-68.5 74.5t-101 27.5q-58 0 -101.5 -27.5t-68 -74.5t-24.5 -105
t24.5 -105t68 -74.5t101.5 -27.5zM171 608v49h288v-49h-288z" />
    <glyph glyph-name="Obreve" unicode="&#x14e;" horiz-adv-x="820" 
d="M410 -13q-82 0 -149 28t-114.5 78t-73 116t-25.5 141t25.5 141t73 116t114.5 78t149 28q83 0 149.5 -28t114 -78t73 -116t25.5 -141t-25.5 -141t-73 -116t-114 -78t-149.5 -28zM410 52q63 0 116 22t92 62.5t60.5 95t21.5 118.5q0 65 -21.5 119t-60.5 94.5t-92 63
t-116 22.5q-62 0 -115 -22.5t-92.5 -63t-61 -95t-21.5 -118.5t21.5 -118.5t61 -95t92.5 -62.5t115 -22zM418 750q-33 0 -60 15.5t-42 43.5t-15 64h46q0 -37 20 -59t51 -22q32 0 52 22t20 59h45q0 -36 -15 -64t-41.5 -43.5t-60.5 -15.5z" />
    <glyph glyph-name="obreve" unicode="&#x14f;" horiz-adv-x="630" 
d="M315 -13q-77 0 -137 35.5t-94 96.5t-34 136t34 136t94 96.5t137 35.5t136.5 -35.5t94 -96t34.5 -136.5q0 -75 -34.5 -136t-94 -96.5t-136.5 -35.5zM315 48q57 0 101 27.5t68.5 74.5t24.5 105t-24.5 105t-68.5 74.5t-101 27.5q-58 0 -101.5 -27.5t-68 -74.5t-24.5 -105
t24.5 -105t68 -74.5t101.5 -27.5zM327 573q-33 0 -60 15.5t-42 43.5t-15 64h46q0 -37 20 -59t51 -22q32 0 52 22t20 59h45q0 -36 -15 -64t-41.5 -43.5t-60.5 -15.5z" />
    <glyph glyph-name="Ohungarumlaut" unicode="&#x150;" horiz-adv-x="820" 
d="M410 -13q-82 0 -149 28t-114.5 78t-73 116t-25.5 141t25.5 141t73 116t114.5 78t149 28q83 0 149.5 -28t114 -78t73 -116t25.5 -141t-25.5 -141t-73 -116t-114 -78t-149.5 -28zM410 52q63 0 116 22t92 62.5t60.5 95t21.5 118.5q0 65 -21.5 119t-60.5 94.5t-92 63
t-116 22.5q-62 0 -115 -22.5t-92.5 -63t-61 -95t-21.5 -118.5t21.5 -118.5t61 -95t92.5 -62.5t115 -22zM451 757l90 123h63l-90 -123h-63zM295 757l90 123h63l-90 -123h-63z" />
    <glyph glyph-name="ohungarumlaut" unicode="&#x151;" horiz-adv-x="630" 
d="M315 -13q-77 0 -137 35.5t-94 96.5t-34 136t34 136t94 96.5t137 35.5t136.5 -35.5t94 -96t34.5 -136.5q0 -75 -34.5 -136t-94 -96.5t-136.5 -35.5zM315 48q57 0 101 27.5t68.5 74.5t24.5 105t-24.5 105t-68.5 74.5t-101 27.5q-58 0 -101.5 -27.5t-68 -74.5t-24.5 -105
t24.5 -105t68 -74.5t101.5 -27.5zM351 577l90 123h63l-90 -123h-63zM195 577l90 123h63l-90 -123h-63z" />
    <glyph glyph-name="OE" unicode="&#x152;" horiz-adv-x="1119" 
d="M410 -13q-82 0 -149 28t-114.5 78t-73 116t-25.5 141t25.5 141t73 116t114.5 78t149 28q76 0 138.5 -25t107.5 -69q24 37 63 58.5t83 21.5h271v-64h-263q-35 0 -64.5 -17.5t-45.5 -47.5q60 -77 68 -182h267v-64h-267q-2 -56 -20 -106t-49 -90q15 -28 44.5 -46t70.5 -18
h259v-64h-270q-49 0 -86.5 21.5t-62.5 56.5q-45 -42 -107 -66.5t-137 -24.5zM410 52q63 0 116 22t92 62.5t60.5 95t21.5 118.5t-21.5 118.5t-60.5 95t-92 62.5t-116 22q-62 0 -115 -22t-92.5 -62.5t-61 -95t-21.5 -118.5t21.5 -118.5t61 -95t92.5 -62.5t115 -22z" />
    <glyph glyph-name="oe" unicode="&#x153;" horiz-adv-x="1028" 
d="M312 -12q-76 0 -135 35.5t-93 96t-34 135.5t34 135.5t93 96t135 35.5q77 0 136 -40t87 -105q17 43 47.5 75.5t71.5 51t91 18.5q76 0 128 -33t79 -89t27 -126q0 -10 -1 -22t-3 -21h-400q3 -56 32.5 -94t76 -57t101.5 -19h130v-61h-126q-86 0 -153 34.5t-98 100.5
q-28 -65 -87 -106t-139 -41zM312 49q57 0 99.5 27.5t66.5 74t24 104.5t-24 104.5t-66.5 74t-99.5 27.5q-56 0 -99.5 -27.5t-67.5 -74t-24 -104.5t24 -104.5t67.5 -74t99.5 -27.5zM575 281h333q0 20 -3.5 44.5t-14 48.5t-29.5 44t-47.5 32.5t-70.5 12.5q-39 0 -70 -16
t-52.5 -42.5t-33 -58.5t-12.5 -65z" />
    <glyph glyph-name="Racute" unicode="&#x154;" horiz-adv-x="675" 
d="M79 0v700h304q64 0 117 -28t84.5 -78t31.5 -116q0 -71 -37 -124t-99 -78l79 -171q10 -21 22 -30.5t33 -9.5h42v-65h-52q-38 0 -65 19t-45 54l-86 186q-12 -1 -24.5 -2t-24.5 -1h-208v-256h-72zM151 320h220q48 0 87 18.5t62.5 54t23.5 85.5q0 49 -23.5 85t-62 54.5
t-84.5 18.5h-223v-316zM275 758l96 123h68l-96 -123h-68z" />
    <glyph glyph-name="racute" unicode="&#x155;" horiz-adv-x="345" 
d="M75 0v365q0 68 38.5 106.5t106.5 38.5h88v-61h-74q-44 0 -66.5 -24t-22.5 -68v-357h-70zM150 577l96 123h68l-96 -123h-68z" />
    <glyph glyph-name="uni0156" unicode="&#x156;" horiz-adv-x="675" 
d="M79 0v700h304q64 0 117 -28t84.5 -78t31.5 -116q0 -71 -37 -124t-99 -78l79 -171q10 -21 22 -30.5t33 -9.5h42v-65h-52q-38 0 -65 19t-45 54l-86 186q-12 -1 -24.5 -2t-24.5 -1h-208v-256h-72zM151 320h220q48 0 87 18.5t62.5 54t23.5 85.5q0 49 -23.5 85t-62 54.5
t-84.5 18.5h-223v-316zM291 -260l36 124q-16 4 -24 16.5t-8 26.5q0 20 13.5 32.5t32.5 12.5q21 0 33 -14.5t12 -32.5t-10 -45l-37 -120h-48z" />
    <glyph glyph-name="uni0157" unicode="&#x157;" horiz-adv-x="321" 
d="M75 0v365q0 68 38.5 106.5t106.5 38.5h88v-61h-74q-44 0 -66.5 -24t-22.5 -68v-357h-70zM61 -293l36 124q-16 4 -24 16.5t-8 26.5q0 20 13.5 32.5t32.5 12.5q21 0 33 -14.5t12 -32.5t-10 -45l-37 -120h-48z" />
    <glyph glyph-name="Rcaron" unicode="&#x158;" horiz-adv-x="675" 
d="M79 0v700h304q64 0 117 -28t84.5 -78t31.5 -116q0 -71 -37 -124t-99 -78l79 -171q10 -21 22 -30.5t33 -9.5h42v-65h-52q-38 0 -65 19t-45 54l-86 186q-12 -1 -24.5 -2t-24.5 -1h-208v-256h-72zM151 320h220q48 0 87 18.5t62.5 54t23.5 85.5q0 49 -23.5 85t-62 54.5
t-84.5 18.5h-223v-316zM292 757l-96 123h61l76 -93l77 93h61l-96 -123h-83z" />
    <glyph glyph-name="rcaron" unicode="&#x159;" horiz-adv-x="345" 
d="M75 0v365q0 68 38.5 106.5t106.5 38.5h88v-61h-74q-44 0 -66.5 -24t-22.5 -68v-357h-70zM167 577l-96 123h61l76 -93l77 93h61l-96 -123h-83z" />
    <glyph glyph-name="Sacute" unicode="&#x15a;" horiz-adv-x="628" 
d="M74 0v64h305q41 0 70.5 19t44.5 49.5t15 63.5t-14.5 62t-43 47t-68.5 18h-140q-60 0 -103.5 24.5t-67 66.5t-23.5 94t23.5 95.5t67 70t103.5 26.5h293v-64h-288q-39 0 -67.5 -18t-44 -46.5t-15.5 -59.5t14.5 -59t42 -45.5t67.5 -17.5h141q63 0 106.5 -25t66 -67.5
t22.5 -93.5q0 -57 -23.5 -103.5t-67 -73.5t-104.5 -27h-312zM271 757l96 123h68l-96 -123h-68z" />
    <glyph glyph-name="sacute" unicode="&#x15b;" horiz-adv-x="522" 
d="M66 0v61h240q31 0 52 13t32.5 34t11.5 43t-10 40.5t-29 30.5t-48 12h-107q-49 0 -84.5 16.5t-54 47.5t-18.5 72q0 37 18 69t51 51.5t77 19.5h231v-61h-224q-39 0 -61 -23.5t-22 -53.5q0 -29 22 -52t66 -23h100q54 0 90.5 -18t55 -50t18.5 -75q0 -39 -20 -74.5
t-54.5 -57.5t-80.5 -22h-252zM221 577l96 123h68l-96 -123h-68z" />
    <glyph glyph-name="Scircumflex" unicode="&#x15c;" horiz-adv-x="626" 
d="M74 0v64h305q41 0 70.5 19t44.5 49.5t15 63.5t-14.5 62t-43 47t-68.5 18h-140q-60 0 -103.5 24.5t-67 66.5t-23.5 94t23.5 95.5t67 70t103.5 26.5h293v-64h-288q-39 0 -67.5 -18t-44 -46.5t-15.5 -59.5t14.5 -59t42 -45.5t67.5 -17.5h141q63 0 106.5 -25t66 -67.5
t22.5 -93.5q0 -57 -23.5 -103.5t-67 -73.5t-104.5 -27h-312zM177 757l96 123h83l96 -123h-61l-77 93l-76 -93h-61z" />
    <glyph glyph-name="scircumflex" unicode="&#x15d;" horiz-adv-x="522" 
d="M66 0v61h240q31 0 52 13t32.5 34t11.5 43t-10 40.5t-29 30.5t-48 12h-107q-49 0 -84.5 16.5t-54 47.5t-18.5 72q0 37 18 69t51 51.5t77 19.5h231v-61h-224q-39 0 -61 -23.5t-22 -53.5q0 -29 22 -52t66 -23h100q54 0 90.5 -18t55 -50t18.5 -75q0 -39 -20 -74.5
t-54.5 -57.5t-80.5 -22h-252zM130 577l96 123h83l96 -123h-61l-77 93l-76 -93h-61z" />
    <glyph glyph-name="Scedilla" unicode="&#x15e;" horiz-adv-x="626" 
d="M74 0v64h305q41 0 70.5 19t44.5 49.5t15 63.5t-14.5 62t-43 47t-68.5 18h-140q-60 0 -103.5 24.5t-67 66.5t-23.5 94t23.5 95.5t67 70t103.5 26.5h293v-64h-288q-39 0 -67.5 -18t-44 -46.5t-15.5 -59.5t14.5 -59t42 -45.5t67.5 -17.5h141q63 0 106.5 -25t66 -67.5
t22.5 -93.5q0 -57 -23.5 -103.5t-67 -73.5t-104.5 -27h-312zM211 -203l92 221h70l-95 -221h-67z" />
    <glyph glyph-name="scedilla" unicode="&#x15f;" horiz-adv-x="522" 
d="M66 0v61h240q31 0 52 13t32.5 34t11.5 43t-10 40.5t-29 30.5t-48 12h-107q-49 0 -84.5 16.5t-54 47.5t-18.5 72q0 37 18 69t51 51.5t77 19.5h231v-61h-224q-39 0 -61 -23.5t-22 -53.5q0 -29 22 -52t66 -23h100q54 0 90.5 -18t55 -50t18.5 -75q0 -39 -20 -74.5
t-54.5 -57.5t-80.5 -22h-252zM160 -203l92 221h70l-95 -221h-67z" />
    <glyph glyph-name="Scaron" unicode="&#x160;" horiz-adv-x="628" 
d="M74 0v64h305q41 0 70.5 19t44.5 49.5t15 63.5t-14.5 62t-43 47t-68.5 18h-140q-60 0 -103.5 24.5t-67 66.5t-23.5 94t23.5 95.5t67 70t103.5 26.5h293v-64h-288q-39 0 -67.5 -18t-44 -46.5t-15.5 -59.5t14.5 -59t42 -45.5t67.5 -17.5h141q63 0 106.5 -25t66 -67.5
t22.5 -93.5q0 -57 -23.5 -103.5t-67 -73.5t-104.5 -27h-312zM280 757l-96 123h61l76 -93l77 93h61l-96 -123h-83z" />
    <glyph glyph-name="scaron" unicode="&#x161;" horiz-adv-x="522" 
d="M66 0v61h240q31 0 52 13t32.5 34t11.5 43t-10 40.5t-29 30.5t-48 12h-107q-49 0 -84.5 16.5t-54 47.5t-18.5 72q0 37 18 69t51 51.5t77 19.5h231v-61h-224q-39 0 -61 -23.5t-22 -53.5q0 -29 22 -52t66 -23h100q54 0 90.5 -18t55 -50t18.5 -75q0 -39 -20 -74.5
t-54.5 -57.5t-80.5 -22h-252zM223 577l-96 123h61l76 -93l77 93h61l-96 -123h-83z" />
    <glyph glyph-name="uni0162" unicode="&#x162;" horiz-adv-x="570" 
d="M313 -203l94 226l60 -7v-16l-87 -203h-67zM422 0q-53 0 -92 22.5t-60 62.5t-21 91v460h-222v64h516v-64h-222v-470q0 -44 27.5 -73t74.5 -29h44v-64h-45z" />
    <glyph glyph-name="uni0163" unicode="&#x163;" horiz-adv-x="401" 
d="M250 0q-68 0 -106.5 39t-38.5 106v493h70v-485q0 -44 22.5 -68t66.5 -24h98v-61h-112zM16 449v61h348v-61h-348zM126 -203l92 221h70l-95 -221h-67z" />
    <glyph glyph-name="Tcaron" unicode="&#x164;" horiz-adv-x="570" 
d="M422 0q-53 0 -92 22.5t-60 62.5t-21 91v460h-222v64h516v-64h-222v-470q0 -44 27.5 -73t74.5 -29h44v-64h-45zM245 757l-96 123h61l76 -93l77 93h61l-96 -123h-83z" />
    <glyph glyph-name="tcaron" unicode="&#x165;" horiz-adv-x="537" 
d="M250 0q-68 0 -106.5 39t-38.5 106v493h70v-485q0 -44 22.5 -68t66.5 -24h98v-61h-112zM16 449v61h348v-61h-348zM442 437l36 124q-16 4 -24 16.5t-8 26.5q0 20 13.5 32.5t32.5 12.5q21 0 33 -14.5t12 -32.5t-10 -45l-37 -120h-48z" />
    <glyph glyph-name="Tbar" unicode="&#x166;" horiz-adv-x="570" 
d="M422 0q-53 0 -92 22.5t-60 62.5t-21 91v206h-169v49h169v205h-222v64h516v-64h-222v-205h180v-49h-180v-216q0 -44 27.5 -73t74.5 -29h44v-64h-45z" />
    <glyph glyph-name="tbar" unicode="&#x167;" horiz-adv-x="399" 
d="M250 0q-68 0 -106.5 39t-38.5 106v493h70v-485q0 -44 22.5 -68t66.5 -24h98v-61h-112zM23 452v58h321v-58h-321zM23 277v58h321v-58h-321z" />
    <glyph glyph-name="Utilde" unicode="&#x168;" 
d="M348 -13q-79 0 -140 34.5t-96 97.5t-35 150v431h72v-441q0 -57 24.5 -103.5t69 -75t105.5 -28.5q62 0 106.5 28t68.5 75t24 104v441h72v-431q0 -87 -35 -150t-96 -97.5t-140 -34.5zM417 748q-26 0 -43 8.5t-27.5 22t-20.5 25.5q-10 14 -21.5 24.5t-29.5 10.5
q-17 0 -29.5 -15t-12.5 -42v-24h-48v23q0 50 27 77.5t65 27.5q34 0 54 -16.5t33 -33.5q12 -15 23.5 -27.5t31.5 -12.5q17 0 30 14.5t13 42.5v24h48v-23q0 -50 -27.5 -78t-65.5 -28z" />
    <glyph glyph-name="utilde" unicode="&#x169;" horiz-adv-x="621" 
d="M310 -13q-64 0 -117 27.5t-84.5 78.5t-31.5 120v297h70v-294q0 -53 23.5 -91t60.5 -57.5t79 -19.5q43 0 80.5 20t60.5 57.5t23 90.5v294h70v-297q0 -69 -31.5 -120t-84 -78.5t-118.5 -27.5zM383 579q-26 0 -43 8.5t-27.5 22t-20.5 25.5q-10 14 -21.5 24.5t-29.5 10.5
q-17 0 -29.5 -15t-12.5 -42v-24h-48v23q0 50 27 77.5t65 27.5q34 0 54 -16.5t33 -33.5q12 -15 23.5 -27.5t31.5 -12.5q17 0 30 14.5t13 42.5v24h48v-23q0 -50 -27.5 -78t-65.5 -28z" />
    <glyph glyph-name="Umacron" unicode="&#x16a;" 
d="M348 -13q-79 0 -140 34.5t-96 97.5t-35 150v431h72v-441q0 -57 24.5 -103.5t69 -75t105.5 -28.5q62 0 106.5 28t68.5 75t24 104v441h72v-431q0 -87 -35 -150t-96 -97.5t-140 -34.5zM200 767v49h288v-49h-288z" />
    <glyph glyph-name="umacron" unicode="&#x16b;" horiz-adv-x="621" 
d="M310 -13q-64 0 -117 27.5t-84.5 78.5t-31.5 120v297h70v-294q0 -53 23.5 -91t60.5 -57.5t79 -19.5q43 0 80.5 20t60.5 57.5t23 90.5v294h70v-297q0 -69 -31.5 -120t-84 -78.5t-118.5 -27.5zM168 608v49h288v-49h-288z" />
    <glyph glyph-name="Ubreve" unicode="&#x16c;" 
d="M348 -13q-79 0 -140 34.5t-96 97.5t-35 150v431h72v-441q0 -57 24.5 -103.5t69 -75t105.5 -28.5q62 0 106.5 28t68.5 75t24 104v441h72v-431q0 -87 -35 -150t-96 -97.5t-140 -34.5zM361 760q-33 0 -60 15.5t-42 43.5t-15 64h46q0 -37 20 -59t51 -22q32 0 52 22t20 59h45
q0 -36 -15 -64t-41.5 -43.5t-60.5 -15.5z" />
    <glyph glyph-name="ubreve" unicode="&#x16d;" horiz-adv-x="621" 
d="M310 -13q-64 0 -117 27.5t-84.5 78.5t-31.5 120v297h70v-294q0 -53 23.5 -91t60.5 -57.5t79 -19.5q43 0 80.5 20t60.5 57.5t23 90.5v294h70v-297q0 -69 -31.5 -120t-84 -78.5t-118.5 -27.5zM325 573q-33 0 -60 15.5t-42 43.5t-15 64h46q0 -37 20 -59t51 -22q32 0 52 22
t20 59h45q0 -36 -15 -64t-41.5 -43.5t-60.5 -15.5z" />
    <glyph glyph-name="Uring" unicode="&#x16e;" 
d="M348 -13q-79 0 -140 34.5t-96 97.5t-35 150v431h72v-441q0 -57 24.5 -103.5t69 -75t105.5 -28.5q62 0 106.5 28t68.5 75t24 104v441h72v-431q0 -87 -35 -150t-96 -97.5t-140 -34.5zM345 748q-40 0 -67.5 27.5t-27.5 67.5t27.5 67.5t67.5 27.5t67.5 -27.5t27.5 -67.5
t-27.5 -67.5t-67.5 -27.5zM345 784q25 0 42 17t17 42t-17 42t-42 17q-24 0 -41.5 -17t-17.5 -42t17.5 -42t41.5 -17z" />
    <glyph glyph-name="uring" unicode="&#x16f;" horiz-adv-x="621" 
d="M310 -13q-64 0 -117 27.5t-84.5 78.5t-31.5 120v297h70v-294q0 -53 23.5 -91t60.5 -57.5t79 -19.5q43 0 80.5 20t60.5 57.5t23 90.5v294h70v-297q0 -69 -31.5 -120t-84 -78.5t-118.5 -27.5zM314 567q-40 0 -67.5 27.5t-27.5 67.5t27.5 67.5t67.5 27.5t67.5 -27.5
t27.5 -67.5t-27.5 -67.5t-67.5 -27.5zM314 603q25 0 42 17t17 42t-17 42t-42 17q-24 0 -41.5 -17t-17.5 -42t17.5 -42t41.5 -17z" />
    <glyph glyph-name="Uhungarumlaut" unicode="&#x170;" horiz-adv-x="705" 
d="M348 -13q-79 0 -140 34.5t-96 97.5t-35 150v431h72v-441q0 -57 24.5 -103.5t69 -75t105.5 -28.5q62 0 106.5 28t68.5 75t24 104v441h72v-431q0 -87 -35 -150t-96 -97.5t-140 -34.5zM379 757l90 123h63l-90 -123h-63zM223 757l90 123h63l-90 -123h-63z" />
    <glyph glyph-name="uhungarumlaut" unicode="&#x171;" horiz-adv-x="621" 
d="M310 -13q-64 0 -117 27.5t-84.5 78.5t-31.5 120v297h70v-294q0 -53 23.5 -91t60.5 -57.5t79 -19.5q43 0 80.5 20t60.5 57.5t23 90.5v294h70v-297q0 -69 -31.5 -120t-84 -78.5t-118.5 -27.5zM348 577l90 123h63l-90 -123h-63zM192 577l90 123h63l-90 -123h-63z" />
    <glyph glyph-name="Uogonek" unicode="&#x172;" 
d="M348 -13q-79 0 -140 34.5t-96 97.5t-35 150v431h72v-441q0 -57 24.5 -103.5t69 -75t105.5 -28.5q62 0 106.5 28t68.5 75t24 104v441h72v-431q0 -87 -35 -150t-96 -97.5t-140 -34.5zM541 -218q-55 0 -90.5 27.5t-35.5 82.5q0 30 16 62.5t37 61.5t38 48t20 22l25 -15
q-2 -3 -15.5 -20.5t-30 -43t-28.5 -53.5t-12 -54q0 -32 21 -51t56 -19q12 0 24 2.5t26 6.5v-49q-6 -2 -20.5 -5t-30.5 -3z" />
    <glyph glyph-name="uogonek" unicode="&#x173;" horiz-adv-x="621" 
d="M310 -13q-64 0 -117 27.5t-84.5 78.5t-31.5 120v297h70v-294q0 -53 23.5 -91t60.5 -57.5t79 -19.5q43 0 80.5 20t60.5 57.5t23 90.5v294h70v-297q0 -69 -31.5 -120t-84 -78.5t-118.5 -27.5zM487 -218q-55 0 -90.5 27.5t-35.5 82.5q0 30 16 62.5t37 61.5t38 48t20 22
l25 -15q-2 -3 -15.5 -20.5t-30 -43t-28.5 -53.5t-12 -54q0 -32 21 -51t56 -19q12 0 24 2.5t26 6.5v-49q-6 -2 -20.5 -5t-30.5 -3z" />
    <glyph glyph-name="Wcircumflex" unicode="&#x174;" horiz-adv-x="1126" 
d="M337 -13q-77 0 -136 32t-92.5 92t-33.5 142v447h72v-453q0 -53 23 -97.5t66 -71t101 -26.5q59 0 101.5 26.5t65.5 71t23 97.5v453h72v-453q0 -53 23.5 -97.5t66 -71t100.5 -26.5q59 0 101.5 26.5t65.5 71t23 97.5v453h72v-447q0 -82 -33.5 -142t-92.5 -92t-136 -32
q-48 0 -93.5 15.5t-79.5 48t-53 81.5q-18 -49 -53 -81t-79.5 -48t-93.5 -16zM427 757l96 123h83l96 -123h-61l-77 93l-76 -93h-61z" />
    <glyph glyph-name="wcircumflex" unicode="&#x175;" horiz-adv-x="975" 
d="M238 -13q-44 0 -81 18t-58.5 56t-21.5 99v350h70v-364q0 -34 13 -55.5t33.5 -32t44.5 -10.5q23 0 44 10.5t34 32.5t13 55v210q0 58 21.5 95t57.5 54.5t79 17.5t79 -17.5t57.5 -54.5t21.5 -95v-210q0 -33 13 -55t34.5 -32.5t45.5 -10.5q23 0 43.5 10.5t33.5 32.5t13 55
v364h70v-350q0 -61 -21.5 -99t-58 -56t-80.5 -18q-45 0 -82 18t-59 56t-22 99v206q0 35 -12.5 56t-32.5 30.5t-43 9.5q-22 0 -42 -9.5t-33 -30.5t-13 -56v-206q0 -61 -22 -99t-58 -56t-81 -18zM351 577l96 123h83l96 -123h-61l-77 93l-76 -93h-61z" />
    <glyph glyph-name="Ycircumflex" unicode="&#x176;" 
d="M311 0v207q-76 8 -128.5 46.5t-79 99.5t-26.5 134v212h72v-219q0 -56 23 -104t68 -77.5t108 -29.5q64 0 108 29.5t67.5 77.5t23.5 104v219h72v-212q0 -73 -27 -134t-79.5 -100t-129.5 -46v-207h-72zM211 757l96 123h83l96 -123h-61l-77 93l-76 -93h-61z" />
    <glyph glyph-name="ycircumflex" unicode="&#x177;" horiz-adv-x="621" 
d="M276 -203v193q-56 7 -101 35.5t-71.5 76.5t-26.5 111v297h70v-294q0 -53 23.5 -91t60.5 -57.5t79 -19.5q43 0 80.5 20t61 57.5t23.5 90.5v294h69v-297q0 -64 -26.5 -111.5t-71.5 -76t-100 -34.5v-194h-70zM173 577l96 123h83l96 -123h-61l-77 93l-76 -93h-61z" />
    <glyph glyph-name="Ydieresis" unicode="&#x178;" 
d="M436 760q-18 0 -31 13t-13 31t13 31t31 13t31 -13t13 -31t-13 -31t-31 -13zM259 760q-18 0 -31 13t-13 31t13 31t31 13t31 -13t13 -31t-13 -31t-31 -13zM311 0v207q-76 8 -128.5 46.5t-79 99.5t-26.5 134v212h72v-219q0 -56 23 -104t68 -77.5t108 -29.5q64 0 108 29.5
t67.5 77.5t23.5 104v219h72v-212q0 -73 -27 -134t-79.5 -100t-129.5 -46v-207h-72z" />
    <glyph glyph-name="Zacute" unicode="&#x179;" horiz-adv-x="614" 
d="M189 0q-63 0 -99.5 39t-36.5 93q0 38 16.5 64t52.5 54l318 252q25 18 34 33.5t9 37.5q0 15 -8 29.5t-22 24t-32 9.5h-344l1 64h346q43 0 73 -18t46 -47t16 -64q0 -40 -18 -68.5t-53 -54.5l-314 -250q-18 -13 -28 -23t-14.5 -20.5t-4.5 -26.5q0 -14 8.5 -29t24 -25
t35.5 -10h362v-64h-368zM272 757l96 123h68l-96 -123h-68z" />
    <glyph glyph-name="zacute" unicode="&#x17a;" horiz-adv-x="513" 
d="M143 0q-30 0 -53.5 14.5t-37.5 37.5t-14 51q0 32 15 56t47 43l248 154q21 12 26.5 24t5.5 26q0 17 -12.5 30t-34.5 13h-270v61h292q30 0 53 -14.5t36.5 -37.5t13.5 -51q0 -32 -14.5 -56t-46.5 -43l-247 -154q-21 -12 -27.5 -24t-6.5 -26q0 -17 13.5 -30t35.5 -13h285v-61
h-307zM214 577l96 123h68l-96 -123h-68z" />
    <glyph glyph-name="Zdotaccent" unicode="&#x17b;" horiz-adv-x="614" 
d="M189 0q-63 0 -99.5 39t-36.5 93q0 38 16.5 64t52.5 54l318 252q25 18 34 33.5t9 37.5q0 15 -8 29.5t-22 24t-32 9.5h-344l1 64h346q43 0 73 -18t46 -47t16 -64q0 -40 -18 -68.5t-53 -54.5l-314 -250q-18 -13 -28 -23t-14.5 -20.5t-4.5 -26.5q0 -14 8.5 -29t24 -25
t35.5 -10h362v-64h-368zM315 760q-20 0 -35 15t-15 35q0 21 15 35.5t35 14.5q21 0 35.5 -14.5t14.5 -35.5q0 -20 -14.5 -35t-35.5 -15z" />
    <glyph glyph-name="zdotaccent" unicode="&#x17c;" horiz-adv-x="513" 
d="M143 0q-30 0 -53.5 14.5t-37.5 37.5t-14 51q0 32 15 56t47 43l248 154q21 12 26.5 24t5.5 26q0 17 -12.5 30t-34.5 13h-270v61h292q30 0 53 -14.5t36.5 -37.5t13.5 -51q0 -32 -14.5 -56t-46.5 -43l-247 -154q-21 -12 -27.5 -24t-6.5 -26q0 -17 13.5 -30t35.5 -13h285v-61
h-307zM264 601q-20 0 -35 15t-15 35q0 21 15 35.5t35 14.5q21 0 35.5 -14.5t14.5 -35.5q0 -20 -14.5 -35t-35.5 -15z" />
    <glyph glyph-name="Zcaron" unicode="&#x17d;" horiz-adv-x="614" 
d="M189 0q-63 0 -99.5 39t-36.5 93q0 38 16.5 64t52.5 54l318 252q25 18 34 33.5t9 37.5q0 15 -8 29.5t-22 24t-32 9.5h-344l1 64h346q43 0 73 -18t46 -47t16 -64q0 -40 -18 -68.5t-53 -54.5l-314 -250q-18 -13 -28 -23t-14.5 -20.5t-4.5 -26.5q0 -14 8.5 -29t24 -25
t35.5 -10h362v-64h-368zM268 757l-96 123h61l76 -93l77 93h61l-96 -123h-83z" />
    <glyph glyph-name="zcaron" unicode="&#x17e;" horiz-adv-x="513" 
d="M143 0q-30 0 -53.5 14.5t-37.5 37.5t-14 51q0 32 15 56t47 43l248 154q21 12 26.5 24t5.5 26q0 17 -12.5 30t-34.5 13h-270v61h292q30 0 53 -14.5t36.5 -37.5t13.5 -51q0 -32 -14.5 -56t-46.5 -43l-247 -154q-21 -12 -27.5 -24t-6.5 -26q0 -17 13.5 -30t35.5 -13h285v-61
h-307zM220 577l-96 123h61l76 -93l77 93h61l-96 -123h-83z" />
    <glyph glyph-name="longs" unicode="&#x17f;" horiz-adv-x="383" 
d="M102 0v449h-90v60h90v77q0 68 38.5 106.5t106.5 38.5h116v-61h-103q-43 0 -66 -24t-23 -68v-578h-69z" />
    <glyph glyph-name="uni018F" unicode="&#x18f;" horiz-adv-x="707" 
d="M341 -13q-90 0 -157 39t-104 117t-39 194q0 9 0.5 18t0.5 18h543q-8 79 -48 137t-108 90.5t-162 32.5h-138v67h138q121 0 208.5 -44.5t134.5 -125.5t47 -191q0 -103 -40 -182.5t-111.5 -124.5t-164.5 -45zM337 52q73 0 127.5 34.5t85.5 93.5t34 130h-474
q3 -80 30.5 -137.5t77.5 -89t119 -31.5z" />
    <glyph glyph-name="florin" unicode="&#x192;" horiz-adv-x="361" 
d="M72 429v61h252v-61h-252zM18 -203v64h66q29 0 45 17t16 45l2 686q0 57 32 89t89 32h75v-64h-67q-28 0 -44 -16.5t-16 -45.5l-1 -686q0 -56 -32.5 -88.5t-89.5 -32.5h-75z" />
    <glyph glyph-name="Ohorn" unicode="&#x1a0;" horiz-adv-x="820" 
d="M410 -13q-82 0 -149 28t-114.5 78t-73 116t-25.5 141t25.5 141t73 116t114.5 78t149 28q83 0 149.5 -28t114 -78t73 -116t25.5 -141t-25.5 -141t-73 -116t-114 -78t-149.5 -28zM410 52q63 0 116 22t92 62.5t60.5 95t21.5 118.5q0 65 -21.5 119t-60.5 94.5t-92 63
t-116 22.5q-62 0 -115 -22.5t-92.5 -63t-61 -95t-21.5 -118.5t21.5 -118.5t61 -95t92.5 -62.5t115 -22zM638 580v44h36q25 0 39.5 16t15.5 46v22h60v-23q-1 -54 -28.5 -79.5t-82.5 -25.5h-40z" />
    <glyph glyph-name="ohorn" unicode="&#x1a1;" horiz-adv-x="630" 
d="M315 -13q-77 0 -137 35.5t-94 96.5t-34 136t34 136t94 96.5t137 35.5t136.5 -35.5t94 -96t34.5 -136.5q0 -75 -34.5 -136t-94 -96.5t-136.5 -35.5zM315 48q57 0 101 27.5t68.5 74.5t24.5 105t-24.5 105t-68.5 74.5t-101 27.5q-58 0 -101.5 -27.5t-68 -74.5t-24.5 -105
t24.5 -105t68 -74.5t101.5 -27.5zM424 449v44h36q25 0 39.5 16t15.5 46v22h60v-23q-1 -54 -28.5 -79.5t-82.5 -25.5h-40z" />
    <glyph glyph-name="Uhorn" unicode="&#x1af;" horiz-adv-x="729" 
d="M348 -13q-79 0 -140 34.5t-96 97.5t-35 150v431h72v-441q0 -57 24.5 -103.5t69 -75t105.5 -28.5q62 0 106.5 28t68.5 75t24 104v441h72v-431q0 -87 -35 -150t-96 -97.5t-140 -34.5zM578 656v44h36q25 0 39.5 16t15.5 46v22h60v-23q-1 -54 -28.5 -79.5t-82.5 -25.5h-40z
" />
    <glyph glyph-name="uhorn" unicode="&#x1b0;" horiz-adv-x="655" 
d="M310 -13q-64 0 -117 27.5t-84.5 78.5t-31.5 120v297h70v-294q0 -53 23.5 -91t60.5 -57.5t79 -19.5q43 0 80.5 20t60.5 57.5t23 90.5v294h70v-297q0 -69 -31.5 -120t-84 -78.5t-118.5 -27.5zM498 466v44h36q25 0 39.5 16t15.5 46v22h60v-23q-1 -54 -28.5 -79.5
t-82.5 -25.5h-40z" />
    <glyph glyph-name="uni01C4" unicode="&#x1c4;" horiz-adv-x="1304" 
d="M79 0v700h219q110 0 192 -45t127 -123.5t45 -180.5t-45 -181.5t-127 -124.5t-192 -45h-219zM151 64h148q83 0 149 34.5t103.5 99t37.5 153.5q0 88 -37.5 152t-103.5 98.5t-149 34.5h-148v-572zM893 0q-63 0 -99.5 39t-36.5 93q0 38 16.5 64t52.5 54l318 252
q25 18 34 33.5t9 37.5q0 15 -8 29.5t-22 24t-32 9.5h-344l1 64h346q43 0 73 -18t46 -47t16 -64q0 -40 -18 -68.5t-53 -54.5l-314 -250q-18 -13 -28 -23t-14.5 -20.5t-4.5 -26.5q0 -14 8.5 -29t24 -25t35.5 -10h362v-64h-368zM972 757l-96 123h61l76 -93l77 93h61l-96 -123
h-83z" />
    <glyph glyph-name="uni01C5" unicode="&#x1c5;" horiz-adv-x="1214" 
d="M79 0v700h219q110 0 192 -45t127 -123.5t45 -180.5t-45 -181.5t-127 -124.5t-192 -45h-219zM151 64h148q83 0 149 34.5t103.5 99t37.5 153.5q0 88 -37.5 152t-103.5 98.5t-149 34.5h-148v-572zM846 0q-30 0 -53.5 14.5t-37.5 37.5t-14 51q0 32 15 56t47 43l248 154
q21 12 26.5 24t5.5 26q0 17 -12.5 30t-34.5 13h-270v61h292q30 0 53 -14.5t36.5 -37.5t13.5 -51q0 -32 -14.5 -56t-46.5 -43l-247 -154q-21 -12 -27.5 -24t-6.5 -26q0 -17 13.5 -30t35.5 -13h285v-61h-307zM923 577l-96 123h61l76 -93l77 93h61l-96 -123h-83z" />
    <glyph glyph-name="uni01C6" unicode="&#x1c6;" horiz-adv-x="1157" 
d="M309 -13q-53 0 -100.5 18.5t-83 53.5t-55.5 85.5t-20 114.5q0 82 34 140.5t90.5 90.5t125.5 32q42 0 80 -15t68 -41.5t47 -60.5h2v325h70v-476q0 -85 -35 -145t-93.5 -91t-129.5 -31zM310 48q50 0 92.5 24t68 70t25.5 112t-26 112t-68.5 70.5t-93.5 24.5q-50 0 -92.5 -25
t-68.5 -71.5t-26 -109.5q0 -65 26 -111.5t69.5 -71t93.5 -24.5zM785 0q-30 0 -53.5 14.5t-37.5 37.5t-14 51q0 32 15 56t47 43l248 154q21 12 26.5 24t5.5 26q0 17 -12.5 30t-34.5 13h-270v61h292q30 0 53 -14.5t36.5 -37.5t13.5 -51q0 -32 -14.5 -56t-46.5 -43l-247 -154
q-21 -12 -27.5 -24t-6.5 -26q0 -17 13.5 -30t35.5 -13h285v-61h-307zM862 577l-96 123h62l76 -93l76 93h61l-96 -123h-83z" />
    <glyph glyph-name="uni01C7" unicode="&#x1c7;" horiz-adv-x="715" 
d="M247 0q-53 0 -92 22.5t-60 62.5t-21 91v524h72v-534q0 -44 27.5 -73t75.5 -29h52v-64h-54zM456 -217q-43 0 -79 17.5t-56.5 52t-20.5 84.5q0 47 19 103t71 118t149 126v352h-156v64h228v-747q0 -55 -20 -93t-55 -57.5t-80 -19.5zM452 -152q23 0 43 11t32 33.5t12 57.5
v258q-76 -55 -112.5 -105t-47.5 -90.5t-11 -68.5q0 -49 25.5 -72.5t58.5 -23.5z" />
    <glyph glyph-name="uni01C8" unicode="&#x1c8;" horiz-adv-x="597" 
d="M247 0q-53 0 -92 22.5t-60 62.5t-21 91v524h72v-534q0 -44 27.5 -73t75.5 -29h52v-64h-54zM281 -147l1 61h65q45 0 67 24t22 68v504h70v-512q0 -67 -38.5 -106t-106.5 -39h-80zM470 602q-20 0 -35 15t-15 35q0 21 15 35.5t35 14.5q21 0 35.5 -14.5t14.5 -35.5
q0 -20 -14.5 -35t-35.5 -15z" />
    <glyph glyph-name="uni01C9" unicode="&#x1c9;" horiz-adv-x="494" 
d="M77 0v730h70v-730h-70zM192 -147l1 61h65q45 0 67 24t22 68v504h70v-512q0 -67 -38.5 -106t-106.5 -39h-80zM381 602q-20 0 -35 15t-15 35q0 21 15 35.5t35 14.5q21 0 35.5 -14.5t14.5 -35.5q0 -20 -14.5 -35t-35.5 -15z" />
    <glyph glyph-name="uni01CA" unicode="&#x1ca;" horiz-adv-x="1241" 
d="M546 -13q-52 0 -93 24.5t-64 67t-23 96.5v361q0 32 -15 57.5t-39.5 40t-54.5 14.5t-55 -14.5t-40 -40t-15 -57.5v-536h-72v525q0 55 23 97t64 66.5t95 24.5q53 0 94 -24.5t64.5 -66.5t23.5 -97v-361q0 -33 15 -58t39 -39.5t53 -14.5t53 14.5t38 39.5t14 58v536h72v-525
q0 -54 -22 -96.5t-62 -67t-93 -24.5zM982 -217q-43 0 -79 17.5t-56.5 52t-20.5 84.5q0 47 19 103t71 118t149 126v352h-156v64h228v-747q0 -55 -20 -93t-55 -57.5t-80 -19.5zM978 -152q23 0 43 11t32 33.5t12 57.5v258q-76 -55 -112.5 -105t-47.5 -90.5t-11 -68.5
q0 -49 25.5 -72.5t58.5 -23.5z" />
    <glyph glyph-name="uni01CB" unicode="&#x1cb;" horiz-adv-x="1043" 
d="M546 -13q-52 0 -93 24.5t-64 67t-23 96.5v361q0 32 -15 57.5t-39.5 40t-54.5 14.5t-55 -14.5t-40 -40t-15 -57.5v-536h-72v525q0 55 23 97t64 66.5t95 24.5q53 0 94 -24.5t64.5 -66.5t23.5 -97v-361q0 -33 15 -58t39 -39.5t53 -14.5t53 14.5t38 39.5t14 58v536h72v-525
q0 -54 -22 -96.5t-62 -67t-93 -24.5zM733 -147l1 61h65q45 0 67 24t22 68v504h70v-512q0 -67 -38.5 -106t-106.5 -39h-80zM922 602q-20 0 -35 15t-15 35q0 21 15 35.5t35 14.5q21 0 35.5 -14.5t14.5 -35.5q0 -20 -14.5 -35t-35.5 -15z" />
    <glyph glyph-name="uni01CC" unicode="&#x1cc;" horiz-adv-x="859" 
d="M77 0v297q0 70 31.5 120.5t84.5 78t117 27.5q65 0 117.5 -27.5t84 -78t31.5 -120.5v-297h-70v294q0 53 -23 90.5t-60.5 57.5t-80.5 20q-42 0 -79 -19.5t-60 -57t-23 -91.5v-294h-70zM549 -147l1 61h65q45 0 67 24t22 68v504h70v-512q0 -67 -38.5 -106t-106.5 -39h-80z
M738 602q-20 0 -35 15t-15 35q0 21 15 35.5t35 14.5q21 0 35.5 -14.5t14.5 -35.5q0 -20 -14.5 -35t-35.5 -15z" />
    <glyph glyph-name="uni01CD" unicode="&#x1cd;" horiz-adv-x="685" 
d="M3 0l244 639q15 39 38.5 56.5t55.5 17.5q33 0 57 -17t38 -56l246 -640h-79l-70 184h-384l-70 -184h-76zM171 248h340l-136 367q-6 16 -13.5 25t-19.5 9q-13 0 -19.5 -9t-13.5 -25zM300 757l-96 123h61l76 -93l77 93h61l-96 -123h-83z" />
    <glyph glyph-name="uni01CE" unicode="&#x1ce;" horiz-adv-x="638" 
d="M295 -13q-77 0 -132 36t-84 96.5t-29 135.5q0 76 32 136.5t91.5 95.5t141.5 35q79 0 136.5 -35t89 -94t31.5 -133v-260h-69v114h-3q-14 -30 -42 -59.5t-68.5 -48.5t-94.5 -19zM310 47q56 0 99 27.5t68 75t24 107.5q0 59 -23 105t-65 73t-100 27q-60 0 -103 -27.5t-66 -75
t-23 -107.5q0 -56 22 -103t64.5 -74.5t102.5 -27.5zM273 577l-96 123h61l76 -93l77 93h61l-96 -123h-83z" />
    <glyph glyph-name="uni01CF" unicode="&#x1cf;" horiz-adv-x="454" 
d="M52 0v64h139v572h-139v64h350v-64h-139v-572h139v-64h-350zM185 757l-96 123h61l76 -93l77 93h61l-96 -123h-83z" />
    <glyph glyph-name="uni01D0" unicode="&#x1d0;" horiz-adv-x="224" 
d="M77 0v510h70v-510h-70zM71 577l-96 123h61l76 -93l77 93h61l-96 -123h-83z" />
    <glyph glyph-name="uni01D1" unicode="&#x1d1;" horiz-adv-x="820" 
d="M410 -13q-82 0 -149 28t-114.5 78t-73 116t-25.5 141t25.5 141t73 116t114.5 78t149 28q83 0 149.5 -28t114 -78t73 -116t25.5 -141t-25.5 -141t-73 -116t-114 -78t-149.5 -28zM410 52q63 0 116 22t92 62.5t60.5 95t21.5 118.5q0 65 -21.5 119t-60.5 94.5t-92 63
t-116 22.5q-62 0 -115 -22.5t-92.5 -63t-61 -95t-21.5 -118.5t21.5 -118.5t61 -95t92.5 -62.5t115 -22zM371 757l-96 123h61l76 -93l77 93h61l-96 -123h-83z" />
    <glyph glyph-name="uni01D2" unicode="&#x1d2;" horiz-adv-x="630" 
d="M315 -13q-77 0 -137 35.5t-94 96.5t-34 136t34 136t94 96.5t137 35.5t136.5 -35.5t94 -96t34.5 -136.5q0 -75 -34.5 -136t-94 -96.5t-136.5 -35.5zM315 48q57 0 101 27.5t68.5 74.5t24.5 105t-24.5 105t-68.5 74.5t-101 27.5q-58 0 -101.5 -27.5t-68 -74.5t-24.5 -105
t24.5 -105t68 -74.5t101.5 -27.5zM273 577l-96 123h61l76 -93l77 93h61l-96 -123h-83z" />
    <glyph glyph-name="uni01D3" unicode="&#x1d3;" 
d="M348 -13q-79 0 -140 34.5t-96 97.5t-35 150v431h72v-441q0 -57 24.5 -103.5t69 -75t105.5 -28.5q62 0 106.5 28t68.5 75t24 104v441h72v-431q0 -87 -35 -150t-96 -97.5t-140 -34.5zM303 757l-96 123h61l76 -93l77 93h61l-96 -123h-83z" />
    <glyph glyph-name="uni01D4" unicode="&#x1d4;" horiz-adv-x="621" 
d="M310 -13q-64 0 -117 27.5t-84.5 78.5t-31.5 120v297h70v-294q0 -53 23.5 -91t60.5 -57.5t79 -19.5q43 0 80.5 20t60.5 57.5t23 90.5v294h70v-297q0 -69 -31.5 -120t-84 -78.5t-118.5 -27.5zM269 577l-96 123h61l76 -93l77 93h61l-96 -123h-83z" />
    <glyph glyph-name="uni01D5" unicode="&#x1d5;" 
d="M436 760q-18 0 -31 13t-13 31t13 31t31 13t31 -13t13 -31t-13 -31t-31 -13zM259 760q-18 0 -31 13t-13 31t13 31t31 13t31 -13t13 -31t-13 -31t-31 -13zM348 -13q-79 0 -140 34.5t-96 97.5t-35 150v431h72v-441q0 -57 24.5 -103.5t69 -75t105.5 -28.5q62 0 106.5 28.5
t68.5 75t24 103.5v441h72v-431q0 -87 -35 -150t-96 -97.5t-140 -34.5zM195 904v49h288v-49h-288z" />
    <glyph glyph-name="uni01D6" unicode="&#x1d6;" horiz-adv-x="621" 
d="M402 605q-18 0 -31 13t-13 31t13 31t31 13t31 -13t13 -31t-13 -31t-31 -13zM225 605q-18 0 -31 13t-13 31t13 31t31 13t31 -13t13 -31t-13 -31t-31 -13zM310 -13q-64 0 -117 27.5t-84.5 78.5t-31.5 120v297h70v-294q0 -53 23.5 -91t60.5 -57.5t79 -19.5q43 0 80.5 20
t60.5 57.5t23 90.5v294h70v-297q0 -69 -31.5 -120t-84 -78.5t-118.5 -27.5zM167 765v49h288v-49h-288z" />
    <glyph glyph-name="uni01D7" unicode="&#x1d7;" 
d="M436 760q-18 0 -31 13t-13 31t13 31t31 13t31 -13t13 -31t-13 -31t-31 -13zM259 760q-18 0 -31 13t-13 31t13 31t31 13t31 -13t13 -31t-13 -31t-31 -13zM348 -13q-79 0 -140 34.5t-96 97.5t-35 150v431h72v-441q0 -57 24.5 -103.5t69 -75t105.5 -28.5q62 0 106.5 28.5
t68.5 75t24 103.5v441h72v-431q0 -87 -35 -150t-96 -97.5t-140 -34.5zM316 902l96 123h68l-96 -123h-68z" />
    <glyph glyph-name="uni01D8" unicode="&#x1d8;" horiz-adv-x="621" 
d="M402 605q-18 0 -31 13t-13 31t13 31t31 13t31 -13t13 -31t-13 -31t-31 -13zM225 605q-18 0 -31 13t-13 31t13 31t31 13t31 -13t13 -31t-13 -31t-31 -13zM310 -13q-64 0 -117 27.5t-84.5 78.5t-31.5 120v297h70v-294q0 -53 23.5 -91t60.5 -57.5t79 -19.5q43 0 80.5 20
t60.5 57.5t23 90.5v294h70v-297q0 -69 -31.5 -120t-84 -78.5t-118.5 -27.5zM285 757l96 123h68l-96 -123h-68z" />
    <glyph glyph-name="uni01D9" unicode="&#x1d9;" 
d="M436 760q-18 0 -31 13t-13 31t13 31t31 13t31 -13t13 -31t-13 -31t-31 -13zM259 760q-18 0 -31 13t-13 31t13 31t31 13t31 -13t13 -31t-13 -31t-31 -13zM348 -13q-79 0 -140 34.5t-96 97.5t-35 150v431h72v-441q0 -57 24.5 -103.5t69 -75t105.5 -28.5q62 0 106.5 28.5
t68.5 75t24 103.5v441h72v-431q0 -87 -35 -150t-96 -97.5t-140 -34.5zM308 902l-96 123h61l76 -93l76 93h62l-96 -123h-83z" />
    <glyph glyph-name="uni01DA" unicode="&#x1da;" horiz-adv-x="621" 
d="M402 605q-18 0 -31 13t-13 31t13 31t31 13t31 -13t13 -31t-13 -31t-31 -13zM225 605q-18 0 -31 13t-13 31t13 31t31 13t31 -13t13 -31t-13 -31t-31 -13zM310 -13q-64 0 -117 27.5t-84.5 78.5t-31.5 120v297h70v-294q0 -53 23.5 -91t60.5 -57.5t79 -19.5q43 0 80.5 20
t60.5 57.5t23 90.5v294h70v-297q0 -69 -31.5 -120t-84 -78.5t-118.5 -27.5zM269 757l-96 123h61l76 -93l77 93h61l-96 -123h-83z" />
    <glyph glyph-name="uni01DB" unicode="&#x1db;" 
d="M436 760q-18 0 -31 13t-13 31t13 31t31 13t31 -13t13 -31t-13 -31t-31 -13zM259 760q-18 0 -31 13t-13 31t13 31t31 13t31 -13t13 -31t-13 -31t-31 -13zM348 -13q-79 0 -140 34.5t-96 97.5t-35 150v431h72v-441q0 -57 24.5 -103.5t69 -75t105.5 -28.5q62 0 106.5 28.5
t68.5 75t24 103.5v441h72v-431q0 -87 -35 -150t-96 -97.5t-140 -34.5zM313 901l-96 123h68l96 -123h-68z" />
    <glyph glyph-name="uni01DC" unicode="&#x1dc;" horiz-adv-x="621" 
d="M402 605q-18 0 -31 13t-13 31t13 31t31 13t31 -13t13 -31t-13 -31t-31 -13zM225 605q-18 0 -31 13t-13 31t13 31t31 13t31 -13t13 -31t-13 -31t-31 -13zM310 -13q-64 0 -117 27.5t-84.5 78.5t-31.5 120v297h70v-294q0 -53 23.5 -91t60.5 -57.5t79 -19.5q43 0 80.5 20
t60.5 57.5t23 90.5v294h70v-297q0 -69 -31.5 -120t-84 -78.5t-118.5 -27.5zM273 757l-96 123h68l96 -123h-68z" />
    <glyph glyph-name="Gcaron" unicode="&#x1e6;" horiz-adv-x="835" 
d="M606 -222q-46 0 -83.5 19.5t-59 57t-21.5 91.5q0 12 1 25.5t3 26.5q-82 -7 -154 15t-127 70t-86 116.5t-31 154.5q0 74 25.5 139t72.5 114.5t113 77.5t147 28q82 0 148 -27.5t113 -76.5t72 -113.5t25 -137.5v-405q0 -55 -19.5 -94t-55.5 -60t-83 -21zM601 -155
q38 0 64.5 26t26.5 79v270q-60 -35 -96 -72.5t-54.5 -73.5t-24.5 -67t-6 -54q0 -35 12.5 -59.5t33.5 -36.5t44 -12zM406 60q18 0 32 1.5t31 4.5q14 38 40.5 78t71 78.5t111.5 73.5v62q0 62 -21.5 115t-60 92.5t-90.5 61t-114 21.5q-61 0 -113.5 -22t-91 -61.5t-60 -93.5
t-21.5 -117t21.5 -117t60 -93.5t91 -61.5t113.5 -22zM379 757l-96 123h61l76 -93l77 93h61l-96 -123h-83z" />
    <glyph glyph-name="gcaron" unicode="&#x1e7;" horiz-adv-x="644" 
d="M155 -203v61h243q49 0 75 28t26 76v146h-2q-18 -29 -46 -56t-66.5 -44t-88.5 -17q-74 0 -129.5 34.5t-86 94.5t-30.5 137q0 75 31 134.5t89 94.5t139 35q77 0 135.5 -34t91.5 -93.5t33 -137.5v-302q0 -72 -42 -114.5t-115 -42.5h-257zM307 52q56 0 99 27t67.5 72.5
t24.5 104.5t-23.5 105t-66.5 73t-100 27q-58 0 -100.5 -27.5t-64.5 -74t-22 -106.5q0 -56 22 -101.5t64 -72.5t100 -27zM275 577l-96 123h61l76 -93l77 93h61l-96 -123h-83z" />
    <glyph glyph-name="uni01EA" unicode="&#x1ea;" horiz-adv-x="820" 
d="M488 -226q-55 0 -90.5 27.5t-35.5 82.5q0 20 9 41.5t21.5 42t24.5 37.5t18 26l32 -8q-7 -9 -16.5 -24.5t-18 -34t-14.5 -37t-6 -35.5q0 -32 21.5 -51t56.5 -19q11 0 23.5 2.5t25.5 6.5v-49q-6 -2 -20.5 -5t-30.5 -3zM410 -13q-82 0 -149 28t-114.5 78t-73 116t-25.5 141
t25.5 141t73 116t114.5 78t149 28q83 0 149.5 -28t114 -78t73 -116t25.5 -141t-25.5 -141t-73 -116t-114 -78t-149.5 -28zM410 52q63 0 116 22t92 62.5t60.5 95t21.5 118.5q0 65 -21.5 119t-60.5 94.5t-92 63t-116 22.5q-62 0 -115 -22.5t-92.5 -63t-61 -94.5t-21.5 -119
q0 -64 21.5 -118.5t61 -95t92.5 -62.5t115 -22z" />
    <glyph glyph-name="uni01EB" unicode="&#x1eb;" horiz-adv-x="630" 
d="M315 -13q-77 0 -137 35.5t-94 96.5t-34 136t34 136t94 96.5t137 35.5t136.5 -35.5t94 -96t34.5 -136.5q0 -75 -34.5 -136t-94 -96.5t-136.5 -35.5zM315 48q57 0 101 27.5t68.5 74.5t24.5 105t-24.5 105t-68.5 74.5t-101 27.5q-58 0 -101.5 -27.5t-68 -74.5t-24.5 -105
t24.5 -105t68 -74.5t101.5 -27.5zM499 -218q-55 0 -90.5 27.5t-35.5 82.5q0 30 16 62.5t37 61.5t38 48t20 22l25 -15q-2 -3 -15.5 -20.5t-30 -43t-28.5 -53.5t-12 -54q0 -32 21 -51t56 -19q12 0 24 2.5t26 6.5v-49q-6 -2 -20.5 -5t-30.5 -3z" />
    <glyph glyph-name="Aringacute" unicode="&#x1fa;" horiz-adv-x="685" 
d="M3 0l244 639q15 39 38.5 56.5t55.5 17.5q33 0 57 -17t38 -56l246 -640h-79l-70 184h-384l-70 -184h-76zM171 248h340l-136 367q-6 16 -13.5 25t-19.5 9q-13 0 -19.5 -9t-13.5 -25zM342 749q-40 0 -67.5 27.5t-27.5 67.5t27.5 67.5t67.5 27.5t67.5 -27.5t27.5 -67.5
t-27.5 -67.5t-67.5 -27.5zM342 785q25 0 42 17t17 42t-17 42t-42 17q-24 0 -41.5 -17t-17.5 -42t17.5 -42t41.5 -17zM314 979l96 123h68l-96 -123h-68z" />
    <glyph glyph-name="aringacute" unicode="&#x1fb;" horiz-adv-x="638" 
d="M295 -13q-77 0 -132 36t-84 96.5t-29 135.5q0 76 32 136.5t91.5 95.5t141.5 35q79 0 136.5 -35t89 -94t31.5 -133v-260h-69v114h-3q-14 -30 -42 -59.5t-68.5 -48.5t-94.5 -19zM310 47q56 0 99 27.5t68 75t24 107.5q0 59 -23 105t-65 73t-100 27q-60 0 -103 -27.5t-66 -75
t-23 -107.5q0 -56 22 -103t64.5 -74.5t102.5 -27.5zM308 566q-40 0 -67.5 27.5t-27.5 67.5t27.5 67.5t67.5 27.5t67.5 -27.5t27.5 -67.5t-27.5 -67.5t-67.5 -27.5zM308 602q25 0 42 17t17 42t-17 42t-42 17q-24 0 -41.5 -17t-17.5 -42t17.5 -42t41.5 -17zM271 802l96 123h68
l-96 -123h-68z" />
    <glyph glyph-name="AEacute" unicode="&#x1fc;" horiz-adv-x="953" 
d="M3 0l244 639q15 39 38.5 56.5t55.5 17.5q29 0 50 -15t38 -48l24 -58q5 31 24.5 55.5t53 38.5t78.5 14h319v-64h-315q-51 0 -80.5 -24t-37.5 -61.5t6 -78.5l32 -84h356v-64h-332l77 -197q10 -28 32.5 -45.5t58.5 -17.5h203v-64h-221q-50 0 -86 25.5t-50 62.5l-37 96h-385
l-70 -184h-76zM171 248h341l-137 367q-6 16 -13.5 25t-19.5 9q-13 0 -19.5 -9t-13.5 -25zM491 757l96 123h68l-96 -123h-68z" />
    <glyph glyph-name="aeacute" unicode="&#x1fd;" horiz-adv-x="948" 
d="M184 0q-38 0 -69.5 20t-50 53.5t-18.5 75.5q0 45 18.5 76.5t50 48t70.5 16.5h243v81q0 34 -22 56.5t-58 22.5h-254v60h261q48 0 80 -28.5t41 -73.5q28 50 77 82t114 32q75 0 127 -33t78.5 -89t26.5 -126q0 -10 -0.5 -22t-2.5 -21h-397q3 -56 32 -94t75.5 -57t100.5 -19
h129v-61h-125q-75 0 -136 27.5t-95 82.5q-9 -48 -44.5 -79t-86.5 -31h-165zM199 60h144q35 0 60 25t25 61v94h-226q-41 0 -64 -25.5t-23 -62.5q0 -22 10.5 -43.5t29.5 -35t44 -13.5zM498 281h330q1 20 -3 44.5t-14.5 48.5t-29 44t-47 32.5t-69.5 12.5q-39 0 -69.5 -16
t-52 -42.5t-32.5 -58.5t-13 -65zM442 577l96 123h68l-96 -123h-68z" />
    <glyph glyph-name="Oslashacute" unicode="&#x1fe;" horiz-adv-x="820" 
d="M410 -13q-68 0 -126.5 21.5t-103.5 59.5l-65 -68h-72l97 103q-43 49 -67.5 112.5t-24.5 134.5q0 75 25.5 141t73 116t114.5 78t149 28q69 0 127 -21.5t102 -58.5l66 68h73l-98 -105q44 -48 68 -111.5t24 -134.5q0 -75 -25.5 -141t-73 -116t-114 -78t-149.5 -28zM410 52
q63 0 116 22t92 62.5t60.5 95t21.5 118.5q0 57 -17.5 106.5t-49.5 87.5l-408 -426q36 -32 83.5 -49t101.5 -17zM187 155l408 427q-37 31 -83.5 48.5t-101.5 17.5q-62 0 -115 -22t-92.5 -62.5t-61 -95t-21.5 -118.5q0 -57 17.5 -106.5t49.5 -88.5zM384 757l96 123h68
l-96 -123h-68z" />
    <glyph glyph-name="oslashacute" unicode="&#x1ff;" horiz-adv-x="630" 
d="M270 577l96 123h68l-96 -123h-68zM315 -13q-49 0 -91 15.5t-74 42.5l-42 -45h-67l72 78q-30 35 -46.5 80t-16.5 97q0 75 34 136t94 96.5t137 35.5q47 0 87 -13.5t73 -38.5l36 39h67l-66 -72q32 -35 50 -82t18 -101q0 -75 -34.5 -136t-94 -96.5t-136.5 -35.5zM315 48
q57 0 101 27.5t68.5 74.5t24.5 105q0 39 -11.5 72.5t-32.5 59.5l-272 -295q24 -20 55 -32t67 -12zM160 129l271 294q-23 19 -53 29t-63 10q-58 0 -101.5 -27.5t-68 -74.5t-24.5 -105q0 -36 10 -68.5t29 -57.5z" />
    <glyph glyph-name="uni0200" unicode="&#x200;" horiz-adv-x="685" 
d="M3 0l244 639q15 39 38.5 56.5t55.5 17.5q33 0 57 -17t38 -56l246 -640h-79l-70 184h-384l-70 -184h-76zM171 248h340l-136 367q-6 16 -13.5 25t-19.5 9q-13 0 -19.5 -9t-13.5 -25zM406 757l-104 140h63l104 -140h-63zM251 757l-104 140h63l104 -140h-63z" />
    <glyph glyph-name="uni0201" unicode="&#x201;" horiz-adv-x="638" 
d="M295 -13q-77 0 -132 36t-84 96.5t-29 135.5q0 76 32 136.5t91.5 95.5t141.5 35q79 0 136.5 -35t89 -94t31.5 -133v-260h-69v114h-3q-14 -30 -42 -59.5t-68.5 -48.5t-94.5 -19zM310 47q56 0 99 27.5t68 75t24 107.5q0 59 -23 105t-65 73t-100 27q-60 0 -103 -27.5t-66 -75
t-23 -107.5q0 -56 22 -103t64.5 -74.5t102.5 -27.5zM378 577l-104 140h63l104 -140h-63zM223 577l-104 140h63l104 -140h-63z" />
    <glyph glyph-name="uni0202" unicode="&#x202;" horiz-adv-x="685" 
d="M345 869q34 0 60.5 -15.5t41 -43t14.5 -64.5h-44q0 37 -20 59t-52 22t-52 -22t-20 -59h-45q0 37 15 64.5t41.5 43t60.5 15.5zM3 0l244 639q15 39 38.5 56.5t55.5 17.5q33 0 57 -17t38 -56l246 -640h-79l-70 184h-384l-70 -184h-76zM171 248h340l-136 367q-6 16 -13.5 25
t-19.5 9q-13 0 -19.5 -9t-13.5 -25z" />
    <glyph glyph-name="uni0203" unicode="&#x203;" horiz-adv-x="638" 
d="M319 694q33 0 59.5 -15.5t41.5 -43t15 -64.5h-45q0 37 -19.5 59t-51.5 22t-52 -22t-20 -59h-46q0 37 15.5 64.5t42 43t60.5 15.5zM295 -13q-77 0 -132 36t-84 96.5t-29 135.5q0 76 32 136.5t91.5 95.5t141.5 35q79 0 136.5 -35t89 -94t31.5 -133v-260h-69v114h-3
q-14 -30 -42 -59.5t-68.5 -48.5t-94.5 -19zM310 47q56 0 99 27.5t68 75t24 107.5q0 59 -23 105t-65 73t-100 27q-60 0 -103 -27.5t-66 -75t-23 -107.5q0 -56 22 -103t64.5 -74.5t102.5 -27.5z" />
    <glyph glyph-name="uni0204" unicode="&#x204;" horiz-adv-x="558" 
d="M242 0q-58 0 -101 27t-66.5 71.5t-23.5 94.5t25.5 94.5t74.5 67.5q-49 25 -72.5 66.5t-23.5 87.5q0 53 25 96t67 68.5t94 25.5h271v-64h-263q-35 0 -62.5 -16.5t-43.5 -45.5t-16 -64q0 -32 17 -60t45 -44.5t64 -16.5h222v-64h-216q-43 0 -73.5 -19t-46 -49t-15.5 -64
q0 -33 15 -62t44 -47.5t70 -18.5h259v-64h-270zM379 757l-104 140h63l104 -140h-63zM224 757l-104 140h63l104 -140h-63z" />
    <glyph glyph-name="uni0205" unicode="&#x205;" horiz-adv-x="573" 
d="M336 0q-82 0 -146.5 30.5t-102 87.5t-37.5 137q0 74 30 134.5t84.5 96.5t127.5 36q75 0 127 -33t79 -89t27 -126q0 -10 -1 -22t-3 -21h-397q3 -56 32 -94t75.5 -57t100.5 -19h129v-61h-125zM124 281h330q0 20 -4 44.5t-14.5 48.5t-29 44t-47 32.5t-69.5 12.5
q-38 0 -69 -16t-52 -42.5t-32.5 -58.5t-12.5 -65zM364 577l-104 140h63l104 -140h-63zM209 577l-104 140h63l104 -140h-63z" />
    <glyph glyph-name="uni0206" unicode="&#x206;" horiz-adv-x="558" 
d="M311 869q34 0 60.5 -15.5t41.5 -43t15 -64.5h-45q0 37 -20 59t-52 22q-31 0 -51 -22t-20 -59h-46q0 37 15 64.5t42 43t60 15.5zM242 0q-58 0 -101 27t-66.5 71.5t-23.5 94.5t25.5 94.5t74.5 67.5q-49 25 -72.5 66.5t-23.5 87.5q0 53 25 96t67 68.5t94 25.5h271v-64h-263
q-35 0 -62.5 -16.5t-43.5 -45.5t-16 -64q0 -32 17 -60t45 -44.5t64 -16.5h222v-64h-216q-43 0 -73.5 -19t-46 -49t-15.5 -64q0 -33 15 -62t44 -47.5t70 -18.5h259v-64h-270z" />
    <glyph glyph-name="uni0207" unicode="&#x207;" horiz-adv-x="573" 
d="M297 694q34 0 60.5 -15.5t41 -43t14.5 -64.5h-44q0 37 -20 59t-52 22t-52 -22t-20 -59h-45q0 37 15 64.5t41.5 43t60.5 15.5zM336 0q-82 0 -146.5 30.5t-102 87.5t-37.5 137q0 74 30 134.5t84.5 96.5t127.5 36q75 0 127 -33t79 -89t27 -126q0 -10 -1 -22t-3 -21h-397
q3 -56 32 -94t75.5 -57t100.5 -19h129v-61h-125zM124 281h330q0 20 -4 44.5t-14.5 48.5t-29 44t-47 32.5t-69.5 12.5q-38 0 -69 -16t-52 -42.5t-32.5 -58.5t-12.5 -65z" />
    <glyph glyph-name="uni0208" unicode="&#x208;" horiz-adv-x="454" 
d="M52 0v64h139v572h-139v64h350v-64h-139v-572h139v-64h-350zM303 757l-104 140h63l104 -140h-63zM148 757l-104 140h63l104 -140h-63z" />
    <glyph glyph-name="uni0209" unicode="&#x209;" horiz-adv-x="224" 
d="M77 0v510h70v-510h-70zM173 577l-104 140h63l104 -140h-63zM18 577l-104 140h63l104 -140h-63z" />
    <glyph glyph-name="uni020A" unicode="&#x20a;" horiz-adv-x="454" 
d="M228 870q34 0 60.5 -15.5t41.5 -43t15 -64.5h-45q0 37 -20 59t-52 22q-31 0 -51.5 -22t-20.5 -59h-45q0 37 15 64.5t42 43t60 15.5zM52 0v64h139v572h-139v64h350v-64h-139v-572h139v-64h-350z" />
    <glyph glyph-name="uni020B" unicode="&#x20b;" horiz-adv-x="224" 
d="M113 864q34 0 60 -15.5t41.5 -43t15.5 -64.5h-45q0 37 -20 59t-52 22q-31 0 -51.5 -22t-20.5 -59h-45q0 37 15 64.5t42 43t60 15.5zM77 0v510h70v-510h-70zM112 602q-20 0 -35 15t-15 35t15 35t35 15q21 0 35.5 -15t14.5 -35t-14.5 -35t-35.5 -15z" />
    <glyph glyph-name="uni020C" unicode="&#x20c;" horiz-adv-x="820" 
d="M410 -13q-82 0 -149 28t-114.5 78t-73 116t-25.5 141t25.5 141t73 116t114.5 78t149 28q83 0 149.5 -28t114 -78t73 -116t25.5 -141t-25.5 -141t-73 -116t-114 -78t-149.5 -28zM410 52q63 0 116 22t92 62.5t60.5 95t21.5 118.5q0 65 -21.5 119t-60.5 94.5t-92 63
t-116 22.5q-62 0 -115 -22.5t-92.5 -63t-61 -95t-21.5 -118.5t21.5 -118.5t61 -95t92.5 -62.5t115 -22zM480 757l-104 140h63l104 -140h-63zM325 757l-104 140h63l104 -140h-63z" />
    <glyph glyph-name="uni020D" unicode="&#x20d;" horiz-adv-x="630" 
d="M315 -13q-77 0 -137 35.5t-94 96.5t-34 136t34 136t94 96.5t137 35.5t136.5 -35.5t94 -96t34.5 -136.5q0 -75 -34.5 -136t-94 -96.5t-136.5 -35.5zM315 48q57 0 101 27.5t68.5 74.5t24.5 105t-24.5 105t-68.5 74.5t-101 27.5q-58 0 -101.5 -27.5t-68 -74.5t-24.5 -105
t24.5 -105t68 -74.5t101.5 -27.5zM382 577l-104 140h63l104 -140h-63zM227 577l-104 140h63l104 -140h-63z" />
    <glyph glyph-name="uni020E" unicode="&#x20e;" horiz-adv-x="820" 
d="M410 869q33 0 59.5 -15.5t41.5 -43t15 -64.5h-45q0 37 -19.5 59t-51.5 22t-52 -22t-20 -59h-46q0 37 15.5 64.5t42 43t60.5 15.5zM410 -13q-82 0 -149 28t-114.5 78t-73 116t-25.5 141t25.5 141t73 116t114.5 78t149 28q83 0 149.5 -28t114 -78t73 -116t25.5 -141
t-25.5 -141t-73 -116t-114 -78t-149.5 -28zM410 52q63 0 116 22t92 62.5t60.5 95t21.5 118.5q0 65 -21.5 119t-60.5 94.5t-92 63t-116 22.5q-62 0 -115 -22.5t-92.5 -63t-61 -95t-21.5 -118.5t21.5 -118.5t61 -95t92.5 -62.5t115 -22z" />
    <glyph glyph-name="uni020F" unicode="&#x20f;" horiz-adv-x="630" 
d="M316 694q33 0 59.5 -15t41.5 -42.5t15 -65.5h-45q0 37 -19.5 59t-51.5 22t-52 -22t-20 -59h-46q0 38 15.5 65.5t42 42.5t60.5 15zM315 -13q-77 0 -137 35.5t-94 96.5t-34 136t34 136t94 96.5t137 35.5t136.5 -35.5t94 -96t34.5 -136.5q0 -75 -34.5 -136t-94 -96.5
t-136.5 -35.5zM315 48q57 0 101 27.5t68.5 74.5t24.5 105t-24.5 105t-68.5 74.5t-101 27.5q-58 0 -101.5 -27.5t-68 -74.5t-24.5 -105t24.5 -105t68 -74.5t101.5 -27.5z" />
    <glyph glyph-name="uni0210" unicode="&#x210;" horiz-adv-x="675" 
d="M79 0v700h304q64 0 117 -28t84.5 -78t31.5 -116q0 -71 -37 -124t-99 -78l79 -171q10 -21 22 -30.5t33 -9.5h42v-65h-52q-38 0 -65 19t-45 54l-86 186q-12 -1 -24.5 -2t-24.5 -1h-208v-256h-72zM151 320h220q48 0 87 18.5t62.5 54t23.5 85.5q0 49 -23.5 85t-62 54.5
t-84.5 18.5h-223v-316zM381 757l-104 140h63l104 -140h-63zM226 757l-104 140h63l104 -140h-63z" />
    <glyph glyph-name="uni0211" unicode="&#x211;" horiz-adv-x="345" 
d="M121 577l-94 130h62l95 -130h-63zM277 577l-95 130h63l95 -130h-63zM75 0v365q0 68 38.5 106.5t106.5 38.5h88v-61h-74q-44 0 -66.5 -24t-22.5 -68v-357h-70z" />
    <glyph glyph-name="uni0212" unicode="&#x212;" horiz-adv-x="675" 
d="M329 869q33 0 59.5 -15.5t41.5 -43t15 -64.5h-45q0 37 -19.5 59t-51.5 22t-52 -22t-20 -59h-46q0 37 15.5 64.5t42 43t60.5 15.5zM79 0v700h304q64 0 117 -28t84.5 -78t31.5 -116q0 -71 -37 -124t-99 -78l79 -171q10 -21 22 -30.5t33 -9.5h42v-65h-52q-38 0 -65 19
t-45 54l-86 186q-12 -1 -24.5 -2t-24.5 -1h-208v-256h-72zM151 320h220q48 0 87 18.5t62.5 54t23.5 85.5q0 49 -23.5 85t-62 54.5t-84.5 18.5h-223v-316z" />
    <glyph glyph-name="uni0213" unicode="&#x213;" horiz-adv-x="321" 
d="M188 695q33 0 59.5 -15.5t41.5 -43t15 -65.5h-45q0 38 -19.5 60t-51.5 22t-52 -22t-20 -60h-46q0 38 15 65.5t42 43t61 15.5zM75 0v365q0 68 38.5 106.5t106.5 38.5h88v-61h-74q-44 0 -66.5 -24t-22.5 -68v-357h-70z" />
    <glyph glyph-name="uni0214" unicode="&#x214;" 
d="M348 -13q-79 0 -140 34.5t-96 97.5t-35 150v431h72v-441q0 -57 24.5 -103.5t69 -75t105.5 -28.5q62 0 106.5 28t68.5 75t24 104v441h72v-431q0 -87 -35 -150t-96 -97.5t-140 -34.5zM415 757l-104 140h63l104 -140h-63zM260 757l-104 140h63l104 -140h-63z" />
    <glyph glyph-name="uni0215" unicode="&#x215;" horiz-adv-x="621" 
d="M310 -13q-64 0 -117 27.5t-84.5 78.5t-31.5 120v297h70v-294q0 -53 23.5 -91t60.5 -57.5t79 -19.5q43 0 80.5 20t60.5 57.5t23 90.5v294h70v-297q0 -69 -31.5 -120t-84 -78.5t-118.5 -27.5zM378 577l-104 140h63l104 -140h-63zM223 577l-104 140h63l104 -140h-63z" />
    <glyph glyph-name="uni0216" unicode="&#x216;" 
d="M348 869q33 0 59.5 -15.5t41.5 -43t15 -64.5h-45q0 37 -19.5 59t-51.5 22t-52 -22t-20 -59h-46q0 37 15.5 64.5t42 43t60.5 15.5zM348 -13q-79 0 -140 34.5t-96 97.5t-35 150v431h72v-441q0 -57 24.5 -103.5t69 -75t105.5 -28.5q62 0 106.5 28.5t68.5 75t24 103.5v441h72
v-431q0 -87 -35 -150t-96 -97.5t-140 -34.5z" />
    <glyph glyph-name="uni0217" unicode="&#x217;" horiz-adv-x="621" 
d="M311 694q34 0 60.5 -15t41 -42.5t14.5 -65.5h-44q0 37 -20 59t-52 22t-52 -22t-20 -59h-45q0 38 15 65.5t41.5 42.5t60.5 15zM310 -13q-64 0 -117 27.5t-84.5 78.5t-31.5 120v297h70v-294q0 -53 23.5 -91t60.5 -57.5t79 -19.5q43 0 80.5 20t60.5 57.5t23 90.5v294h70
v-297q0 -69 -31.5 -120t-84 -78.5t-118.5 -27.5z" />
    <glyph glyph-name="uni0218" unicode="&#x218;" horiz-adv-x="626" 
d="M74 0v64h305q41 0 70.5 19t44.5 49.5t15 63.5t-14.5 62t-43 47t-68.5 18h-140q-60 0 -103.5 24.5t-67 66.5t-23.5 94t23.5 95.5t67 70t103.5 26.5h293v-64h-288q-39 0 -67.5 -18t-44 -46.5t-15.5 -59.5t14.5 -59t42 -45.5t67.5 -17.5h141q63 0 106.5 -25t66 -67.5
t22.5 -93.5q0 -57 -23.5 -103.5t-67 -73.5t-104.5 -27h-312zM276 -260l36 124q-16 4 -24 16.5t-8 26.5q0 20 13.5 32.5t32.5 12.5q21 0 33 -14.5t12 -32.5t-10 -45l-37 -120h-48z" />
    <glyph glyph-name="uni0219" unicode="&#x219;" horiz-adv-x="522" 
d="M66 0v61h240q31 0 52 13t32.5 34t11.5 43t-10 40.5t-29 30.5t-48 12h-107q-49 0 -84.5 16.5t-54 47.5t-18.5 72q0 37 18 69t51 51.5t77 19.5h231v-61h-224q-39 0 -61 -23.5t-22 -53.5q0 -29 22 -52t66 -23h100q54 0 90.5 -18t55 -50t18.5 -75q0 -39 -20 -74.5
t-54.5 -57.5t-80.5 -22h-252zM209 -293l36 124q-16 4 -24 16.5t-8 26.5q0 20 13.5 32.5t32.5 12.5q21 0 33 -14.5t12 -32.5t-10 -45l-37 -120h-48z" />
    <glyph glyph-name="uni021A" unicode="&#x21a;" horiz-adv-x="570" 
d="M422 0q-53 0 -92 22.5t-60 62.5t-21 91v460h-222v64h516v-64h-222v-470q0 -44 27.5 -73t74.5 -29h44v-64h-45zM279 -274l36 124q-16 4 -24 16.5t-8 26.5q0 20 13.5 32.5t32.5 12.5q21 0 33 -14.5t12 -32.5t-10 -45l-37 -120h-48z" />
    <glyph glyph-name="uni021B" unicode="&#x21b;" horiz-adv-x="401" 
d="M250 0q-68 0 -106.5 39t-38.5 106v493h70v-485q0 -44 22.5 -68t66.5 -24h98v-61h-112zM16 449v61h348v-61h-348zM171 -293l36 124q-16 4 -24 16.5t-8 26.5q0 20 13.5 32.5t32.5 12.5q21 0 33 -14.5t12 -32.5t-10 -45l-37 -120h-48z" />
    <glyph glyph-name="uni022A" unicode="&#x22a;" horiz-adv-x="820" 
d="M499 760q-18 0 -31 13t-13 31t13 31t31 13q17 0 30.5 -13t13.5 -31t-13.5 -31t-30.5 -13zM322 760q-18 0 -31 13t-13 31t13 31t31 13q17 0 30.5 -13t13.5 -31t-13.5 -31t-30.5 -13zM410 -13q-82 0 -149 28t-114.5 78t-73 116t-25.5 141t25.5 141t73 116t114.5 78t149 28
q83 0 149.5 -28t114 -78t73 -116t25.5 -141t-25.5 -141t-73 -116t-114 -78t-149.5 -28zM410 52q63 0 116 22t92 62.5t60.5 95t21.5 118.5q0 65 -21.5 119t-60.5 94.5t-92 63t-116 22.5q-62 0 -115 -22.5t-92.5 -63t-61 -94.5t-21.5 -119q0 -64 21.5 -118.5t61 -95
t92.5 -62.5t115 -22zM262 903v49h288v-49h-288z" />
    <glyph glyph-name="uni022B" unicode="&#x22b;" horiz-adv-x="630" 
d="M400 605q-18 0 -31 13t-13 31t13 31t31 13t31 -13t13 -31t-13 -31t-31 -13zM223 605q-18 0 -31 13t-13 31t13 31t31 13t31 -13t13 -31t-13 -31t-31 -13zM315 -13q-77 0 -137 35.5t-94 96.5t-34 136t34 136t94 96.5t137 35.5t136.5 -35.5t94 -96t34.5 -136.5
q0 -75 -34.5 -136t-94 -96.5t-136.5 -35.5zM315 48q57 0 101 27.5t68.5 74.5t24.5 105t-24.5 105t-68.5 74.5t-101 27.5q-58 0 -101.5 -27.5t-68 -74.5t-24.5 -105t24.5 -105t68 -74.5t101.5 -27.5zM166 759v49h288v-49h-288z" />
    <glyph glyph-name="uni022C" unicode="&#x22c;" horiz-adv-x="820" 
d="M410 -13q-82 0 -149 28t-114.5 78t-73 116t-25.5 141t25.5 141t73 116t114.5 78t149 28q83 0 149.5 -28t114 -78t73 -116t25.5 -141t-25.5 -141t-73 -116t-114 -78t-149.5 -28zM410 52q63 0 116 22t92 62.5t60.5 95t21.5 118.5q0 65 -21.5 119t-60.5 94.5t-92 63
t-116 22.5q-62 0 -115 -22.5t-92.5 -63t-61 -95t-21.5 -118.5t21.5 -118.5t61 -95t92.5 -62.5t115 -22zM479 747q-26 0 -43 8.5t-27.5 22t-20.5 25.5q-10 14 -21.5 24.5t-29.5 10.5q-17 0 -29.5 -15t-12.5 -42v-24h-48v23q0 50 27 77.5t65 27.5q34 0 54 -16.5t33 -33.5
q12 -15 23.5 -27.5t31.5 -12.5q17 0 30 14.5t13 42.5v24h48v-23q0 -50 -27.5 -78t-65.5 -28zM263 926v49h288v-49h-288z" />
    <glyph glyph-name="uni022D" unicode="&#x22d;" horiz-adv-x="630" 
d="M315 -13q-77 0 -137 35.5t-94 96.5t-34 136t34 136t94 96.5t137 35.5t136.5 -35.5t94 -96t34.5 -136.5q0 -75 -34.5 -136t-94 -96.5t-136.5 -35.5zM315 48q57 0 101 27.5t68.5 74.5t24.5 105t-24.5 105t-68.5 74.5t-101 27.5q-58 0 -101.5 -27.5t-68 -74.5t-24.5 -105
t24.5 -105t68 -74.5t101.5 -27.5zM382 579q-26 0 -43 8.5t-27.5 22t-20.5 25.5q-10 14 -21.5 24.5t-29.5 10.5q-17 0 -29.5 -15t-12.5 -42v-24h-48v23q0 50 27 77.5t65 27.5q34 0 54 -16.5t33 -33.5q12 -15 23.5 -27.5t31.5 -12.5q17 0 30 14.5t13 42.5v24h48v-23
q0 -50 -27.5 -78t-65.5 -28zM167 782v49h288v-49h-288z" />
    <glyph glyph-name="uni0230" unicode="&#x230;" horiz-adv-x="820" 
d="M410 -13q-82 0 -149 28t-114.5 78t-73 116t-25.5 141t25.5 141t73 116t114.5 78t149 28q83 0 149.5 -28t114 -78t73 -116t25.5 -141t-25.5 -141t-73 -116t-114 -78t-149.5 -28zM410 52q63 0 116 22t92 62.5t60.5 95t21.5 118.5q0 65 -21.5 119t-60.5 94.5t-92 63
t-116 22.5q-62 0 -115 -22.5t-92.5 -63t-61 -95t-21.5 -118.5t21.5 -118.5t61 -95t92.5 -62.5t115 -22zM410 760q-20 0 -35 15t-15 35q0 21 15 35.5t35 14.5q21 0 35.5 -14.5t14.5 -35.5q0 -20 -14.5 -35t-35.5 -15zM266 910v49h288v-49h-288z" />
    <glyph glyph-name="uni0231" unicode="&#x231;" horiz-adv-x="630" 
d="M315 -13q-77 0 -137 35.5t-94 96.5t-34 136t34 136t94 96.5t137 35.5t136.5 -35.5t94 -96t34.5 -136.5q0 -75 -34.5 -136t-94 -96.5t-136.5 -35.5zM315 48q57 0 101 27.5t68.5 74.5t24.5 105t-24.5 105t-68.5 74.5t-101 27.5q-58 0 -101.5 -27.5t-68 -74.5t-24.5 -105
t24.5 -105t68 -74.5t101.5 -27.5zM314 601q-20 0 -35 15t-15 35q0 21 15 35.5t35 14.5q21 0 35.5 -14.5t14.5 -35.5q0 -20 -14.5 -35t-35.5 -15zM171 767v49h288v-49h-288z" />
    <glyph glyph-name="uni0232" unicode="&#x232;" 
d="M311 0v207q-76 8 -128.5 46.5t-79 99.5t-26.5 134v212h72v-219q0 -56 23 -104t68 -77.5t108 -29.5q64 0 108 29.5t67.5 77.5t23.5 104v219h72v-212q0 -73 -27 -134t-79.5 -100t-129.5 -46v-207h-72zM187 767v49h288v-49h-288z" />
    <glyph glyph-name="uni0233" unicode="&#x233;" horiz-adv-x="621" 
d="M276 -203v193q-56 7 -101 35.5t-71.5 76.5t-26.5 111v297h70v-294q0 -53 23.5 -91t60.5 -57.5t79 -19.5q43 0 80.5 20t61 57.5t23.5 90.5v294h69v-297q0 -64 -26.5 -111.5t-71.5 -76t-100 -34.5v-194h-70zM169 608v49h288v-49h-288z" />
    <glyph glyph-name="uni0237" unicode="&#x237;" horiz-adv-x="224" 
d="M-78 -147l1 61h65q45 0 67 24t22 68v504h70v-512q0 -67 -38.5 -106t-106.5 -39h-80z" />
    <glyph glyph-name="uni0259" unicode="&#x259;" horiz-adv-x="574" 
d="M238 510q83 0 147.5 -30.5t102 -87.5t37.5 -137q0 -74 -30 -134.5t-84.5 -96.5t-127.5 -36q-75 0 -127 33t-79 89.5t-27 125.5q0 11 1 22.5t2 20.5h398q-3 56 -32.5 94t-75.5 57t-101 19h-129v61h125zM451 229h-330q0 -20 3.5 -44.5t14 -48.5t29 -44t47.5 -32.5t69 -12.5
q39 0 69.5 16t52 42.5t33 58.5t12.5 65z" />
    <glyph glyph-name="uni02B9" unicode="&#x2b9;" horiz-adv-x="220" 
d="M75 419v281h70v-281h-70z" />
    <glyph glyph-name="uni02BA" unicode="&#x2ba;" horiz-adv-x="411" 
d="M266 419v281h70v-281h-70zM75 419v281h70v-281h-70z" />
    <glyph glyph-name="uni02BC" unicode="&#x2bc;" horiz-adv-x="220" 
d="M49 419l60 281h70l-60 -281h-70z" />
    <glyph glyph-name="circumflex" unicode="&#x2c6;" horiz-adv-x="279" 
d="M3 757l96 123h83l96 -123h-61l-77 93l-76 -93h-61z" />
    <glyph glyph-name="caron" unicode="&#x2c7;" horiz-adv-x="281" 
d="M99 757l-96 123h61l76 -93l77 93h61l-96 -123h-83z" />
    <glyph glyph-name="uni02C9" unicode="&#x2c9;" horiz-adv-x="310" 
d="M-20 615v52h350v-52h-350z" />
    <glyph glyph-name="breve" unicode="&#x2d8;" horiz-adv-x="250" 
d="M125 753q-33 0 -60 15.5t-42 43.5t-15 64h46q0 -37 20 -59t51 -22q32 0 52 22t20 59h45q0 -36 -15 -64t-41.5 -43.5t-60.5 -15.5z" />
    <glyph glyph-name="dotaccent" unicode="&#x2d9;" horiz-adv-x="155" 
d="M78 694q-20 0 -35 15t-15 35q0 21 15 35.5t35 14.5q21 0 35.5 -14.5t14.5 -35.5q0 -20 -14.5 -35t-35.5 -15z" />
    <glyph glyph-name="ring" unicode="&#x2da;" horiz-adv-x="195" 
d="M97 736q-40 0 -67.5 27.5t-27.5 67.5t27.5 67.5t67.5 27.5t67.5 -27.5t27.5 -67.5t-27.5 -67.5t-67.5 -27.5zM97 772q25 0 42 17t17 42t-17 42t-42 17q-24 0 -41.5 -17t-17.5 -42t17.5 -42t41.5 -17z" />
    <glyph glyph-name="ogonek" unicode="&#x2db;" horiz-adv-x="191" 
d="M133 -218q-55 0 -90.5 27.5t-35.5 82.5q0 30 16 62.5t37 61.5t38 48t20 22l25 -15q-2 -3 -15.5 -20.5t-30 -43t-28.5 -53.5t-12 -54q0 -32 21 -51t56 -19q12 0 24 2.5t26 6.5v-49q-6 -2 -20.5 -5t-30.5 -3z" />
    <glyph glyph-name="tilde" unicode="&#x2dc;" horiz-adv-x="325" 
d="M232 747q-26 0 -43 8.5t-27.5 22t-20.5 25.5q-10 14 -21.5 24.5t-29.5 10.5q-17 0 -29.5 -15t-12.5 -42v-24h-48v23q0 50 27 77.5t65 27.5q34 0 54 -16.5t33 -33.5q12 -15 23.5 -27.5t31.5 -12.5q17 0 30 14.5t13 42.5v24h48v-23q0 -50 -27.5 -78t-65.5 -28z" />
    <glyph glyph-name="hungarumlaut" unicode="&#x2dd;" horiz-adv-x="327" 
d="M163 757l90 123h63l-90 -123h-63zM7 757l90 123h63l-90 -123h-63z" />
    <glyph glyph-name="gravecomb" unicode="&#x300;" horiz-adv-x="0" 
d="M92 577l-96 123h68l96 -123h-68z" />
    <glyph glyph-name="acutecomb" unicode="&#x301;" horiz-adv-x="0" 
d="M29 577l96 123h68l-96 -123h-68z" />
    <glyph glyph-name="uni0302" unicode="&#x302;" horiz-adv-x="0" 
d="M3 577l96 123h83l96 -123h-61l-77 93l-76 -93h-61z" />
    <glyph glyph-name="tildecomb" unicode="&#x303;" horiz-adv-x="0" 
d="M232 570q-26 0 -43 8.5t-27.5 22t-20.5 25.5q-10 14 -21.5 24.5t-29.5 10.5q-17 0 -29.5 -15t-12.5 -42v-24h-48v23q0 50 27 77.5t65 27.5q34 0 54 -16.5t33 -33.5q12 -15 23.5 -27.5t31.5 -12.5q17 0 30 14.5t13 42.5v24h48v-23q0 -50 -27.5 -78t-65.5 -28z" />
    <glyph glyph-name="uni0304" unicode="&#x304;" horiz-adv-x="0" 
d="M31 596v49h288v-49h-288z" />
    <glyph glyph-name="uni0306" unicode="&#x306;" horiz-adv-x="0" 
d="M125 573q-33 0 -60 15.5t-42 43.5t-15 64h46q0 -37 20 -59t51 -22q32 0 52 22t20 59h45q0 -36 -15 -64t-41.5 -43.5t-60.5 -15.5z" />
    <glyph glyph-name="uni0307" unicode="&#x307;" horiz-adv-x="0" 
d="M78 517q-20 0 -35 15t-15 35q0 21 15 35.5t35 14.5q21 0 35.5 -14.5t14.5 -35.5q0 -20 -14.5 -35t-35.5 -15z" />
    <glyph glyph-name="uni0308" unicode="&#x308;" horiz-adv-x="0" 
d="M266 802q-18 0 -31 13t-13 31t13 31t31 13t31 -13t13 -31t-13 -31t-31 -13zM89 802q-18 0 -31 13t-13 31t13 31t31 13t31 -13t13 -31t-13 -31t-31 -13z" />
    <glyph glyph-name="hookabovecomb" unicode="&#x309;" horiz-adv-x="0" 
d="M-143 757v28q20 0 42 8.5t37.5 24t15.5 35.5q0 19 -16 33t-57 14q-18 0 -32.5 -1.5t-22.5 -4.5v45q11 3 27.5 5t33.5 2q57 0 86 -21t29 -59q0 -35 -24 -59.5t-58 -37t-61 -12.5z" />
    <glyph glyph-name="uni030A" unicode="&#x30a;" horiz-adv-x="0" 
d="M97 523q-40 0 -67.5 27.5t-27.5 67.5t27.5 67.5t67.5 27.5t67.5 -27.5t27.5 -67.5t-27.5 -67.5t-67.5 -27.5zM97 559q25 0 42 17t17 42t-17 42t-42 17q-24 0 -41.5 -17t-17.5 -42t17.5 -42t41.5 -17z" />
    <glyph glyph-name="uni030B" unicode="&#x30b;" horiz-adv-x="0" 
d="M163 577l90 123h63l-90 -123h-63zM7 577l90 123h63l-90 -123h-63z" />
    <glyph glyph-name="uni030C" unicode="&#x30c;" horiz-adv-x="0" 
d="M99 577l-96 123h61l76 -93l77 93h61l-96 -123h-83z" />
    <glyph glyph-name="uni030F" unicode="&#x30f;" horiz-adv-x="0" 
d="M228 757l-104 140h63l104 -140h-63zM73 757l-104 140h63l104 -140h-63z" />
    <glyph glyph-name="uni0311" unicode="&#x311;" horiz-adv-x="0" 
d="M130 882q33 0 59.5 -15.5t41.5 -43t15 -64.5h-45q0 37 -19.5 59t-51.5 22t-52 -22t-20 -59h-46q0 37 15 64.5t42 43t61 15.5z" />
    <glyph glyph-name="uni0312" unicode="&#x312;" horiz-adv-x="0" 
d="M174 959l-35 -124q15 -4 23 -16.5t8 -26.5q0 -19 -13.5 -32t-31.5 -13q-21 0 -33 14.5t-12 32.5t9 45l37 120h48z" />
    <glyph glyph-name="uni031B" unicode="&#x31b;" horiz-adv-x="0" 
d="M18 449v44h36q25 0 39.5 16t15.5 46v22h60v-23q-1 -54 -28.5 -79.5t-82.5 -25.5h-40z" />
    <glyph glyph-name="dotbelowcomb" unicode="&#x323;" horiz-adv-x="0" 
d="M-63 -175q-20 0 -35 15t-15 35q0 21 15 35.5t35 14.5q21 0 35.5 -14.5t14.5 -35.5q0 -20 -14.5 -35t-35.5 -15z" />
    <glyph glyph-name="uni0324" unicode="&#x324;" horiz-adv-x="0" 
d="M-65 -136q-18 0 -31 13t-13 31t13 31t31 13t31 -13t13 -31t-13 -31t-31 -13zM-242 -136q-18 0 -31 13t-13 31t13 31t31 13t31 -13t13 -31t-13 -31t-31 -13z" />
    <glyph glyph-name="uni0326" unicode="&#x326;" horiz-adv-x="0" 
d="M-103 -260l36 124q-16 4 -24 16.5t-8 26.5q0 20 13.5 32.5t32.5 12.5q21 0 33 -14.5t12 -32.5t-10 -45l-37 -120h-48z" />
    <glyph glyph-name="uni0327" unicode="&#x327;" horiz-adv-x="0" 
d="M8 -203l92 221h70l-95 -221h-67z" />
    <glyph glyph-name="uni0328" unicode="&#x328;" horiz-adv-x="0" 
d="M133 -218q-55 0 -90.5 27.5t-35.5 82.5q0 30 16 62.5t37 61.5t38 48t20 22l25 -15q-2 -3 -15.5 -20.5t-30 -43t-28.5 -53.5t-12 -54q0 -32 21 -51t56 -19q12 0 24 2.5t26 6.5v-49q-6 -2 -20.5 -5t-30.5 -3z" />
    <glyph glyph-name="uni032E" unicode="&#x32e;" horiz-adv-x="0" 
d="M125 -173q-33 0 -60 15.5t-42 43.5t-15 64h46q0 -37 20 -59t51 -22q32 0 52 22t20 59h45q0 -36 -15 -64t-41.5 -43.5t-60.5 -15.5z" />
    <glyph glyph-name="uni0331" unicode="&#x331;" horiz-adv-x="0" 
d="M31 -136v49h288v-49h-288z" />
    <glyph glyph-name="uni0335" unicode="&#x335;" horiz-adv-x="0" 
d="M0 250v46h500v-46h-500z" />
    <glyph glyph-name="uni0394" unicode="&#x394;" horiz-adv-x="742" 
d="M138 0q-30 0 -49.5 11t-29 28.5t-9.5 37.5q0 12 4.5 27.5t10 29t8.5 20.5l214 493q16 35 36 50.5t49 15.5q30 0 50.5 -15t34.5 -51l213 -493q3 -7 8.5 -20.5t9.5 -29t4 -27.5q0 -20 -9 -37.5t-28.5 -28.5t-49.5 -11h-467zM165 61h414q24 0 32 15.5t2 32.5l-204 487
q-10 22 -16 32t-20 10q-13 0 -19.5 -10t-16.5 -32l-206 -487q-8 -17 1 -32.5t33 -15.5z" />
    <glyph glyph-name="uni03A9" unicode="&#x3a9;" horiz-adv-x="794" 
d="M30 0v61h181q-55 25 -96 70.5t-62.5 104t-21.5 123.5q0 73 26 137t74 112.5t114.5 76.5t147.5 28t148 -28t115 -76.5t74 -112.5t26 -137q0 -65 -22 -123.5t-62.5 -104t-96.5 -70.5h182v-61h-316v62q56 3 100.5 28t76 66t48.5 91t17 104q0 63 -21.5 117t-60.5 94.5t-92 63
t-116 22.5t-116 -22.5t-91.5 -63t-60 -94.5t-21.5 -117q0 -54 16.5 -104t48.5 -91t77 -66t100 -28v-62h-316z" />
    <glyph glyph-name="uni03BC" unicode="&#x3bc;" horiz-adv-x="621" 
d="M77 -203v713h70v-294q0 -53 23.5 -91t60.5 -57.5t79 -19.5q43 0 80.5 20t60.5 57.5t23 90.5v294h70v-297q0 -69 -30.5 -120t-83 -78.5t-116.5 -27.5q-53 0 -96.5 23t-69.5 66h-1v-279h-70z" />
    <glyph glyph-name="pi" unicode="&#x3c0;" horiz-adv-x="686" 
d="M606 0q-58 0 -88 26t-30 86v389h70v-377q0 -31 17 -48t51 -17h30v-59h-50zM128 0v501h70v-501h-70zM29 449v61h628v-61h-628z" />
    <glyph glyph-name="Wgrave" unicode="&#x1e80;" horiz-adv-x="1126" 
d="M337 -13q-77 0 -136 32t-92.5 92t-33.5 142v447h72v-453q0 -53 23 -97.5t66 -71t101 -26.5q59 0 101.5 26.5t65.5 71t23 97.5v453h72v-453q0 -53 23.5 -97.5t66 -71t100.5 -26.5q59 0 101.5 26.5t65.5 71t23 97.5v453h72v-447q0 -82 -33.5 -142t-92.5 -92t-136 -32
q-48 0 -93.5 15.5t-79.5 48t-53 81.5q-18 -49 -53 -81t-79.5 -48t-93.5 -16zM531 748l-96 123h68l96 -123h-68z" />
    <glyph glyph-name="wgrave" unicode="&#x1e81;" horiz-adv-x="975" 
d="M238 -13q-44 0 -81 18t-58.5 56t-21.5 99v350h70v-364q0 -34 13 -55.5t33.5 -32t44.5 -10.5q23 0 44 10.5t34 32.5t13 55v210q0 58 21.5 95t57.5 54.5t79 17.5t79 -17.5t57.5 -54.5t21.5 -95v-210q0 -33 13 -55t34.5 -32.5t45.5 -10.5q23 0 43.5 10.5t33.5 32.5t13 55
v364h70v-350q0 -61 -21.5 -99t-58 -56t-80.5 -18q-45 0 -82 18t-59 56t-22 99v206q0 35 -12.5 56t-32.5 30.5t-43 9.5q-22 0 -42 -9.5t-33 -30.5t-13 -56v-206q0 -61 -22 -99t-58 -56t-81 -18zM455 577l-96 123h68l96 -123h-68z" />
    <glyph glyph-name="Wacute" unicode="&#x1e82;" horiz-adv-x="1126" 
d="M337 -13q-77 0 -136 32t-92.5 92t-33.5 142v447h72v-453q0 -53 23 -97.5t66 -71t101 -26.5q59 0 101.5 26.5t65.5 71t23 97.5v453h72v-453q0 -53 23.5 -97.5t66 -71t100.5 -26.5q59 0 101.5 26.5t65.5 71t23 97.5v453h72v-447q0 -82 -33.5 -142t-92.5 -92t-136 -32
q-48 0 -93.5 15.5t-79.5 48t-53 81.5q-18 -49 -53 -81t-79.5 -48t-93.5 -16zM534 757l96 123h68l-96 -123h-68z" />
    <glyph glyph-name="wacute" unicode="&#x1e83;" horiz-adv-x="975" 
d="M238 -13q-44 0 -81 18t-58.5 56t-21.5 99v350h70v-364q0 -34 13 -55.5t33.5 -32t44.5 -10.5q23 0 44 10.5t34 32.5t13 55v210q0 58 21.5 95t57.5 54.5t79 17.5t79 -17.5t57.5 -54.5t21.5 -95v-210q0 -33 13 -55t34.5 -32.5t45.5 -10.5q23 0 43.5 10.5t33.5 32.5t13 55
v364h70v-350q0 -61 -21.5 -99t-58 -56t-80.5 -18q-45 0 -82 18t-59 56t-22 99v206q0 35 -12.5 56t-32.5 30.5t-43 9.5q-22 0 -42 -9.5t-33 -30.5t-13 -56v-206q0 -61 -22 -99t-58 -56t-81 -18zM451 577l96 123h68l-96 -123h-68z" />
    <glyph glyph-name="Wdieresis" unicode="&#x1e84;" horiz-adv-x="1126" 
d="M652 760q-18 0 -31 13t-13 31t13 31t31 13q17 0 30.5 -13t13.5 -31t-13.5 -31t-30.5 -13zM475 760q-18 0 -31 13t-13 31t13 31t31 13q17 0 30.5 -13t13.5 -31t-13.5 -31t-30.5 -13zM337 -13q-77 0 -136 32t-92.5 92t-33.5 142v447h72v-453q0 -53 23 -97.5t66 -71
t101 -26.5q59 0 101.5 26.5t65.5 71t23 97.5v453h72v-453q0 -53 23.5 -97.5t66 -71t100.5 -26.5q59 0 101.5 26.5t65.5 71t23 97.5v453h72v-447q0 -82 -33.5 -142t-92.5 -92t-136 -32q-48 0 -93.5 15.5t-79.5 48t-53 81.5q-18 -49 -53 -81t-79.5 -48t-93.5 -16z" />
    <glyph glyph-name="wdieresis" unicode="&#x1e85;" horiz-adv-x="975" 
d="M575 605q-18 0 -31 13t-13 31t13 31t31 13t31 -13t13 -31t-13 -31t-31 -13zM398 605q-18 0 -31 13t-13 31t13 31t31 13t31 -13t13 -31t-13 -31t-31 -13zM238 -13q-44 0 -81 18t-58.5 56t-21.5 99v350h70v-364q0 -34 13 -55.5t33.5 -32t44.5 -10.5q23 0 44 10.5t34 32.5
t13 55v210q0 58 21.5 95t57.5 54.5t79 17.5t79 -17.5t57.5 -54.5t21.5 -95v-210q0 -33 13 -55t34.5 -32.5t45.5 -10.5q23 0 43.5 10.5t33.5 32.5t13 55v364h70v-350q0 -61 -21.5 -99t-58 -56t-80.5 -18q-45 0 -82 18t-59 56t-22 99v206q0 35 -12.5 56t-32.5 30.5t-43 9.5
q-22 0 -42 -9.5t-33 -30.5t-13 -56v-206q0 -61 -22 -99t-58 -56t-81 -18z" />
    <glyph glyph-name="uni1E9E" unicode="&#x1e9e;" horiz-adv-x="697" 
d="M77 0v439q0 83 33 144.5t93 95.5t139 34q71 0 123.5 -27.5t86.5 -70.5t46 -91l-146 -135q98 -14 150 -67.5t52 -129.5q0 -52 -23.5 -95.5t-64.5 -70t-96 -26.5h-139v64h121q40 0 68.5 19t44.5 50t16 66q0 36 -17 67.5t-55.5 52.5t-103.5 23l-33 1v35l151 150
q-26 59 -74 89.5t-108 30.5q-59 0 -102 -26t-66.5 -71.5t-23.5 -105.5v-445h-72z" />
    <glyph glyph-name="uni1EA0" unicode="&#x1ea0;" horiz-adv-x="685" 
d="M3 0l244 639q15 39 38.5 56.5t55.5 17.5q33 0 57 -17t38 -56l246 -640h-79l-70 184h-384l-70 -184h-76zM171 248h340l-136 367q-6 16 -13.5 25t-19.5 9q-13 0 -19.5 -9t-13.5 -25zM347 -175q-20 0 -35 15t-15 35q0 21 15 35.5t35 14.5q21 0 35.5 -14.5t14.5 -35.5
q0 -20 -14.5 -35t-35.5 -15z" />
    <glyph glyph-name="uni1EA1" unicode="&#x1ea1;" horiz-adv-x="638" 
d="M295 -13q-77 0 -132 36t-84 96.5t-29 135.5q0 76 32 136.5t91.5 95.5t141.5 35q79 0 136.5 -35t89 -94t31.5 -133v-260h-69v114h-3q-14 -30 -42 -59.5t-68.5 -48.5t-94.5 -19zM310 47q56 0 99 27.5t68 75t24 107.5q0 59 -23 105t-65 73t-100 27q-60 0 -103 -27.5t-66 -75
t-23 -107.5q0 -56 22 -103t64.5 -74.5t102.5 -27.5zM331 -175q-20 0 -35 15t-15 35q0 21 15 35.5t35 14.5q21 0 35.5 -14.5t14.5 -35.5q0 -20 -14.5 -35t-35.5 -15z" />
    <glyph glyph-name="uni1EA2" unicode="&#x1ea2;" horiz-adv-x="685" 
d="M3 0l244 639q15 39 38.5 56.5t55.5 17.5q33 0 57 -17t38 -56l246 -640h-79l-70 184h-384l-70 -184h-76zM171 248h340l-136 367q-6 16 -13.5 25t-19.5 9q-13 0 -19.5 -9t-13.5 -25zM312 757v28q20 0 42 8.5t37.5 24t15.5 35.5q0 19 -16 33t-57 14q-18 0 -32.5 -1.5
t-22.5 -4.5v45q11 3 27.5 5t33.5 2q57 0 86 -21t29 -59q0 -35 -24 -59.5t-58 -37t-61 -12.5z" />
    <glyph glyph-name="uni1EA3" unicode="&#x1ea3;" horiz-adv-x="638" 
d="M295 -13q-77 0 -132 36t-84 96.5t-29 135.5q0 76 32 136.5t91.5 95.5t141.5 35q79 0 136.5 -35t89 -94t31.5 -133v-260h-69v114h-3q-14 -30 -42 -59.5t-68.5 -48.5t-94.5 -19zM310 47q56 0 99 27.5t68 75t24 107.5q0 59 -23 105t-65 73t-100 27q-60 0 -103 -27.5t-66 -75
t-23 -107.5q0 -56 22 -103t64.5 -74.5t102.5 -27.5zM268 569v28q20 0 42 8.5t37.5 24t15.5 35.5q0 19 -16 33t-57 14q-18 0 -32.5 -1.5t-22.5 -4.5v45q11 3 27.5 5t33.5 2q57 0 86 -21t29 -59q0 -35 -24 -59.5t-58 -37t-61 -12.5z" />
    <glyph glyph-name="uni1EA4" unicode="&#x1ea4;" horiz-adv-x="685" 
d="M3 0l244 639q15 39 38.5 56.5t55.5 17.5q33 0 57 -17t38 -56l246 -640h-79l-70 184h-384l-70 -184h-76zM171 248h340l-136 367q-6 16 -13.5 25t-19.5 9q-13 0 -19.5 -9t-13.5 -25zM205 757l96 123h83l96 -123h-61l-77 93l-76 -93h-61zM319 909l96 123h68l-96 -123h-68z
" />
    <glyph glyph-name="uni1EA5" unicode="&#x1ea5;" horiz-adv-x="638" 
d="M295 -13q-77 0 -132 36t-84 96.5t-29 135.5q0 76 32 136.5t91.5 95.5t141.5 35q79 0 136.5 -35t89 -94t31.5 -133v-260h-69v114h-3q-14 -30 -42 -59.5t-68.5 -48.5t-94.5 -19zM310 47q56 0 99 27.5t68 75t24 107.5q0 59 -23 105t-65 73t-100 27q-60 0 -103 -27.5t-66 -75
t-23 -107.5q0 -56 22 -103t64.5 -74.5t102.5 -27.5zM177 577l96 123h83l96 -123h-61l-77 93l-76 -93h-61zM294 748l96 123h68l-96 -123h-68z" />
    <glyph glyph-name="uni1EA6" unicode="&#x1ea6;" horiz-adv-x="685" 
d="M3 0l244 639q15 39 38.5 56.5t55.5 17.5q33 0 57 -17t38 -56l246 -640h-79l-70 184h-384l-70 -184h-76zM171 248h340l-136 367q-6 16 -13.5 25t-19.5 9q-13 0 -19.5 -9t-13.5 -25zM205 757l96 123h83l96 -123h-61l-77 93l-76 -93h-61zM301 909l-96 123h68l96 -123h-68z
" />
    <glyph glyph-name="uni1EA7" unicode="&#x1ea7;" horiz-adv-x="638" 
d="M295 -13q-77 0 -132 36t-84 96.5t-29 135.5q0 76 32 136.5t91.5 95.5t141.5 35q79 0 136.5 -35t89 -94t31.5 -133v-260h-69v114h-3q-14 -30 -42 -59.5t-68.5 -48.5t-94.5 -19zM310 47q56 0 99 27.5t68 75t24 107.5q0 59 -23 105t-65 73t-100 27q-60 0 -103 -27.5t-66 -75
t-23 -107.5q0 -56 22 -103t64.5 -74.5t102.5 -27.5zM177 577l96 123h83l96 -123h-61l-77 93l-76 -93h-61zM276 748l-96 123h68l96 -123h-68z" />
    <glyph glyph-name="uni1EA8" unicode="&#x1ea8;" horiz-adv-x="685" 
d="M3 0l244 639q15 39 38.5 56.5t55.5 17.5q33 0 57 -17t38 -56l246 -640h-79l-70 184h-384l-70 -184h-76zM171 248h340l-136 367q-6 16 -13.5 25t-19.5 9q-13 0 -19.5 -9t-13.5 -25zM205 757l96 123h83l96 -123h-61l-77 93l-76 -93h-61zM297 908v28q20 0 42 8.5t37.5 24
t15.5 35.5q0 19 -16 33t-57 14q-18 0 -32.5 -1.5t-22.5 -4.5v45q11 3 27.5 5t33.5 2q57 0 86 -21t29 -59q0 -35 -24 -59.5t-58 -37t-61 -12.5z" />
    <glyph glyph-name="uni1EA9" unicode="&#x1ea9;" horiz-adv-x="638" 
d="M295 -13q-77 0 -132 36t-84 96.5t-29 135.5q0 76 32 136.5t91.5 95.5t141.5 35q79 0 136.5 -35t89 -94t31.5 -133v-260h-69v114h-3q-14 -30 -42 -59.5t-68.5 -48.5t-94.5 -19zM310 47q56 0 99 27.5t68 75t24 107.5q0 59 -23 105t-65 73t-100 27q-60 0 -103 -27.5t-66 -75
t-23 -107.5q0 -56 22 -103t64.5 -74.5t102.5 -27.5zM177 577l96 123h83l96 -123h-61l-77 93l-76 -93h-61zM274 738v28q20 0 42 8.5t37.5 24t15.5 35.5q0 19 -16 33t-57 14q-18 0 -32.5 -1.5t-22.5 -4.5v45q11 3 27.5 5t33.5 2q57 0 86 -21t29 -59q0 -35 -24 -59.5t-58 -37
t-61 -12.5z" />
    <glyph glyph-name="uni1EAA" unicode="&#x1eaa;" horiz-adv-x="685" 
d="M3 0l244 639q15 39 38.5 56.5t55.5 17.5q33 0 57 -17t38 -56l246 -640h-79l-70 184h-384l-70 -184h-76zM171 248h340l-136 367q-6 16 -13.5 25t-19.5 9q-13 0 -19.5 -9t-13.5 -25zM205 757l96 123h83l96 -123h-61l-77 93l-76 -93h-61zM415 921q-26 0 -43 8.5t-27.5 22
t-20.5 25.5q-10 14 -21.5 24.5t-29.5 10.5q-17 0 -29.5 -15t-12.5 -42v-24h-48v23q0 50 27 77.5t65 27.5q34 0 54 -16.5t33 -33.5q12 -15 23.5 -27.5t31.5 -12.5q17 0 30 14.5t13 42.5v24h48v-23q0 -50 -27.5 -78t-65.5 -28z" />
    <glyph glyph-name="uni1EAB" unicode="&#x1eab;" horiz-adv-x="638" 
d="M295 -13q-77 0 -132 36t-84 96.5t-29 135.5q0 76 32 136.5t91.5 95.5t141.5 35q79 0 136.5 -35t89 -94t31.5 -133v-260h-69v114h-3q-14 -30 -42 -59.5t-68.5 -48.5t-94.5 -19zM310 47q56 0 99 27.5t68 75t24 107.5q0 59 -23 105t-65 73t-100 27q-60 0 -103 -27.5t-66 -75
t-23 -107.5q0 -56 22 -103t64.5 -74.5t102.5 -27.5zM177 577l96 123h83l96 -123h-61l-77 93l-76 -93h-61zM391 747q-26 0 -43 8.5t-27.5 22t-20.5 25.5q-10 14 -21.5 24.5t-29.5 10.5q-17 0 -29.5 -15t-12.5 -42v-24h-48v23q0 50 27 77.5t65 27.5q34 0 54 -16.5t33 -33.5
q12 -15 23.5 -27.5t31.5 -12.5q17 0 30 14.5t13 42.5v24h48v-23q0 -50 -27.5 -78t-65.5 -28z" />
    <glyph glyph-name="uni1EAC" unicode="&#x1eac;" horiz-adv-x="685" 
d="M3 0l244 639q15 39 38.5 56.5t55.5 17.5q33 0 57 -17t38 -56l246 -640h-79l-70 184h-384l-70 -184h-76zM171 248h340l-136 367q-6 16 -13.5 25t-19.5 9q-13 0 -19.5 -9t-13.5 -25zM205 757l96 123h83l96 -123h-61l-77 93l-76 -93h-61zM347 -175q-20 0 -35 15t-15 35
q0 21 15 35.5t35 14.5q21 0 35.5 -14.5t14.5 -35.5q0 -20 -14.5 -35t-35.5 -15z" />
    <glyph glyph-name="uni1EAD" unicode="&#x1ead;" horiz-adv-x="638" 
d="M295 -13q-77 0 -132 36t-84 96.5t-29 135.5q0 76 32 136.5t91.5 95.5t141.5 35q79 0 136.5 -35t89 -94t31.5 -133v-260h-69v114h-3q-14 -30 -42 -59.5t-68.5 -48.5t-94.5 -19zM310 47q56 0 99 27.5t68 75t24 107.5q0 59 -23 105t-65 73t-100 27q-60 0 -103 -27.5t-66 -75
t-23 -107.5q0 -56 22 -103t64.5 -74.5t102.5 -27.5zM177 577l96 123h83l96 -123h-61l-77 93l-76 -93h-61zM319 -180q-20 0 -35 15t-15 35q0 21 15 35.5t35 14.5q21 0 35.5 -14.5t14.5 -35.5q0 -20 -14.5 -35t-35.5 -15z" />
    <glyph glyph-name="uni1EAE" unicode="&#x1eae;" horiz-adv-x="685" 
d="M3 0l244 639q15 39 38.5 56.5t55.5 17.5q33 0 57 -17t38 -56l246 -640h-79l-70 184h-384l-70 -184h-76zM171 248h340l-136 367q-6 16 -13.5 25t-19.5 9q-13 0 -19.5 -9t-13.5 -25zM350 760q-33 0 -60 15.5t-42 43.5t-15 64h46q0 -37 20 -59t51 -22q32 0 52 22t20 59h45
q0 -36 -15 -64t-41.5 -43.5t-60.5 -15.5zM316 909l96 123h68l-96 -123h-68z" />
    <glyph glyph-name="uni1EAF" unicode="&#x1eaf;" horiz-adv-x="638" 
d="M295 -13q-77 0 -132 36t-84 96.5t-29 135.5q0 76 32 136.5t91.5 95.5t141.5 35q79 0 136.5 -35t89 -94t31.5 -133v-260h-69v114h-3q-14 -30 -42 -59.5t-68.5 -48.5t-94.5 -19zM310 47q56 0 99 27.5t68 75t24 107.5q0 59 -23 105t-65 73t-100 27q-60 0 -103 -27.5t-66 -75
t-23 -107.5q0 -56 22 -103t64.5 -74.5t102.5 -27.5zM319 573q-33 0 -60 15.5t-42 43.5t-15 64h46q0 -37 20 -59t51 -22q32 0 52 22t20 59h45q0 -36 -15 -64t-41.5 -43.5t-60.5 -15.5zM288 738l96 123h68l-96 -123h-68z" />
    <glyph glyph-name="uni1EB0" unicode="&#x1eb0;" horiz-adv-x="685" 
d="M3 0l244 639q15 39 38.5 56.5t55.5 17.5q33 0 57 -17t38 -56l246 -640h-79l-70 184h-384l-70 -184h-76zM171 248h340l-136 367q-6 16 -13.5 25t-19.5 9q-13 0 -19.5 -9t-13.5 -25zM350 760q-33 0 -60 15.5t-42 43.5t-15 64h46q0 -37 20 -59t51 -22q32 0 52 22t20 59h45
q0 -36 -15 -64t-41.5 -43.5t-60.5 -15.5zM309 908l-96 123h68l96 -123h-68z" />
    <glyph glyph-name="uni1EB1" unicode="&#x1eb1;" horiz-adv-x="638" 
d="M295 -13q-77 0 -132 36t-84 96.5t-29 135.5q0 76 32 136.5t91.5 95.5t141.5 35q79 0 136.5 -35t89 -94t31.5 -133v-260h-69v114h-3q-14 -30 -42 -59.5t-68.5 -48.5t-94.5 -19zM310 47q56 0 99 27.5t68 75t24 107.5q0 59 -23 105t-65 73t-100 27q-60 0 -103 -27.5t-66 -75
t-23 -107.5q0 -56 22 -103t64.5 -74.5t102.5 -27.5zM319 573q-33 0 -60 15.5t-42 43.5t-15 64h46q0 -37 20 -59t51 -22q32 0 52 22t20 59h45q0 -36 -15 -64t-41.5 -43.5t-60.5 -15.5zM288 738l-96 123h68l96 -123h-68z" />
    <glyph glyph-name="uni1EB2" unicode="&#x1eb2;" horiz-adv-x="685" 
d="M3 0l244 639q15 39 38.5 56.5t55.5 17.5q33 0 57 -17t38 -56l246 -640h-79l-70 184h-384l-70 -184h-76zM171 248h340l-136 367q-6 16 -13.5 25t-19.5 9q-13 0 -19.5 -9t-13.5 -25zM350 760q-33 0 -60 15.5t-42 43.5t-15 64h46q0 -37 20 -59t51 -22q32 0 52 22t20 59h45
q0 -36 -15 -64t-41.5 -43.5t-60.5 -15.5zM307 910v28q20 0 42 8.5t37.5 24t15.5 35.5q0 19 -16 33t-57 14q-18 0 -32.5 -1.5t-22.5 -4.5v45q11 3 27.5 5t33.5 2q57 0 86 -21t29 -59q0 -35 -24 -59.5t-58 -37t-61 -12.5z" />
    <glyph glyph-name="uni1EB3" unicode="&#x1eb3;" horiz-adv-x="638" 
d="M295 -13q-77 0 -132 36t-84 96.5t-29 135.5q0 76 32 136.5t91.5 95.5t141.5 35q79 0 136.5 -35t89 -94t31.5 -133v-260h-69v114h-3q-14 -30 -42 -59.5t-68.5 -48.5t-94.5 -19zM310 47q56 0 99 27.5t68 75t24 107.5q0 59 -23 105t-65 73t-100 27q-60 0 -103 -27.5t-66 -75
t-23 -107.5q0 -56 22 -103t64.5 -74.5t102.5 -27.5zM319 573q-33 0 -60 15.5t-42 43.5t-15 64h46q0 -37 20 -59t51 -22q32 0 52 22t20 59h45q0 -36 -15 -64t-41.5 -43.5t-60.5 -15.5zM279 727v28q20 0 42 8.5t37.5 24t15.5 35.5q0 19 -16 33t-57 14q-18 0 -32.5 -1.5
t-22.5 -4.5v45q11 3 27.5 5t33.5 2q57 0 86 -21t29 -59q0 -35 -24 -59.5t-58 -37t-61 -12.5z" />
    <glyph glyph-name="uni1EB4" unicode="&#x1eb4;" horiz-adv-x="685" 
d="M3 0l244 639q15 39 38.5 56.5t55.5 17.5q33 0 57 -17t38 -56l246 -640h-79l-70 184h-384l-70 -184h-76zM171 248h340l-136 367q-6 16 -13.5 25t-19.5 9q-13 0 -19.5 -9t-13.5 -25zM350 760q-33 0 -60 15.5t-42 43.5t-15 64h46q0 -37 20 -59t51 -22q32 0 52 22t20 59h45
q0 -36 -15 -64t-41.5 -43.5t-60.5 -15.5zM415 924q-26 0 -43 8.5t-27.5 22t-20.5 25.5q-10 14 -21.5 24.5t-29.5 10.5q-17 0 -29.5 -15t-12.5 -42v-24h-48v23q0 50 27 77.5t65 27.5q34 0 54 -16.5t33 -33.5q12 -15 23.5 -27.5t31.5 -12.5q17 0 30 14.5t13 42.5v24h48v-23
q0 -50 -27.5 -78t-65.5 -28z" />
    <glyph glyph-name="uni1EB5" unicode="&#x1eb5;" horiz-adv-x="638" 
d="M295 -13q-77 0 -132 36t-84 96.5t-29 135.5q0 76 32 136.5t91.5 95.5t141.5 35q79 0 136.5 -35t89 -94t31.5 -133v-260h-69v114h-3q-14 -30 -42 -59.5t-68.5 -48.5t-94.5 -19zM310 47q56 0 99 27.5t68 75t24 107.5q0 59 -23 105t-65 73t-100 27q-60 0 -103 -27.5t-66 -75
t-23 -107.5q0 -56 22 -103t64.5 -74.5t102.5 -27.5zM319 573q-33 0 -60 15.5t-42 43.5t-15 64h46q0 -37 20 -59t51 -22q32 0 52 22t20 59h45q0 -36 -15 -64t-41.5 -43.5t-60.5 -15.5zM388 743q-26 0 -43 8.5t-27.5 22t-20.5 25.5q-10 14 -21.5 24.5t-29.5 10.5
q-17 0 -29.5 -15t-12.5 -42v-24h-48v23q0 50 27 77.5t65 27.5q34 0 54 -16.5t33 -33.5q12 -15 23.5 -27.5t31.5 -12.5q17 0 30 14.5t13 42.5v24h48v-23q0 -50 -27.5 -78t-65.5 -28z" />
    <glyph glyph-name="uni1EB6" unicode="&#x1eb6;" horiz-adv-x="685" 
d="M3 0l244 639q15 39 38.5 56.5t55.5 17.5q33 0 57 -17t38 -56l246 -640h-79l-70 184h-384l-70 -184h-76zM171 248h340l-136 367q-6 16 -13.5 25t-19.5 9q-13 0 -19.5 -9t-13.5 -25zM347 -175q-20 0 -35 15t-15 35q0 21 15 35.5t35 14.5q21 0 35.5 -14.5t14.5 -35.5
q0 -20 -14.5 -35t-35.5 -15zM350 760q-33 0 -60 15.5t-42 43.5t-15 64h46q0 -37 20 -59t51 -22q32 0 52 22t20 59h45q0 -36 -15 -64t-41.5 -43.5t-60.5 -15.5z" />
    <glyph glyph-name="uni1EB7" unicode="&#x1eb7;" horiz-adv-x="638" 
d="M295 -13q-77 0 -132 36t-84 96.5t-29 135.5q0 76 32 136.5t91.5 95.5t141.5 35q79 0 136.5 -35t89 -94t31.5 -133v-260h-69v114h-3q-14 -30 -42 -59.5t-68.5 -48.5t-94.5 -19zM310 47q56 0 99 27.5t68 75t24 107.5q0 59 -23 105t-65 73t-100 27q-60 0 -103 -27.5t-66 -75
t-23 -107.5q0 -56 22 -103t64.5 -74.5t102.5 -27.5zM319 573q-33 0 -60 15.5t-42 43.5t-15 64h46q0 -37 20 -59t51 -22q32 0 52 22t20 59h45q0 -36 -15 -64t-41.5 -43.5t-60.5 -15.5zM321 -180q-20 0 -35 15t-15 35q0 21 15 35.5t35 14.5q21 0 35.5 -14.5t14.5 -35.5
q0 -20 -14.5 -35t-35.5 -15z" />
    <glyph glyph-name="uni1EB8" unicode="&#x1eb8;" horiz-adv-x="558" 
d="M242 0q-58 0 -101 27t-66.5 71.5t-23.5 94.5t25.5 94.5t74.5 67.5q-49 25 -72.5 66.5t-23.5 87.5q0 53 25 96t67 68.5t94 25.5h271v-64h-263q-35 0 -62.5 -16.5t-43.5 -45.5t-16 -64q0 -32 17 -60t45 -44.5t64 -16.5h222v-64h-216q-43 0 -73.5 -19t-46 -49t-15.5 -64
q0 -33 15 -62t44 -47.5t70 -18.5h259v-64h-270zM312 -175q-20 0 -35 15t-15 35q0 21 15 35.5t35 14.5q21 0 35.5 -14.5t14.5 -35.5q0 -20 -14.5 -35t-35.5 -15z" />
    <glyph glyph-name="uni1EB9" unicode="&#x1eb9;" horiz-adv-x="573" 
d="M336 0q-82 0 -146.5 30.5t-102 87.5t-37.5 137q0 74 30 134.5t84.5 96.5t127.5 36q75 0 127 -33t79 -89t27 -126q0 -10 -1 -22t-3 -21h-397q3 -56 32 -94t75.5 -57t100.5 -19h129v-61h-125zM124 281h330q0 20 -4 44.5t-14.5 48.5t-29 44t-47 32.5t-69.5 12.5
q-38 0 -69 -16t-52 -42.5t-32.5 -58.5t-12.5 -65zM301 -175q-20 0 -35 15t-15 35q0 21 15 35.5t35 14.5q21 0 35.5 -14.5t14.5 -35.5q0 -20 -14.5 -35t-35.5 -15z" />
    <glyph glyph-name="uni1EBA" unicode="&#x1eba;" horiz-adv-x="558" 
d="M242 0q-58 0 -101 27t-66.5 71.5t-23.5 94.5t25.5 94.5t74.5 67.5q-49 25 -72.5 66.5t-23.5 87.5q0 53 25 96t67 68.5t94 25.5h271v-64h-263q-35 0 -62.5 -16.5t-43.5 -45.5t-16 -64q0 -32 17 -60t45 -44.5t64 -16.5h222v-64h-216q-43 0 -73.5 -19t-46 -49t-15.5 -64
q0 -33 15 -62t44 -47.5t70 -18.5h259v-64h-270zM272 748v28q20 0 42 8.5t37.5 24t15.5 35.5q0 19 -16 33t-57 14q-18 0 -32.5 -1.5t-22.5 -4.5v45q11 3 27.5 5t33.5 2q57 0 86 -21t29 -59q0 -35 -24 -59.5t-58 -37t-61 -12.5z" />
    <glyph glyph-name="uni1EBB" unicode="&#x1ebb;" horiz-adv-x="573" 
d="M336 0q-82 0 -146.5 30.5t-102 87.5t-37.5 137q0 74 30 134.5t84.5 96.5t127.5 36q75 0 127 -33t79 -89t27 -126q0 -10 -1 -22t-3 -21h-397q3 -56 32 -94t75.5 -57t100.5 -19h129v-61h-125zM124 281h330q0 20 -4 44.5t-14.5 48.5t-29 44t-47 32.5t-69.5 12.5
q-38 0 -69 -16t-52 -42.5t-32.5 -58.5t-12.5 -65zM254 567v28q20 0 42 8.5t37.5 24t15.5 35.5q0 19 -16 33t-57 14q-18 0 -32.5 -1.5t-22.5 -4.5v45q11 3 27.5 5t33.5 2q57 0 86 -21t29 -59q0 -35 -24 -59.5t-58 -37t-61 -12.5z" />
    <glyph glyph-name="uni1EBC" unicode="&#x1ebc;" horiz-adv-x="558" 
d="M242 0q-58 0 -101 27t-66.5 71.5t-23.5 94.5t25.5 94.5t74.5 67.5q-49 25 -72.5 66.5t-23.5 87.5q0 53 25 96t67 68.5t94 25.5h271v-64h-263q-35 0 -62.5 -16.5t-43.5 -45.5t-16 -64q0 -32 17 -60t45 -44.5t64 -16.5h222v-64h-216q-43 0 -73.5 -19t-46 -49t-15.5 -64
q0 -33 15 -62t44 -47.5t70 -18.5h259v-64h-270zM386 747q-26 0 -43 8.5t-27.5 22t-20.5 25.5q-10 14 -21.5 24.5t-29.5 10.5q-17 0 -29.5 -15t-12.5 -42v-24h-48v23q0 50 27 77.5t65 27.5q34 0 54 -16.5t33 -33.5q12 -15 23.5 -27.5t31.5 -12.5q17 0 30 14.5t13 42.5v24h48
v-23q0 -50 -27.5 -78t-65.5 -28z" />
    <glyph glyph-name="uni1EBD" unicode="&#x1ebd;" horiz-adv-x="573" 
d="M336 0q-82 0 -146.5 30.5t-102 87.5t-37.5 137q0 74 30 134.5t84.5 96.5t127.5 36q75 0 127 -33t79 -89t27 -126q0 -10 -1 -22t-3 -21h-397q3 -56 32 -94t75.5 -57t100.5 -19h129v-61h-125zM124 281h330q0 20 -4 44.5t-14.5 48.5t-29 44t-47 32.5t-69.5 12.5
q-38 0 -69 -16t-52 -42.5t-32.5 -58.5t-12.5 -65zM363 579q-26 0 -43 8.5t-27.5 22t-20.5 25.5q-10 14 -21.5 24.5t-29.5 10.5q-17 0 -29.5 -15t-12.5 -42v-24h-48v23q0 50 27 77.5t65 27.5q34 0 54 -16.5t33 -33.5q12 -15 23.5 -27.5t31.5 -12.5q17 0 30 14.5t13 42.5v24
h48v-23q0 -50 -27.5 -78t-65.5 -28z" />
    <glyph glyph-name="uni1EBE" unicode="&#x1ebe;" horiz-adv-x="558" 
d="M242 0q-58 0 -101 27t-66.5 71.5t-23.5 94.5t25.5 94.5t74.5 67.5q-49 25 -72.5 66.5t-23.5 87.5q0 53 25 96t67 68.5t94 25.5h271v-64h-263q-35 0 -62.5 -16.5t-43.5 -45.5t-16 -64q0 -32 17 -60t45 -44.5t64 -16.5h222v-64h-216q-43 0 -73.5 -19t-46 -49t-15.5 -64
q0 -33 15 -62t44 -47.5t70 -18.5h259v-64h-270zM183 757l96 123h83l96 -123h-61l-77 93l-76 -93h-61zM289 925l96 123h68l-96 -123h-68z" />
    <glyph glyph-name="uni1EBF" unicode="&#x1ebf;" horiz-adv-x="573" 
d="M336 0q-82 0 -146.5 30.5t-102 87.5t-37.5 137q0 74 30 134.5t84.5 96.5t127.5 36q75 0 127 -33t79 -89t27 -126q0 -10 -1 -22t-3 -21h-397q3 -56 32 -94t75.5 -57t100.5 -19h129v-61h-125zM124 281h330q0 20 -4 44.5t-14.5 48.5t-29 44t-47 32.5t-69.5 12.5
q-38 0 -69 -16t-52 -42.5t-32.5 -58.5t-12.5 -65zM162 577l96 123h83l96 -123h-61l-77 93l-76 -93h-61zM279 757l96 123h68l-96 -123h-68z" />
    <glyph glyph-name="uni1EC0" unicode="&#x1ec0;" horiz-adv-x="558" 
d="M242 0q-58 0 -101 27t-66.5 71.5t-23.5 94.5t25.5 94.5t74.5 67.5q-49 25 -72.5 66.5t-23.5 87.5q0 53 25 96t67 68.5t94 25.5h271v-64h-263q-35 0 -62.5 -16.5t-43.5 -45.5t-16 -64q0 -32 17 -60t45 -44.5t64 -16.5h222v-64h-216q-43 0 -73.5 -19t-46 -49t-15.5 -64
q0 -33 15 -62t44 -47.5t70 -18.5h259v-64h-270zM183 757l96 123h83l96 -123h-61l-77 93l-76 -93h-61zM266 925l-96 123h68l96 -123h-68z" />
    <glyph glyph-name="uni1EC1" unicode="&#x1ec1;" horiz-adv-x="573" 
d="M336 0q-82 0 -146.5 30.5t-102 87.5t-37.5 137q0 74 30 134.5t84.5 96.5t127.5 36q75 0 127 -33t79 -89t27 -126q0 -10 -1 -22t-3 -21h-397q3 -56 32 -94t75.5 -57t100.5 -19h129v-61h-125zM124 281h330q0 20 -4 44.5t-14.5 48.5t-29 44t-47 32.5t-69.5 12.5
q-38 0 -69 -16t-52 -42.5t-32.5 -58.5t-12.5 -65zM162 577l96 123h83l96 -123h-61l-77 93l-76 -93h-61zM265 757l-96 123h68l96 -123h-68z" />
    <glyph glyph-name="uni1EC2" unicode="&#x1ec2;" horiz-adv-x="558" 
d="M242 0q-58 0 -101 27t-66.5 71.5t-23.5 94.5t25.5 94.5t74.5 67.5q-49 25 -72.5 66.5t-23.5 87.5q0 53 25 96t67 68.5t94 25.5h271v-64h-263q-35 0 -62.5 -16.5t-43.5 -45.5t-16 -64q0 -32 17 -60t45 -44.5t64 -16.5h222v-64h-216q-43 0 -73.5 -19t-46 -49t-15.5 -64
q0 -33 15 -62t44 -47.5t70 -18.5h259v-64h-270zM183 757l96 123h83l96 -123h-61l-77 93l-76 -93h-61zM275 905v28q20 0 42 8.5t37.5 24t15.5 35.5q0 19 -16 33t-57 14q-18 0 -32.5 -1.5t-22.5 -4.5v45q11 3 27.5 5t33.5 2q57 0 86 -21t29 -59q0 -35 -24 -59.5t-58 -37
t-61 -12.5z" />
    <glyph glyph-name="uni1EC3" unicode="&#x1ec3;" horiz-adv-x="573" 
d="M336 0q-82 0 -146.5 30.5t-102 87.5t-37.5 137q0 74 30 134.5t84.5 96.5t127.5 36q75 0 127 -33t79 -89t27 -126q0 -10 -1 -22t-3 -21h-397q3 -56 32 -94t75.5 -57t100.5 -19h129v-61h-125zM124 281h330q0 20 -4 44.5t-14.5 48.5t-29 44t-47 32.5t-69.5 12.5
q-38 0 -69 -16t-52 -42.5t-32.5 -58.5t-12.5 -65zM162 577l96 123h83l96 -123h-61l-77 93l-76 -93h-61zM254 747v28q20 0 42 8.5t37.5 24t15.5 35.5q0 19 -16 33t-57 14q-18 0 -32.5 -1.5t-22.5 -4.5v45q11 3 27.5 5t33.5 2q57 0 86 -21t29 -59q0 -35 -24 -59.5t-58 -37
t-61 -12.5z" />
    <glyph glyph-name="uni1EC4" unicode="&#x1ec4;" horiz-adv-x="558" 
d="M242 0q-58 0 -101 27t-66.5 71.5t-23.5 94.5t25.5 94.5t74.5 67.5q-49 25 -72.5 66.5t-23.5 87.5q0 53 25 96t67 68.5t94 25.5h271v-64h-263q-35 0 -62.5 -16.5t-43.5 -45.5t-16 -64q0 -32 17 -60t45 -44.5t64 -16.5h222v-64h-216q-43 0 -73.5 -19t-46 -49t-15.5 -64
q0 -33 15 -62t44 -47.5t70 -18.5h259v-64h-270zM183 757l96 123h83l96 -123h-61l-77 93l-76 -93h-61zM391 923q-26 0 -43 8.5t-27.5 22t-20.5 25.5q-10 14 -21.5 24.5t-29.5 10.5q-17 0 -29.5 -15t-12.5 -42v-24h-48v23q0 50 27 77.5t65 27.5q34 0 54 -16.5t33 -33.5
q12 -15 23.5 -27.5t31.5 -12.5q17 0 30 14.5t13 42.5v24h48v-23q0 -50 -27.5 -78t-65.5 -28z" />
    <glyph glyph-name="uni1EC5" unicode="&#x1ec5;" horiz-adv-x="573" 
d="M336 0q-82 0 -146.5 30.5t-102 87.5t-37.5 137q0 74 30 134.5t84.5 96.5t127.5 36q75 0 127 -33t79 -89t27 -126q0 -10 -1 -22t-3 -21h-397q3 -56 32 -94t75.5 -57t100.5 -19h129v-61h-125zM124 281h330q0 20 -4 44.5t-14.5 48.5t-29 44t-47 32.5t-69.5 12.5
q-38 0 -69 -16t-52 -42.5t-32.5 -58.5t-12.5 -65zM162 577l96 123h83l96 -123h-61l-77 93l-76 -93h-61zM370 747q-26 0 -43 8.5t-27.5 22t-20.5 25.5q-10 14 -21.5 24.5t-29.5 10.5q-17 0 -29.5 -15t-12.5 -42v-24h-48v23q0 50 27 77.5t65 27.5q34 0 54 -16.5t33 -33.5
q12 -15 23.5 -27.5t31.5 -12.5q17 0 30 14.5t13 42.5v24h48v-23q0 -50 -27.5 -78t-65.5 -28z" />
    <glyph glyph-name="uni1EC6" unicode="&#x1ec6;" horiz-adv-x="558" 
d="M242 0q-58 0 -101 27t-66.5 71.5t-23.5 94.5t25.5 94.5t74.5 67.5q-49 25 -72.5 66.5t-23.5 87.5q0 53 25 96t67 68.5t94 25.5h271v-64h-263q-35 0 -62.5 -16.5t-43.5 -45.5t-16 -64q0 -32 17 -60t45 -44.5t64 -16.5h222v-64h-216q-43 0 -73.5 -19t-46 -49t-15.5 -64
q0 -33 15 -62t44 -47.5t70 -18.5h259v-64h-270zM312 -175q-20 0 -35 15t-15 35q0 21 15 35.5t35 14.5q21 0 35.5 -14.5t14.5 -35.5q0 -20 -14.5 -35t-35.5 -15zM186 757l96 123h83l96 -123h-61l-77 93l-76 -93h-61z" />
    <glyph glyph-name="uni1EC7" unicode="&#x1ec7;" horiz-adv-x="574" 
d="M336 0q-82 0 -146.5 30.5t-102 87.5t-37.5 137q0 74 30 134.5t84.5 96.5t127.5 36q75 0 127 -33t79 -89t27 -126q0 -10 -1 -22t-3 -21h-397q3 -56 32 -94t75.5 -57t100.5 -19h129v-61h-125zM124 281h330q0 20 -4 44.5t-14.5 48.5t-29 44t-47 32.5t-69.5 12.5
q-38 0 -69 -16t-52 -42.5t-32.5 -58.5t-12.5 -65zM162 577l96 123h83l96 -123h-61l-77 93l-76 -93h-61zM301 -175q-20 0 -35 15t-15 35q0 21 15 35.5t35 14.5q21 0 35.5 -14.5t14.5 -35.5q0 -20 -14.5 -35t-35.5 -15z" />
    <glyph glyph-name="uni1EC8" unicode="&#x1ec8;" horiz-adv-x="454" 
d="M52 0v64h139v572h-139v64h350v-64h-139v-572h139v-64h-350zM186 747v28q20 0 42 8.5t37.5 24t15.5 35.5q0 19 -16 33t-57 14q-18 0 -32.5 -1.5t-22.5 -4.5v45q11 3 27.5 5t33.5 2q57 0 86 -21t29 -59q0 -35 -24 -59.5t-58 -37t-61 -12.5z" />
    <glyph glyph-name="uni1EC9" unicode="&#x1ec9;" horiz-adv-x="224" 
d="M77 0v510h70v-510h-70zM73 570v28q20 0 42 8.5t37.5 24t15.5 35.5q0 19 -16 33t-57 14q-18 0 -32.5 -1.5t-22.5 -4.5v45q11 3 27.5 5t33.5 2q57 0 86 -21t29 -59q0 -35 -24 -59.5t-58 -37t-61 -12.5z" />
    <glyph glyph-name="uni1ECA" unicode="&#x1eca;" horiz-adv-x="454" 
d="M52 0v64h139v572h-139v64h350v-64h-139v-572h139v-64h-350zM229 -175q-20 0 -35 15t-15 35q0 21 15 35.5t35 14.5q21 0 35.5 -14.5t14.5 -35.5q0 -20 -14.5 -35t-35.5 -15z" />
    <glyph glyph-name="uni1ECB" unicode="&#x1ecb;" horiz-adv-x="224" 
d="M77 0v510h70v-510h-70zM112 602q-20 0 -35 15t-15 35q0 21 15 35.5t35 14.5q21 0 35.5 -14.5t14.5 -35.5q0 -20 -14.5 -35t-35.5 -15zM113 -175q-20 0 -35 15t-15 35q0 21 15 35.5t35 14.5q21 0 35.5 -14.5t14.5 -35.5q0 -20 -14.5 -35t-35.5 -15z" />
    <glyph glyph-name="uni1ECC" unicode="&#x1ecc;" horiz-adv-x="820" 
d="M410 -13q-82 0 -149 28t-114.5 78t-73 116t-25.5 141t25.5 141t73 116t114.5 78t149 28q83 0 149.5 -28t114 -78t73 -116t25.5 -141t-25.5 -141t-73 -116t-114 -78t-149.5 -28zM410 52q63 0 116 22t92 62.5t60.5 95t21.5 118.5q0 65 -21.5 119t-60.5 94.5t-92 63
t-116 22.5q-62 0 -115 -22.5t-92.5 -63t-61 -95t-21.5 -118.5t21.5 -118.5t61 -95t92.5 -62.5t115 -22zM417 -175q-20 0 -35 15t-15 35q0 21 15 35.5t35 14.5q21 0 35.5 -14.5t14.5 -35.5q0 -20 -14.5 -35t-35.5 -15z" />
    <glyph glyph-name="uni1ECD" unicode="&#x1ecd;" horiz-adv-x="630" 
d="M315 -13q-77 0 -137 35.5t-94 96.5t-34 136t34 136t94 96.5t137 35.5t136.5 -35.5t94 -96t34.5 -136.5q0 -75 -34.5 -136t-94 -96.5t-136.5 -35.5zM315 48q57 0 101 27.5t68.5 74.5t24.5 105t-24.5 105t-68.5 74.5t-101 27.5q-58 0 -101.5 -27.5t-68 -74.5t-24.5 -105
t24.5 -105t68 -74.5t101.5 -27.5zM313 -175q-20 0 -35 15t-15 35q0 21 15 35.5t35 14.5q21 0 35.5 -14.5t14.5 -35.5q0 -20 -14.5 -35t-35.5 -15z" />
    <glyph glyph-name="uni1ECE" unicode="&#x1ece;" horiz-adv-x="820" 
d="M410 -13q-82 0 -149 28t-114.5 78t-73 116t-25.5 141t25.5 141t73 116t114.5 78t149 28q83 0 149.5 -28t114 -78t73 -116t25.5 -141t-25.5 -141t-73 -116t-114 -78t-149.5 -28zM410 52q63 0 116 22t92 62.5t60.5 95t21.5 118.5q0 65 -21.5 119t-60.5 94.5t-92 63
t-116 22.5q-62 0 -115 -22.5t-92.5 -63t-61 -95t-21.5 -118.5t21.5 -118.5t61 -95t92.5 -62.5t115 -22zM363 750v28q20 0 42 8.5t37.5 24t15.5 35.5q0 19 -16 33t-57 14q-18 0 -32.5 -1.5t-22.5 -4.5v45q11 3 27.5 5t33.5 2q57 0 86 -21t29 -59q0 -35 -24 -59.5t-58 -37
t-61 -12.5z" />
    <glyph glyph-name="uni1ECF" unicode="&#x1ecf;" horiz-adv-x="630" 
d="M315 -13q-77 0 -137 35.5t-94 96.5t-34 136t34 136t94 96.5t137 35.5t136.5 -35.5t94 -96t34.5 -136.5q0 -75 -34.5 -136t-94 -96.5t-136.5 -35.5zM315 48q57 0 101 27.5t68.5 74.5t24.5 105t-24.5 105t-68.5 74.5t-101 27.5q-58 0 -101.5 -27.5t-68 -74.5t-24.5 -105
t24.5 -105t68 -74.5t101.5 -27.5zM272 568v28q20 0 42 8.5t37.5 24t15.5 35.5q0 19 -16 33t-57 14q-18 0 -32.5 -1.5t-22.5 -4.5v45q11 3 27.5 5t33.5 2q57 0 86 -21t29 -59q0 -35 -24 -59.5t-58 -37t-61 -12.5z" />
    <glyph glyph-name="uni1ED0" unicode="&#x1ed0;" horiz-adv-x="820" 
d="M410 -13q-82 0 -149 28t-114.5 78t-73 116t-25.5 141t25.5 141t73 116t114.5 78t149 28q83 0 149.5 -28t114 -78t73 -116t25.5 -141t-25.5 -141t-73 -116t-114 -78t-149.5 -28zM410 52q63 0 116 22t92 62.5t60.5 95t21.5 118.5q0 65 -21.5 119t-60.5 94.5t-92 63
t-116 22.5q-62 0 -115 -22.5t-92.5 -63t-61 -95t-21.5 -118.5t21.5 -118.5t61 -95t92.5 -62.5t115 -22zM272 757l96 123h83l96 -123h-61l-77 93l-76 -93h-61zM387 910l96 123h68l-96 -123h-68z" />
    <glyph glyph-name="uni1ED1" unicode="&#x1ed1;" horiz-adv-x="630" 
d="M315 -13q-77 0 -137 35.5t-94 96.5t-34 136t34 136t94 96.5t137 35.5t136.5 -35.5t94 -96t34.5 -136.5q0 -75 -34.5 -136t-94 -96.5t-136.5 -35.5zM315 48q57 0 101 27.5t68.5 74.5t24.5 105t-24.5 105t-68.5 74.5t-101 27.5q-58 0 -101.5 -27.5t-68 -74.5t-24.5 -105
t24.5 -105t68 -74.5t101.5 -27.5zM178 577l96 123h83l96 -123h-61l-77 93l-76 -93h-61zM289 757l96 123h68l-96 -123h-68z" />
    <glyph glyph-name="uni1ED2" unicode="&#x1ed2;" horiz-adv-x="820" 
d="M410 -13q-82 0 -149 28t-114.5 78t-73 116t-25.5 141t25.5 141t73 116t114.5 78t149 28q83 0 149.5 -28t114 -78t73 -116t25.5 -141t-25.5 -141t-73 -116t-114 -78t-149.5 -28zM410 52q63 0 116 22t92 62.5t60.5 95t21.5 118.5q0 65 -21.5 119t-60.5 94.5t-92 63
t-116 22.5q-62 0 -115 -22.5t-92.5 -63t-61 -95t-21.5 -118.5t21.5 -118.5t61 -95t92.5 -62.5t115 -22zM272 757l96 123h83l96 -123h-61l-77 93l-76 -93h-61zM366 923l-96 123h68l96 -123h-68z" />
    <glyph glyph-name="uni1ED3" unicode="&#x1ed3;" horiz-adv-x="630" 
d="M315 -13q-77 0 -137 35.5t-94 96.5t-34 136t34 136t94 96.5t137 35.5t136.5 -35.5t94 -96t34.5 -136.5q0 -75 -34.5 -136t-94 -96.5t-136.5 -35.5zM315 48q57 0 101 27.5t68.5 74.5t24.5 105t-24.5 105t-68.5 74.5t-101 27.5q-58 0 -101.5 -27.5t-68 -74.5t-24.5 -105
t24.5 -105t68 -74.5t101.5 -27.5zM178 577l96 123h83l96 -123h-61l-77 93l-76 -93h-61zM277 757l-96 123h68l96 -123h-68z" />
    <glyph glyph-name="uni1ED4" unicode="&#x1ed4;" horiz-adv-x="820" 
d="M410 -13q-82 0 -149 28t-114.5 78t-73 116t-25.5 141t25.5 141t73 116t114.5 78t149 28q83 0 149.5 -28t114 -78t73 -116t25.5 -141t-25.5 -141t-73 -116t-114 -78t-149.5 -28zM410 52q63 0 116 22t92 62.5t60.5 95t21.5 118.5q0 65 -21.5 119t-60.5 94.5t-92 63
t-116 22.5q-62 0 -115 -22.5t-92.5 -63t-61 -95t-21.5 -118.5t21.5 -118.5t61 -95t92.5 -62.5t115 -22zM272 757l96 123h83l96 -123h-61l-77 93l-76 -93h-61zM367 920v28q20 0 42 8.5t37.5 24t15.5 35.5q0 19 -16 33t-57 14q-18 0 -32.5 -1.5t-22.5 -4.5v45q11 3 27.5 5
t33.5 2q57 0 86 -21t29 -59q0 -35 -24 -59.5t-58 -37t-61 -12.5z" />
    <glyph glyph-name="uni1ED5" unicode="&#x1ed5;" horiz-adv-x="630" 
d="M315 -13q-77 0 -137 35.5t-94 96.5t-34 136t34 136t94 96.5t137 35.5t136.5 -35.5t94 -96t34.5 -136.5q0 -75 -34.5 -136t-94 -96.5t-136.5 -35.5zM315 48q57 0 101 27.5t68.5 74.5t24.5 105t-24.5 105t-68.5 74.5t-101 27.5q-58 0 -101.5 -27.5t-68 -74.5t-24.5 -105
t24.5 -105t68 -74.5t101.5 -27.5zM178 577l96 123h83l96 -123h-61l-77 93l-76 -93h-61zM274 747v28q20 0 42 8.5t37.5 24t15.5 35.5q0 19 -16 33t-57 14q-18 0 -32.5 -1.5t-22.5 -4.5v45q11 3 27.5 5t33.5 2q57 0 86 -21t29 -59q0 -35 -24 -59.5t-58 -37t-61 -12.5z" />
    <glyph glyph-name="uni1ED6" unicode="&#x1ed6;" horiz-adv-x="820" 
d="M410 -13q-82 0 -149 28t-114.5 78t-73 116t-25.5 141t25.5 141t73 116t114.5 78t149 28q83 0 149.5 -28t114 -78t73 -116t25.5 -141t-25.5 -141t-73 -116t-114 -78t-149.5 -28zM410 52q63 0 116 22t92 62.5t60.5 95t21.5 118.5q0 65 -21.5 119t-60.5 94.5t-92 63
t-116 22.5q-62 0 -115 -22.5t-92.5 -63t-61 -95t-21.5 -118.5t21.5 -118.5t61 -95t92.5 -62.5t115 -22zM272 757l96 123h83l96 -123h-61l-77 93l-76 -93h-61zM482 923q-26 0 -43 8.5t-27.5 22t-20.5 25.5q-10 14 -21.5 24.5t-29.5 10.5q-17 0 -29.5 -15t-12.5 -42v-24h-48
v23q0 50 27 77.5t65 27.5q34 0 54 -16.5t33 -33.5q12 -15 23.5 -27.5t31.5 -12.5q17 0 30 14.5t13 42.5v24h48v-23q0 -50 -27.5 -78t-65.5 -28z" />
    <glyph glyph-name="uni1ED7" unicode="&#x1ed7;" horiz-adv-x="630" 
d="M315 -13q-77 0 -137 35.5t-94 96.5t-34 136t34 136t94 96.5t137 35.5t136.5 -35.5t94 -96t34.5 -136.5q0 -75 -34.5 -136t-94 -96.5t-136.5 -35.5zM315 48q57 0 101 27.5t68.5 74.5t24.5 105t-24.5 105t-68.5 74.5t-101 27.5q-58 0 -101.5 -27.5t-68 -74.5t-24.5 -105
t24.5 -105t68 -74.5t101.5 -27.5zM178 577l96 123h83l96 -123h-61l-77 93l-76 -93h-61zM383 747q-26 0 -43 8.5t-27.5 22t-20.5 25.5q-10 14 -21.5 24.5t-29.5 10.5q-17 0 -29.5 -15t-12.5 -42v-24h-48v23q0 50 27 77.5t65 27.5q34 0 54 -16.5t33 -33.5q12 -15 23.5 -27.5
t31.5 -12.5q17 0 30 14.5t13 42.5v24h48v-23q0 -50 -27.5 -78t-65.5 -28z" />
    <glyph glyph-name="uni1ED8" unicode="&#x1ed8;" horiz-adv-x="820" 
d="M410 -13q-82 0 -149 28t-114.5 78t-73 116t-25.5 141t25.5 141t73 116t114.5 78t149 28q83 0 149.5 -28t114 -78t73 -116t25.5 -141t-25.5 -141t-73 -116t-114 -78t-149.5 -28zM410 52q63 0 116 22t92 62.5t60.5 95t21.5 118.5q0 65 -21.5 119t-60.5 94.5t-92 63
t-116 22.5q-62 0 -115 -22.5t-92.5 -63t-61 -95t-21.5 -118.5t21.5 -118.5t61 -95t92.5 -62.5t115 -22zM272 757l96 123h83l96 -123h-61l-77 93l-76 -93h-61zM409 -175q-20 0 -35 15t-15 35q0 21 15 35.5t35 14.5q21 0 35.5 -14.5t14.5 -35.5q0 -20 -14.5 -35t-35.5 -15z
" />
    <glyph glyph-name="uni1ED9" unicode="&#x1ed9;" horiz-adv-x="630" 
d="M315 -13q-77 0 -137 35.5t-94 96.5t-34 136t34 136t94 96.5t137 35.5t136.5 -35.5t94 -96t34.5 -136.5q0 -75 -34.5 -136t-94 -96.5t-136.5 -35.5zM315 48q57 0 101 27.5t68.5 74.5t24.5 105t-24.5 105t-68.5 74.5t-101 27.5q-58 0 -101.5 -27.5t-68 -74.5t-24.5 -105
t24.5 -105t68 -74.5t101.5 -27.5zM178 577l96 123h83l96 -123h-61l-77 93l-76 -93h-61zM318 -175q-20 0 -35 15t-15 35q0 21 15 35.5t35 14.5q21 0 35.5 -14.5t14.5 -35.5q0 -20 -14.5 -35t-35.5 -15z" />
    <glyph glyph-name="uni1EDA" unicode="&#x1eda;" horiz-adv-x="820" 
d="M410 -13q-82 0 -149 28t-114.5 78t-73 116t-25.5 141t25.5 141t73 116t114.5 78t149 28q83 0 149.5 -28t114 -78t73 -116t25.5 -141t-25.5 -141t-73 -116t-114 -78t-149.5 -28zM410 52q63 0 116 22t92 62.5t60.5 95t21.5 118.5q0 65 -21.5 119t-60.5 94.5t-92 63
t-116 22.5q-62 0 -115 -22.5t-92.5 -63t-61 -95t-21.5 -118.5t21.5 -118.5t61 -95t92.5 -62.5t115 -22zM638 580v44h36q25 0 39.5 16t15.5 46v22h60v-23q-1 -54 -28.5 -79.5t-82.5 -25.5h-40zM374 756l96 123h68l-96 -123h-68z" />
    <glyph glyph-name="uni1EDB" unicode="&#x1edb;" horiz-adv-x="630" 
d="M315 -13q-77 0 -137 35.5t-94 96.5t-34 136t34 136t94 96.5t137 35.5t136.5 -35.5t94 -96t34.5 -136.5q0 -75 -34.5 -136t-94 -96.5t-136.5 -35.5zM315 48q57 0 101 27.5t68.5 74.5t24.5 105t-24.5 105t-68.5 74.5t-101 27.5q-58 0 -101.5 -27.5t-68 -74.5t-24.5 -105
t24.5 -105t68 -74.5t101.5 -27.5zM424 449v44h36q25 0 39.5 16t15.5 46v22h60v-23q-1 -54 -28.5 -79.5t-82.5 -25.5h-40zM282 577l96 123h68l-96 -123h-68z" />
    <glyph glyph-name="uni1EDC" unicode="&#x1edc;" horiz-adv-x="820" 
d="M410 -13q-82 0 -149 28t-114.5 78t-73 116t-25.5 141t25.5 141t73 116t114.5 78t149 28q83 0 149.5 -28t114 -78t73 -116t25.5 -141t-25.5 -141t-73 -116t-114 -78t-149.5 -28zM410 52q63 0 116 22t92 62.5t60.5 95t21.5 118.5q0 65 -21.5 119t-60.5 94.5t-92 63
t-116 22.5q-62 0 -115 -22.5t-92.5 -63t-61 -95t-21.5 -118.5t21.5 -118.5t61 -95t92.5 -62.5t115 -22zM638 580v44h36q25 0 39.5 16t15.5 46v22h60v-23q-1 -54 -28.5 -79.5t-82.5 -25.5h-40zM383 757l-96 123h68l96 -123h-68z" />
    <glyph glyph-name="uni1EDD" unicode="&#x1edd;" horiz-adv-x="630" 
d="M315 -13q-77 0 -137 35.5t-94 96.5t-34 136t34 136t94 96.5t137 35.5t136.5 -35.5t94 -96t34.5 -136.5q0 -75 -34.5 -136t-94 -96.5t-136.5 -35.5zM315 48q57 0 101 27.5t68.5 74.5t24.5 105t-24.5 105t-68.5 74.5t-101 27.5q-58 0 -101.5 -27.5t-68 -74.5t-24.5 -105
t24.5 -105t68 -74.5t101.5 -27.5zM424 449v44h36q25 0 39.5 16t15.5 46v22h60v-23q-1 -54 -28.5 -79.5t-82.5 -25.5h-40zM283 577l-96 123h68l96 -123h-68z" />
    <glyph glyph-name="uni1EDE" unicode="&#x1ede;" horiz-adv-x="820" 
d="M410 -13q-82 0 -149 28t-114.5 78t-73 116t-25.5 141t25.5 141t73 116t114.5 78t149 28q83 0 149.5 -28t114 -78t73 -116t25.5 -141t-25.5 -141t-73 -116t-114 -78t-149.5 -28zM410 52q63 0 116 22t92 62.5t60.5 95t21.5 118.5q0 65 -21.5 119t-60.5 94.5t-92 63
t-116 22.5q-62 0 -115 -22.5t-92.5 -63t-61 -95t-21.5 -118.5t21.5 -118.5t61 -95t92.5 -62.5t115 -22zM638 580v44h36q25 0 39.5 16t15.5 46v22h60v-23q-1 -54 -28.5 -79.5t-82.5 -25.5h-40zM379 758v28q20 0 42 8.5t37.5 24t15.5 35.5q0 19 -16 33t-57 14
q-18 0 -32.5 -1.5t-22.5 -4.5v45q11 3 27.5 5t33.5 2q57 0 86 -21t29 -59q0 -35 -24 -59.5t-58 -37t-61 -12.5z" />
    <glyph glyph-name="uni1EDF" unicode="&#x1edf;" horiz-adv-x="630" 
d="M315 -13q-77 0 -137 35.5t-94 96.5t-34 136t34 136t94 96.5t137 35.5t136.5 -35.5t94 -96t34.5 -136.5q0 -75 -34.5 -136t-94 -96.5t-136.5 -35.5zM315 48q57 0 101 27.5t68.5 74.5t24.5 105t-24.5 105t-68.5 74.5t-101 27.5q-58 0 -101.5 -27.5t-68 -74.5t-24.5 -105
t24.5 -105t68 -74.5t101.5 -27.5zM424 449v44h36q25 0 39.5 16t15.5 46v22h60v-23q-1 -54 -28.5 -79.5t-82.5 -25.5h-40zM280 567v28q20 0 42 8.5t37.5 24t15.5 35.5q0 19 -16 33t-57 14q-18 0 -32.5 -1.5t-22.5 -4.5v45q11 3 27.5 5t33.5 2q57 0 86 -21t29 -59
q0 -35 -24 -59.5t-58 -37t-61 -12.5z" />
    <glyph glyph-name="uni1EE0" unicode="&#x1ee0;" horiz-adv-x="820" 
d="M410 -13q-82 0 -149 28t-114.5 78t-73 116t-25.5 141t25.5 141t73 116t114.5 78t149 28q83 0 149.5 -28t114 -78t73 -116t25.5 -141t-25.5 -141t-73 -116t-114 -78t-149.5 -28zM410 52q63 0 116 22t92 62.5t60.5 95t21.5 118.5q0 65 -21.5 119t-60.5 94.5t-92 63
t-116 22.5q-62 0 -115 -22.5t-92.5 -63t-61 -95t-21.5 -118.5t21.5 -118.5t61 -95t92.5 -62.5t115 -22zM638 580v44h36q25 0 39.5 16t15.5 46v22h60v-23q-1 -54 -28.5 -79.5t-82.5 -25.5h-40zM481 748q-26 0 -43 8.5t-27.5 22t-20.5 25.5q-10 14 -21.5 24.5t-29.5 10.5
q-17 0 -29.5 -15t-12.5 -42v-24h-48v23q0 50 27 77.5t65 27.5q34 0 54 -16.5t33 -33.5q12 -15 23.5 -27.5t31.5 -12.5q17 0 30 14.5t13 42.5v24h48v-23q0 -50 -27.5 -78t-65.5 -28z" />
    <glyph glyph-name="uni1EE1" unicode="&#x1ee1;" horiz-adv-x="630" 
d="M315 -13q-77 0 -137 35.5t-94 96.5t-34 136t34 136t94 96.5t137 35.5t136.5 -35.5t94 -96t34.5 -136.5q0 -75 -34.5 -136t-94 -96.5t-136.5 -35.5zM315 48q57 0 101 27.5t68.5 74.5t24.5 105t-24.5 105t-68.5 74.5t-101 27.5q-58 0 -101.5 -27.5t-68 -74.5t-24.5 -105
t24.5 -105t68 -74.5t101.5 -27.5zM424 449v44h36q25 0 39.5 16t15.5 46v22h60v-23q-1 -54 -28.5 -79.5t-82.5 -25.5h-40zM384 579q-26 0 -43 8.5t-27.5 22t-20.5 25.5q-10 14 -21.5 24.5t-29.5 10.5q-17 0 -29.5 -15t-12.5 -42v-24h-48v23q0 50 27 77.5t65 27.5
q34 0 54 -16.5t33 -33.5q12 -15 23.5 -27.5t31.5 -12.5q17 0 30 14.5t13 42.5v24h48v-23q0 -50 -27.5 -78t-65.5 -28z" />
    <glyph glyph-name="uni1EE2" unicode="&#x1ee2;" horiz-adv-x="820" 
d="M410 -13q-82 0 -149 28t-114.5 78t-73 116t-25.5 141t25.5 141t73 116t114.5 78t149 28q83 0 149.5 -28t114 -78t73 -116t25.5 -141t-25.5 -141t-73 -116t-114 -78t-149.5 -28zM410 52q63 0 116 22t92 62.5t60.5 95t21.5 118.5q0 65 -21.5 119t-60.5 94.5t-92 63
t-116 22.5q-62 0 -115 -22.5t-92.5 -63t-61 -95t-21.5 -118.5t21.5 -118.5t61 -95t92.5 -62.5t115 -22zM638 580v44h36q25 0 39.5 16t15.5 46v22h60v-23q-1 -54 -28.5 -79.5t-82.5 -25.5h-40zM409 -175q-20 0 -35 15t-15 35q0 21 15 35.5t35 14.5q21 0 35.5 -14.5
t14.5 -35.5q0 -20 -14.5 -35t-35.5 -15z" />
    <glyph glyph-name="uni1EE3" unicode="&#x1ee3;" horiz-adv-x="630" 
d="M315 -13q-77 0 -137 35.5t-94 96.5t-34 136t34 136t94 96.5t137 35.5t136.5 -35.5t94 -96t34.5 -136.5q0 -75 -34.5 -136t-94 -96.5t-136.5 -35.5zM315 48q57 0 101 27.5t68.5 74.5t24.5 105t-24.5 105t-68.5 74.5t-101 27.5q-58 0 -101.5 -27.5t-68 -74.5t-24.5 -105
t24.5 -105t68 -74.5t101.5 -27.5zM424 449v44h36q25 0 39.5 16t15.5 46v22h60v-23q-1 -54 -28.5 -79.5t-82.5 -25.5h-40zM316 -180q-20 0 -35 15t-15 35q0 21 15 35.5t35 14.5q21 0 35.5 -14.5t14.5 -35.5q0 -20 -14.5 -35t-35.5 -15z" />
    <glyph glyph-name="uni1EE4" unicode="&#x1ee4;" 
d="M348 -13q-79 0 -140 34.5t-96 97.5t-35 150v431h72v-441q0 -57 24.5 -103.5t69 -75t105.5 -28.5q62 0 106.5 28t68.5 75t24 104v441h72v-431q0 -87 -35 -150t-96 -97.5t-140 -34.5zM355 -175q-20 0 -35 15t-15 35q0 21 15 35.5t35 14.5q21 0 35.5 -14.5t14.5 -35.5
q0 -20 -14.5 -35t-35.5 -15z" />
    <glyph glyph-name="uni1EE5" unicode="&#x1ee5;" horiz-adv-x="621" 
d="M310 -13q-64 0 -117 27.5t-84.5 78.5t-31.5 120v297h70v-294q0 -53 23.5 -91t60.5 -57.5t79 -19.5q43 0 80.5 20t60.5 57.5t23 90.5v294h70v-297q0 -69 -31.5 -120t-84 -78.5t-118.5 -27.5zM311 -181q-20 0 -35 15t-15 35q0 21 15 35.5t35 14.5q21 0 35.5 -14.5
t14.5 -35.5q0 -20 -14.5 -35t-35.5 -15z" />
    <glyph glyph-name="uni1EE6" unicode="&#x1ee6;" 
d="M348 -13q-79 0 -140 34.5t-96 97.5t-35 150v431h72v-441q0 -57 24.5 -103.5t69 -75t105.5 -28.5q62 0 106.5 28t68.5 75t24 104v441h72v-431q0 -87 -35 -150t-96 -97.5t-140 -34.5zM317 751v28q20 0 42 8.5t37.5 24t15.5 35.5q0 19 -16 33t-57 14q-18 0 -32.5 -1.5
t-22.5 -4.5v45q11 3 27.5 5t33.5 2q57 0 86 -21t29 -59q0 -35 -24 -59.5t-58 -37t-61 -12.5z" />
    <glyph glyph-name="uni1EE7" unicode="&#x1ee7;" horiz-adv-x="621" 
d="M310 -13q-64 0 -117 27.5t-84.5 78.5t-31.5 120v297h70v-294q0 -53 23.5 -91t60.5 -57.5t79 -19.5q43 0 80.5 20t60.5 57.5t23 90.5v294h70v-297q0 -69 -31.5 -120t-84 -78.5t-118.5 -27.5zM270 567v28q20 0 42 8.5t37.5 24t15.5 35.5q0 19 -16 33t-57 14
q-18 0 -32.5 -1.5t-22.5 -4.5v45q11 3 27.5 5t33.5 2q57 0 86 -21t29 -59q0 -35 -24 -59.5t-58 -37t-61 -12.5z" />
    <glyph glyph-name="uni1EE8" unicode="&#x1ee8;" horiz-adv-x="729" 
d="M348 -13q-79 0 -140 34.5t-96 97.5t-35 150v431h72v-441q0 -57 24.5 -103.5t69 -75t105.5 -28.5q62 0 106.5 28t68.5 75t24 104v441h72v-431q0 -87 -35 -150t-96 -97.5t-140 -34.5zM578 656v44h36q25 0 39.5 16t15.5 46v22h60v-23q-1 -54 -28.5 -79.5t-82.5 -25.5h-40z
M317 757l96 123h68l-96 -123h-68z" />
    <glyph glyph-name="uni1EE9" unicode="&#x1ee9;" horiz-adv-x="655" 
d="M310 -13q-64 0 -117 27.5t-84.5 78.5t-31.5 120v297h70v-294q0 -53 23.5 -91t60.5 -57.5t79 -19.5q43 0 80.5 20t60.5 57.5t23 90.5v294h70v-297q0 -69 -31.5 -120t-84 -78.5t-118.5 -27.5zM498 466v44h36q25 0 39.5 16t15.5 46v22h60v-23q-1 -54 -28.5 -79.5
t-82.5 -25.5h-40zM251 577l96 123h68l-96 -123h-68z" />
    <glyph glyph-name="uni1EEA" unicode="&#x1eea;" horiz-adv-x="729" 
d="M348 -13q-79 0 -140 34.5t-96 97.5t-35 150v431h72v-441q0 -57 24.5 -103.5t69 -75t105.5 -28.5q62 0 106.5 28t68.5 75t24 104v441h72v-431q0 -87 -35 -150t-96 -97.5t-140 -34.5zM578 656v44h36q25 0 39.5 16t15.5 46v22h60v-23q-1 -54 -28.5 -79.5t-82.5 -25.5h-40z
M328 757l-96 123h68l96 -123h-68z" />
    <glyph glyph-name="uni1EEB" unicode="&#x1eeb;" horiz-adv-x="655" 
d="M310 -13q-64 0 -117 27.5t-84.5 78.5t-31.5 120v297h70v-294q0 -53 23.5 -91t60.5 -57.5t79 -19.5q43 0 80.5 20t60.5 57.5t23 90.5v294h70v-297q0 -69 -31.5 -120t-84 -78.5t-118.5 -27.5zM498 466v44h36q25 0 39.5 16t15.5 46v22h60v-23q-1 -54 -28.5 -79.5
t-82.5 -25.5h-40zM269 577l-96 123h68l96 -123h-68z" />
    <glyph glyph-name="uni1EEC" unicode="&#x1eec;" horiz-adv-x="729" 
d="M348 -13q-79 0 -140 34.5t-96 97.5t-35 150v431h72v-441q0 -57 24.5 -103.5t69 -75t105.5 -28.5q62 0 106.5 28t68.5 75t24 104v441h72v-431q0 -87 -35 -150t-96 -97.5t-140 -34.5zM578 656v44h36q25 0 39.5 16t15.5 46v22h60v-23q-1 -54 -28.5 -79.5t-82.5 -25.5h-40z
M317 747v28q20 0 42 8.5t37.5 24t15.5 35.5q0 19 -16 33t-57 14q-18 0 -32.5 -1.5t-22.5 -4.5v45q11 3 27.5 5t33.5 2q57 0 86 -21t29 -59q0 -35 -24 -59.5t-58 -37t-61 -12.5z" />
    <glyph glyph-name="uni1EED" unicode="&#x1eed;" horiz-adv-x="655" 
d="M310 -13q-64 0 -117 27.5t-84.5 78.5t-31.5 120v297h70v-294q0 -53 23.5 -91t60.5 -57.5t79 -19.5q43 0 80.5 20t60.5 57.5t23 90.5v294h70v-297q0 -69 -31.5 -120t-84 -78.5t-118.5 -27.5zM498 466v44h36q25 0 39.5 16t15.5 46v22h60v-23q-1 -54 -28.5 -79.5
t-82.5 -25.5h-40zM273 568v28q20 0 42 8.5t37.5 24t15.5 35.5q0 19 -16 33t-57 14q-18 0 -32.5 -1.5t-22.5 -4.5v45q11 3 27.5 5t33.5 2q57 0 86 -21t29 -59q0 -35 -24 -59.5t-58 -37t-61 -12.5z" />
    <glyph glyph-name="uni1EEE" unicode="&#x1eee;" horiz-adv-x="729" 
d="M348 -13q-79 0 -140 34.5t-96 97.5t-35 150v431h72v-441q0 -57 24.5 -103.5t69 -75t105.5 -28.5q62 0 106.5 28t68.5 75t24 104v441h72v-431q0 -87 -35 -150t-96 -97.5t-140 -34.5zM578 656v44h36q25 0 39.5 16t15.5 46v22h60v-23q-1 -54 -28.5 -79.5t-82.5 -25.5h-40z
M418 747q-26 0 -43 8.5t-27.5 22t-20.5 25.5q-10 14 -21.5 24.5t-29.5 10.5q-17 0 -29.5 -15t-12.5 -42v-24h-48v23q0 50 27 77.5t65 27.5q34 0 54 -16.5t33 -33.5q12 -15 23.5 -27.5t31.5 -12.5q17 0 30 14.5t13 42.5v24h48v-23q0 -50 -27.5 -78t-65.5 -28z" />
    <glyph glyph-name="uni1EEF" unicode="&#x1eef;" horiz-adv-x="655" 
d="M310 -13q-64 0 -117 27.5t-84.5 78.5t-31.5 120v297h70v-294q0 -53 23.5 -91t60.5 -57.5t79 -19.5q43 0 80.5 20t60.5 57.5t23 90.5v294h70v-297q0 -69 -31.5 -120t-84 -78.5t-118.5 -27.5zM498 466v44h36q25 0 39.5 16t15.5 46v22h60v-23q-1 -54 -28.5 -79.5
t-82.5 -25.5h-40zM394 579q-26 0 -43 8.5t-27.5 22t-20.5 25.5q-10 14 -21.5 24.5t-29.5 10.5q-17 0 -29.5 -15t-12.5 -42v-24h-48v23q0 50 27 77.5t65 27.5q34 0 54 -16.5t33 -33.5q12 -15 23.5 -27.5t31.5 -12.5q17 0 30 14.5t13 42.5v24h48v-23q0 -50 -27.5 -78
t-65.5 -28z" />
    <glyph glyph-name="uni1EF0" unicode="&#x1ef0;" horiz-adv-x="729" 
d="M348 -13q-79 0 -140 34.5t-96 97.5t-35 150v431h72v-441q0 -57 24.5 -103.5t69 -75t105.5 -28.5q62 0 106.5 28t68.5 75t24 104v441h72v-431q0 -87 -35 -150t-96 -97.5t-140 -34.5zM578 656v44h36q25 0 39.5 16t15.5 46v22h60v-23q-1 -54 -28.5 -79.5t-82.5 -25.5h-40z
M356 -175q-20 0 -35 15t-15 35q0 21 15 35.5t35 14.5q21 0 35.5 -14.5t14.5 -35.5q0 -20 -14.5 -35t-35.5 -15z" />
    <glyph glyph-name="uni1EF1" unicode="&#x1ef1;" horiz-adv-x="655" 
d="M310 -13q-64 0 -117 27.5t-84.5 78.5t-31.5 120v297h70v-294q0 -53 23.5 -91t60.5 -57.5t79 -19.5q43 0 80.5 20t60.5 57.5t23 90.5v294h70v-297q0 -69 -31.5 -120t-84 -78.5t-118.5 -27.5zM498 466v44h36q25 0 39.5 16t15.5 46v22h60v-23q-1 -54 -28.5 -79.5
t-82.5 -25.5h-40zM319 -180q-20 0 -35 15t-15 35q0 21 15 35.5t35 14.5q21 0 35.5 -14.5t14.5 -35.5q0 -20 -14.5 -35t-35.5 -15z" />
    <glyph glyph-name="Ygrave" unicode="&#x1ef2;" 
d="M311 0v207q-76 8 -128.5 46.5t-79 99.5t-26.5 134v212h72v-219q0 -56 23 -104t68 -77.5t108 -29.5q64 0 108 29.5t67.5 77.5t23.5 104v219h72v-212q0 -73 -27 -134t-79.5 -100t-129.5 -46v-207h-72zM323 755l-96 123h68l96 -123h-68z" />
    <glyph glyph-name="ygrave" unicode="&#x1ef3;" horiz-adv-x="621" 
d="M276 -203v193q-56 7 -101 35.5t-71.5 76.5t-26.5 111v297h70v-294q0 -53 23.5 -91t60.5 -57.5t79 -19.5q43 0 80.5 20t61 57.5t23.5 90.5v294h69v-297q0 -64 -26.5 -111.5t-71.5 -76t-100 -34.5v-194h-70zM293 577l-96 123h68l96 -123h-68z" />
    <glyph glyph-name="uni1EF4" unicode="&#x1ef4;" 
d="M311 0v207q-76 8 -128.5 46.5t-79 99.5t-26.5 134v212h72v-219q0 -56 23 -104t68 -77.5t108 -29.5q64 0 108 29.5t67.5 77.5t23.5 104v219h72v-212q0 -73 -27 -134t-79.5 -100t-129.5 -46v-207h-72zM348 -175q-20 0 -35 15t-15 35q0 21 15 35.5t35 14.5q21 0 35.5 -14.5
t14.5 -35.5q0 -20 -14.5 -35t-35.5 -15z" />
    <glyph glyph-name="uni1EF5" unicode="&#x1ef5;" horiz-adv-x="621" 
d="M276 -203v193q-56 7 -101 35.5t-71.5 76.5t-26.5 111v297h70v-294q0 -53 23.5 -91t60.5 -57.5t79 -19.5q43 0 80.5 20t61 57.5t23.5 90.5v294h69v-297q0 -64 -26.5 -111.5t-71.5 -76t-100 -34.5v-194h-70zM472 -175q-20 0 -35 15t-15 35q0 21 15 35.5t35 14.5
q21 0 35.5 -14.5t14.5 -35.5q0 -20 -14.5 -35t-35.5 -15z" />
    <glyph glyph-name="uni1EF6" unicode="&#x1ef6;" 
d="M311 0v207q-76 8 -128.5 46.5t-79 99.5t-26.5 134v212h72v-219q0 -56 23 -104t68 -77.5t108 -29.5q64 0 108 29.5t67.5 77.5t23.5 104v219h72v-212q0 -73 -27 -134t-79.5 -100t-129.5 -46v-207h-72zM314 746v28q20 0 42 8.5t37.5 24t15.5 35.5q0 19 -16 33t-57 14
q-18 0 -32.5 -1.5t-22.5 -4.5v45q11 3 27.5 5t33.5 2q57 0 86 -21t29 -59q0 -35 -24 -59.5t-58 -37t-61 -12.5z" />
    <glyph glyph-name="uni1EF7" unicode="&#x1ef7;" horiz-adv-x="621" 
d="M276 -203v193q-56 7 -101 35.5t-71.5 76.5t-26.5 111v297h70v-294q0 -53 23.5 -91t60.5 -57.5t79 -19.5q43 0 80.5 20t61 57.5t23.5 90.5v294h69v-297q0 -64 -26.5 -111.5t-71.5 -76t-100 -34.5v-194h-70zM269 568v28q20 0 42 8.5t37.5 24t15.5 35.5q0 19 -16 33t-57 14
q-18 0 -32.5 -1.5t-22.5 -4.5v45q11 3 27.5 5t33.5 2q57 0 86 -21t29 -59q0 -35 -24 -59.5t-58 -37t-61 -12.5z" />
    <glyph glyph-name="uni1EF8" unicode="&#x1ef8;" 
d="M311 0v207q-76 8 -128.5 46.5t-79 99.5t-26.5 134v212h72v-219q0 -56 23 -104t68 -77.5t108 -29.5q64 0 108 29.5t67.5 77.5t23.5 104v219h72v-212q0 -73 -27 -134t-79.5 -100t-129.5 -46v-207h-72zM412 747q-26 0 -43 8.5t-27.5 22t-20.5 25.5q-10 14 -21.5 24.5
t-29.5 10.5q-17 0 -29.5 -15t-12.5 -42v-24h-48v23q0 50 27 77.5t65 27.5q34 0 54 -16.5t33 -33.5q12 -15 23.5 -27.5t31.5 -12.5q17 0 30 14.5t13 42.5v24h48v-23q0 -50 -27.5 -78t-65.5 -28z" />
    <glyph glyph-name="uni1EF9" unicode="&#x1ef9;" horiz-adv-x="621" 
d="M276 -203v193q-56 7 -101 35.5t-71.5 76.5t-26.5 111v297h70v-294q0 -53 23.5 -91t60.5 -57.5t79 -19.5q43 0 80.5 20t61 57.5t23.5 90.5v294h69v-297q0 -64 -26.5 -111.5t-71.5 -76t-100 -34.5v-194h-70zM383 579q-26 0 -43 8.5t-27.5 22t-20.5 25.5q-10 14 -21.5 24.5
t-29.5 10.5q-17 0 -29.5 -15t-12.5 -42v-24h-48v23q0 50 27 77.5t65 27.5q34 0 54 -16.5t33 -33.5q12 -15 23.5 -27.5t31.5 -12.5q17 0 30 14.5t13 42.5v24h48v-23q0 -50 -27.5 -78t-65.5 -28z" />
    <glyph glyph-name="uni2010" unicode="&#x2010;" horiz-adv-x="600" 
d="M40 232v64h283v-64h-283z" />
    <glyph glyph-name="endash" unicode="&#x2013;" horiz-adv-x="500" 
d="M0 231v65h500v-65h-500z" />
    <glyph glyph-name="emdash" unicode="&#x2014;" horiz-adv-x="1000" 
d="M0 231v65h1000v-65h-1000z" />
    <glyph glyph-name="uni2015" unicode="&#x2015;" horiz-adv-x="600" 
d="M0 231v65h1000v-65h-1000z" />
    <glyph glyph-name="underscoredbl" unicode="&#x2017;" horiz-adv-x="500" 
d="M0 -94v53h500v-53h-500zM0 -285v53h500v-53h-500z" />
    <glyph glyph-name="quoteleft" unicode="&#x2018;" horiz-adv-x="190" 
d="M90 424q-23 0 -38 16t-15 39q0 15 3 28.5t8 29.5l46 163h60l-49 -173q18 -5 28 -19.5t10 -31.5q0 -21 -15.5 -36.5t-37.5 -15.5z" />
    <glyph glyph-name="quoteright" unicode="&#x2019;" horiz-adv-x="190" 
d="M36 434l49 173q-18 5 -28 19.5t-10 30.5q0 22 16 37t37 15q24 0 38.5 -15.5t14.5 -38.5q0 -15 -2.5 -28.5t-8.5 -30.5l-46 -162h-60z" />
    <glyph glyph-name="quotesinglbase" unicode="&#x201a;" horiz-adv-x="180" 
d="M34 -146l41 140q-18 5 -28 19.5t-10 31.5q0 21 16 36.5t37 15.5q24 0 38.5 -16t14.5 -39q0 -15 -3 -28.5t-8 -30.5l-38 -129h-60z" />
    <glyph glyph-name="quotereversed" unicode="&#x201b;" horiz-adv-x="182" 
d="M148 434h-60l-46 162q-6 17 -8.5 30.5t-2.5 28.5q0 23 14.5 38.5t37.5 15.5q22 0 37.5 -15t15.5 -37q0 -16 -10 -30.5t-28 -19.5z" />
    <glyph glyph-name="quotedblleft" unicode="&#x201c;" horiz-adv-x="364" 
d="M90 424q-23 0 -38 16t-15 39q0 15 3 28.5t8 29.5l46 163h60l-49 -173q18 -5 28 -19.5t10 -31.5q0 -21 -15.5 -36.5t-37.5 -15.5zM273 424q-23 0 -38 16t-15 39q0 15 3 28.5t8 29.5l46 163h60l-49 -173q18 -5 28 -19.5t10 -31.5q0 -21 -15.5 -36.5t-37.5 -15.5z" />
    </font>
</defs>
</svg>
